<?xml version="1.0" encoding="utf-8" standalone="no"?>
<!DOCTYPE svg PUBLIC "-//W3C//DTD SVG 1.1//EN"
  "http://www.w3.org/Graphics/SVG/1.1/DTD/svg11.dtd">
<svg xmlns:xlink="http://www.w3.org/1999/xlink" width="432pt" height="288pt" viewBox="0 0 432 288" xmlns="http://www.w3.org/2000/svg" version="1.1">
 <metadata>
  <rdf:RDF xmlns:dc="http://purl.org/dc/elements/1.1/" xmlns:cc="http://creativecommons.org/ns#" xmlns:rdf="http://www.w3.org/1999/02/22-rdf-syntax-ns#">
   <cc:Work>
    <dc:type rdf:resource="http://purl.org/dc/dcmitype/StillImage"/>
    <dc:date>2022-04-17T19:19:43.999953</dc:date>
    <dc:format>image/svg+xml</dc:format>
    <dc:creator>
     <cc:Agent>
      <dc:title>Matplotlib v3.5.1, https://matplotlib.org/</dc:title>
     </cc:Agent>
    </dc:creator>
   </cc:Work>
  </rdf:RDF>
 </metadata>
 <defs>
  <style type="text/css">*{stroke-linejoin: round; stroke-linecap: butt}</style>
 </defs>
 <g id="figure_1">
  <g id="patch_1">
   <path d="M 0 288 
L 432 288 
L 432 0 
L 0 0 
L 0 288 
z
" style="fill: none"/>
  </g>
  <g id="axes_1">
   <g id="patch_2">
    <path d="M 54 252 
L 388.8 252 
L 388.8 34.56 
L 54 34.56 
z
" style="fill: #ffffff"/>
   </g>
   <g id="matplotlib.axis_1">
    <g id="xtick_1">
     <g id="line2d_1">
      <defs>
       <path id="md519129f78" d="M 0 0 
L 0 3.5 
" style="stroke: #000000; stroke-width: 0.8"/>
      </defs>
      <g>
       <use xlink:href="#md519129f78" x="69.218182" y="252" style="stroke: #000000; stroke-width: 0.8"/>
      </g>
     </g>
     <g id="text_1">
      <!-- 0 -->
      <g transform="translate(66.036932 266.598437)scale(0.1 -0.1)">
       <defs>
        <path id="DejaVuSans-30" d="M 2034 4250 
Q 1547 4250 1301 3770 
Q 1056 3291 1056 2328 
Q 1056 1369 1301 889 
Q 1547 409 2034 409 
Q 2525 409 2770 889 
Q 3016 1369 3016 2328 
Q 3016 3291 2770 3770 
Q 2525 4250 2034 4250 
z
M 2034 4750 
Q 2819 4750 3233 4129 
Q 3647 3509 3647 2328 
Q 3647 1150 3233 529 
Q 2819 -91 2034 -91 
Q 1250 -91 836 529 
Q 422 1150 422 2328 
Q 422 3509 836 4129 
Q 1250 4750 2034 4750 
z
" transform="scale(0.015625)"/>
       </defs>
       <use xlink:href="#DejaVuSans-30"/>
      </g>
     </g>
    </g>
    <g id="xtick_2">
     <g id="line2d_2">
      <g>
       <use xlink:href="#md519129f78" x="130.705785" y="252" style="stroke: #000000; stroke-width: 0.8"/>
      </g>
     </g>
     <g id="text_2">
      <!-- 20 -->
      <g transform="translate(124.343285 266.598437)scale(0.1 -0.1)">
       <defs>
        <path id="DejaVuSans-32" d="M 1228 531 
L 3431 531 
L 3431 0 
L 469 0 
L 469 531 
Q 828 903 1448 1529 
Q 2069 2156 2228 2338 
Q 2531 2678 2651 2914 
Q 2772 3150 2772 3378 
Q 2772 3750 2511 3984 
Q 2250 4219 1831 4219 
Q 1534 4219 1204 4116 
Q 875 4013 500 3803 
L 500 4441 
Q 881 4594 1212 4672 
Q 1544 4750 1819 4750 
Q 2544 4750 2975 4387 
Q 3406 4025 3406 3419 
Q 3406 3131 3298 2873 
Q 3191 2616 2906 2266 
Q 2828 2175 2409 1742 
Q 1991 1309 1228 531 
z
" transform="scale(0.015625)"/>
       </defs>
       <use xlink:href="#DejaVuSans-32"/>
       <use xlink:href="#DejaVuSans-30" x="63.623047"/>
      </g>
     </g>
    </g>
    <g id="xtick_3">
     <g id="line2d_3">
      <g>
       <use xlink:href="#md519129f78" x="192.193388" y="252" style="stroke: #000000; stroke-width: 0.8"/>
      </g>
     </g>
     <g id="text_3">
      <!-- 40 -->
      <g transform="translate(185.830888 266.598437)scale(0.1 -0.1)">
       <defs>
        <path id="DejaVuSans-34" d="M 2419 4116 
L 825 1625 
L 2419 1625 
L 2419 4116 
z
M 2253 4666 
L 3047 4666 
L 3047 1625 
L 3713 1625 
L 3713 1100 
L 3047 1100 
L 3047 0 
L 2419 0 
L 2419 1100 
L 313 1100 
L 313 1709 
L 2253 4666 
z
" transform="scale(0.015625)"/>
       </defs>
       <use xlink:href="#DejaVuSans-34"/>
       <use xlink:href="#DejaVuSans-30" x="63.623047"/>
      </g>
     </g>
    </g>
    <g id="xtick_4">
     <g id="line2d_4">
      <g>
       <use xlink:href="#md519129f78" x="253.680992" y="252" style="stroke: #000000; stroke-width: 0.8"/>
      </g>
     </g>
     <g id="text_4">
      <!-- 60 -->
      <g transform="translate(247.318492 266.598437)scale(0.1 -0.1)">
       <defs>
        <path id="DejaVuSans-36" d="M 2113 2584 
Q 1688 2584 1439 2293 
Q 1191 2003 1191 1497 
Q 1191 994 1439 701 
Q 1688 409 2113 409 
Q 2538 409 2786 701 
Q 3034 994 3034 1497 
Q 3034 2003 2786 2293 
Q 2538 2584 2113 2584 
z
M 3366 4563 
L 3366 3988 
Q 3128 4100 2886 4159 
Q 2644 4219 2406 4219 
Q 1781 4219 1451 3797 
Q 1122 3375 1075 2522 
Q 1259 2794 1537 2939 
Q 1816 3084 2150 3084 
Q 2853 3084 3261 2657 
Q 3669 2231 3669 1497 
Q 3669 778 3244 343 
Q 2819 -91 2113 -91 
Q 1303 -91 875 529 
Q 447 1150 447 2328 
Q 447 3434 972 4092 
Q 1497 4750 2381 4750 
Q 2619 4750 2861 4703 
Q 3103 4656 3366 4563 
z
" transform="scale(0.015625)"/>
       </defs>
       <use xlink:href="#DejaVuSans-36"/>
       <use xlink:href="#DejaVuSans-30" x="63.623047"/>
      </g>
     </g>
    </g>
    <g id="xtick_5">
     <g id="line2d_5">
      <g>
       <use xlink:href="#md519129f78" x="315.168595" y="252" style="stroke: #000000; stroke-width: 0.8"/>
      </g>
     </g>
     <g id="text_5">
      <!-- 80 -->
      <g transform="translate(308.806095 266.598437)scale(0.1 -0.1)">
       <defs>
        <path id="DejaVuSans-38" d="M 2034 2216 
Q 1584 2216 1326 1975 
Q 1069 1734 1069 1313 
Q 1069 891 1326 650 
Q 1584 409 2034 409 
Q 2484 409 2743 651 
Q 3003 894 3003 1313 
Q 3003 1734 2745 1975 
Q 2488 2216 2034 2216 
z
M 1403 2484 
Q 997 2584 770 2862 
Q 544 3141 544 3541 
Q 544 4100 942 4425 
Q 1341 4750 2034 4750 
Q 2731 4750 3128 4425 
Q 3525 4100 3525 3541 
Q 3525 3141 3298 2862 
Q 3072 2584 2669 2484 
Q 3125 2378 3379 2068 
Q 3634 1759 3634 1313 
Q 3634 634 3220 271 
Q 2806 -91 2034 -91 
Q 1263 -91 848 271 
Q 434 634 434 1313 
Q 434 1759 690 2068 
Q 947 2378 1403 2484 
z
M 1172 3481 
Q 1172 3119 1398 2916 
Q 1625 2713 2034 2713 
Q 2441 2713 2670 2916 
Q 2900 3119 2900 3481 
Q 2900 3844 2670 4047 
Q 2441 4250 2034 4250 
Q 1625 4250 1398 4047 
Q 1172 3844 1172 3481 
z
" transform="scale(0.015625)"/>
       </defs>
       <use xlink:href="#DejaVuSans-38"/>
       <use xlink:href="#DejaVuSans-30" x="63.623047"/>
      </g>
     </g>
    </g>
    <g id="xtick_6">
     <g id="line2d_6">
      <g>
       <use xlink:href="#md519129f78" x="376.656198" y="252" style="stroke: #000000; stroke-width: 0.8"/>
      </g>
     </g>
     <g id="text_6">
      <!-- 100 -->
      <g transform="translate(367.112448 266.598437)scale(0.1 -0.1)">
       <defs>
        <path id="DejaVuSans-31" d="M 794 531 
L 1825 531 
L 1825 4091 
L 703 3866 
L 703 4441 
L 1819 4666 
L 2450 4666 
L 2450 531 
L 3481 531 
L 3481 0 
L 794 0 
L 794 531 
z
" transform="scale(0.015625)"/>
       </defs>
       <use xlink:href="#DejaVuSans-31"/>
       <use xlink:href="#DejaVuSans-30" x="63.623047"/>
       <use xlink:href="#DejaVuSans-30" x="127.246094"/>
      </g>
     </g>
    </g>
    <g id="text_7">
     <!-- Step -->
     <g transform="translate(210.014844 280.276563)scale(0.1 -0.1)">
      <defs>
       <path id="DejaVuSans-53" d="M 3425 4513 
L 3425 3897 
Q 3066 4069 2747 4153 
Q 2428 4238 2131 4238 
Q 1616 4238 1336 4038 
Q 1056 3838 1056 3469 
Q 1056 3159 1242 3001 
Q 1428 2844 1947 2747 
L 2328 2669 
Q 3034 2534 3370 2195 
Q 3706 1856 3706 1288 
Q 3706 609 3251 259 
Q 2797 -91 1919 -91 
Q 1588 -91 1214 -16 
Q 841 59 441 206 
L 441 856 
Q 825 641 1194 531 
Q 1563 422 1919 422 
Q 2459 422 2753 634 
Q 3047 847 3047 1241 
Q 3047 1584 2836 1778 
Q 2625 1972 2144 2069 
L 1759 2144 
Q 1053 2284 737 2584 
Q 422 2884 422 3419 
Q 422 4038 858 4394 
Q 1294 4750 2059 4750 
Q 2388 4750 2728 4690 
Q 3069 4631 3425 4513 
z
" transform="scale(0.015625)"/>
       <path id="DejaVuSans-74" d="M 1172 4494 
L 1172 3500 
L 2356 3500 
L 2356 3053 
L 1172 3053 
L 1172 1153 
Q 1172 725 1289 603 
Q 1406 481 1766 481 
L 2356 481 
L 2356 0 
L 1766 0 
Q 1100 0 847 248 
Q 594 497 594 1153 
L 594 3053 
L 172 3053 
L 172 3500 
L 594 3500 
L 594 4494 
L 1172 4494 
z
" transform="scale(0.015625)"/>
       <path id="DejaVuSans-65" d="M 3597 1894 
L 3597 1613 
L 953 1613 
Q 991 1019 1311 708 
Q 1631 397 2203 397 
Q 2534 397 2845 478 
Q 3156 559 3463 722 
L 3463 178 
Q 3153 47 2828 -22 
Q 2503 -91 2169 -91 
Q 1331 -91 842 396 
Q 353 884 353 1716 
Q 353 2575 817 3079 
Q 1281 3584 2069 3584 
Q 2775 3584 3186 3129 
Q 3597 2675 3597 1894 
z
M 3022 2063 
Q 3016 2534 2758 2815 
Q 2500 3097 2075 3097 
Q 1594 3097 1305 2825 
Q 1016 2553 972 2059 
L 3022 2063 
z
" transform="scale(0.015625)"/>
       <path id="DejaVuSans-70" d="M 1159 525 
L 1159 -1331 
L 581 -1331 
L 581 3500 
L 1159 3500 
L 1159 2969 
Q 1341 3281 1617 3432 
Q 1894 3584 2278 3584 
Q 2916 3584 3314 3078 
Q 3713 2572 3713 1747 
Q 3713 922 3314 415 
Q 2916 -91 2278 -91 
Q 1894 -91 1617 61 
Q 1341 213 1159 525 
z
M 3116 1747 
Q 3116 2381 2855 2742 
Q 2594 3103 2138 3103 
Q 1681 3103 1420 2742 
Q 1159 2381 1159 1747 
Q 1159 1113 1420 752 
Q 1681 391 2138 391 
Q 2594 391 2855 752 
Q 3116 1113 3116 1747 
z
" transform="scale(0.015625)"/>
      </defs>
      <use xlink:href="#DejaVuSans-53"/>
      <use xlink:href="#DejaVuSans-74" x="63.476562"/>
      <use xlink:href="#DejaVuSans-65" x="102.685547"/>
      <use xlink:href="#DejaVuSans-70" x="164.208984"/>
     </g>
    </g>
   </g>
   <g id="matplotlib.axis_2">
    <g id="ytick_1">
     <g id="line2d_7">
      <defs>
       <path id="m5bb37d89e6" d="M 0 0 
L -3.5 0 
" style="stroke: #000000; stroke-width: 0.8"/>
      </defs>
      <g>
       <use xlink:href="#m5bb37d89e6" x="54" y="242.116364" style="stroke: #000000; stroke-width: 0.8"/>
      </g>
     </g>
     <g id="text_8">
      <!-- 0.0 -->
      <g transform="translate(31.096875 245.915582)scale(0.1 -0.1)">
       <defs>
        <path id="DejaVuSans-2e" d="M 684 794 
L 1344 794 
L 1344 0 
L 684 0 
L 684 794 
z
" transform="scale(0.015625)"/>
       </defs>
       <use xlink:href="#DejaVuSans-30"/>
       <use xlink:href="#DejaVuSans-2e" x="63.623047"/>
       <use xlink:href="#DejaVuSans-30" x="95.410156"/>
      </g>
     </g>
    </g>
    <g id="ytick_2">
     <g id="line2d_8">
      <g>
       <use xlink:href="#m5bb37d89e6" x="54" y="202.581818" style="stroke: #000000; stroke-width: 0.8"/>
      </g>
     </g>
     <g id="text_9">
      <!-- 0.2 -->
      <g transform="translate(31.096875 206.381037)scale(0.1 -0.1)">
       <use xlink:href="#DejaVuSans-30"/>
       <use xlink:href="#DejaVuSans-2e" x="63.623047"/>
       <use xlink:href="#DejaVuSans-32" x="95.410156"/>
      </g>
     </g>
    </g>
    <g id="ytick_3">
     <g id="line2d_9">
      <g>
       <use xlink:href="#m5bb37d89e6" x="54" y="163.047273" style="stroke: #000000; stroke-width: 0.8"/>
      </g>
     </g>
     <g id="text_10">
      <!-- 0.4 -->
      <g transform="translate(31.096875 166.846491)scale(0.1 -0.1)">
       <use xlink:href="#DejaVuSans-30"/>
       <use xlink:href="#DejaVuSans-2e" x="63.623047"/>
       <use xlink:href="#DejaVuSans-34" x="95.410156"/>
      </g>
     </g>
    </g>
    <g id="ytick_4">
     <g id="line2d_10">
      <g>
       <use xlink:href="#m5bb37d89e6" x="54" y="123.512727" style="stroke: #000000; stroke-width: 0.8"/>
      </g>
     </g>
     <g id="text_11">
      <!-- 0.6 -->
      <g transform="translate(31.096875 127.311946)scale(0.1 -0.1)">
       <use xlink:href="#DejaVuSans-30"/>
       <use xlink:href="#DejaVuSans-2e" x="63.623047"/>
       <use xlink:href="#DejaVuSans-36" x="95.410156"/>
      </g>
     </g>
    </g>
    <g id="ytick_5">
     <g id="line2d_11">
      <g>
       <use xlink:href="#m5bb37d89e6" x="54" y="83.978182" style="stroke: #000000; stroke-width: 0.8"/>
      </g>
     </g>
     <g id="text_12">
      <!-- 0.8 -->
      <g transform="translate(31.096875 87.777401)scale(0.1 -0.1)">
       <use xlink:href="#DejaVuSans-30"/>
       <use xlink:href="#DejaVuSans-2e" x="63.623047"/>
       <use xlink:href="#DejaVuSans-38" x="95.410156"/>
      </g>
     </g>
    </g>
    <g id="ytick_6">
     <g id="line2d_12">
      <g>
       <use xlink:href="#m5bb37d89e6" x="54" y="44.443636" style="stroke: #000000; stroke-width: 0.8"/>
      </g>
     </g>
     <g id="text_13">
      <!-- 1.0 -->
      <g transform="translate(31.096875 48.242855)scale(0.1 -0.1)">
       <use xlink:href="#DejaVuSans-31"/>
       <use xlink:href="#DejaVuSans-2e" x="63.623047"/>
       <use xlink:href="#DejaVuSans-30" x="95.410156"/>
      </g>
     </g>
    </g>
    <g id="text_14">
     <!-- Cost value -->
     <g transform="translate(25.017187 169.6425)rotate(-90)scale(0.1 -0.1)">
      <defs>
       <path id="DejaVuSans-43" d="M 4122 4306 
L 4122 3641 
Q 3803 3938 3442 4084 
Q 3081 4231 2675 4231 
Q 1875 4231 1450 3742 
Q 1025 3253 1025 2328 
Q 1025 1406 1450 917 
Q 1875 428 2675 428 
Q 3081 428 3442 575 
Q 3803 722 4122 1019 
L 4122 359 
Q 3791 134 3420 21 
Q 3050 -91 2638 -91 
Q 1578 -91 968 557 
Q 359 1206 359 2328 
Q 359 3453 968 4101 
Q 1578 4750 2638 4750 
Q 3056 4750 3426 4639 
Q 3797 4528 4122 4306 
z
" transform="scale(0.015625)"/>
       <path id="DejaVuSans-6f" d="M 1959 3097 
Q 1497 3097 1228 2736 
Q 959 2375 959 1747 
Q 959 1119 1226 758 
Q 1494 397 1959 397 
Q 2419 397 2687 759 
Q 2956 1122 2956 1747 
Q 2956 2369 2687 2733 
Q 2419 3097 1959 3097 
z
M 1959 3584 
Q 2709 3584 3137 3096 
Q 3566 2609 3566 1747 
Q 3566 888 3137 398 
Q 2709 -91 1959 -91 
Q 1206 -91 779 398 
Q 353 888 353 1747 
Q 353 2609 779 3096 
Q 1206 3584 1959 3584 
z
" transform="scale(0.015625)"/>
       <path id="DejaVuSans-73" d="M 2834 3397 
L 2834 2853 
Q 2591 2978 2328 3040 
Q 2066 3103 1784 3103 
Q 1356 3103 1142 2972 
Q 928 2841 928 2578 
Q 928 2378 1081 2264 
Q 1234 2150 1697 2047 
L 1894 2003 
Q 2506 1872 2764 1633 
Q 3022 1394 3022 966 
Q 3022 478 2636 193 
Q 2250 -91 1575 -91 
Q 1294 -91 989 -36 
Q 684 19 347 128 
L 347 722 
Q 666 556 975 473 
Q 1284 391 1588 391 
Q 1994 391 2212 530 
Q 2431 669 2431 922 
Q 2431 1156 2273 1281 
Q 2116 1406 1581 1522 
L 1381 1569 
Q 847 1681 609 1914 
Q 372 2147 372 2553 
Q 372 3047 722 3315 
Q 1072 3584 1716 3584 
Q 2034 3584 2315 3537 
Q 2597 3491 2834 3397 
z
" transform="scale(0.015625)"/>
       <path id="DejaVuSans-20" transform="scale(0.015625)"/>
       <path id="DejaVuSans-76" d="M 191 3500 
L 800 3500 
L 1894 563 
L 2988 3500 
L 3597 3500 
L 2284 0 
L 1503 0 
L 191 3500 
z
" transform="scale(0.015625)"/>
       <path id="DejaVuSans-61" d="M 2194 1759 
Q 1497 1759 1228 1600 
Q 959 1441 959 1056 
Q 959 750 1161 570 
Q 1363 391 1709 391 
Q 2188 391 2477 730 
Q 2766 1069 2766 1631 
L 2766 1759 
L 2194 1759 
z
M 3341 1997 
L 3341 0 
L 2766 0 
L 2766 531 
Q 2569 213 2275 61 
Q 1981 -91 1556 -91 
Q 1019 -91 701 211 
Q 384 513 384 1019 
Q 384 1609 779 1909 
Q 1175 2209 1959 2209 
L 2766 2209 
L 2766 2266 
Q 2766 2663 2505 2880 
Q 2244 3097 1772 3097 
Q 1472 3097 1187 3025 
Q 903 2953 641 2809 
L 641 3341 
Q 956 3463 1253 3523 
Q 1550 3584 1831 3584 
Q 2591 3584 2966 3190 
Q 3341 2797 3341 1997 
z
" transform="scale(0.015625)"/>
       <path id="DejaVuSans-6c" d="M 603 4863 
L 1178 4863 
L 1178 0 
L 603 0 
L 603 4863 
z
" transform="scale(0.015625)"/>
       <path id="DejaVuSans-75" d="M 544 1381 
L 544 3500 
L 1119 3500 
L 1119 1403 
Q 1119 906 1312 657 
Q 1506 409 1894 409 
Q 2359 409 2629 706 
Q 2900 1003 2900 1516 
L 2900 3500 
L 3475 3500 
L 3475 0 
L 2900 0 
L 2900 538 
Q 2691 219 2414 64 
Q 2138 -91 1772 -91 
Q 1169 -91 856 284 
Q 544 659 544 1381 
z
M 1991 3584 
L 1991 3584 
z
" transform="scale(0.015625)"/>
      </defs>
      <use xlink:href="#DejaVuSans-43"/>
      <use xlink:href="#DejaVuSans-6f" x="69.824219"/>
      <use xlink:href="#DejaVuSans-73" x="131.005859"/>
      <use xlink:href="#DejaVuSans-74" x="183.105469"/>
      <use xlink:href="#DejaVuSans-20" x="222.314453"/>
      <use xlink:href="#DejaVuSans-76" x="254.101562"/>
      <use xlink:href="#DejaVuSans-61" x="313.28125"/>
      <use xlink:href="#DejaVuSans-6c" x="374.560547"/>
      <use xlink:href="#DejaVuSans-75" x="402.34375"/>
      <use xlink:href="#DejaVuSans-65" x="465.722656"/>
     </g>
    </g>
   </g>
   <g id="line2d_13">
    <path d="M 69.218182 82.278196 
L 72.292562 86.666531 
L 75.366942 90.283942 
L 78.441322 94.593207 
L 81.515702 99.673396 
L 84.590083 103.330342 
L 87.664463 108.627971 
L 90.738843 114.024436 
L 93.813223 121.279025 
L 96.887603 127.209207 
L 99.961983 131.518473 
L 103.036364 137.685862 
L 106.110744 143.892785 
L 109.185124 151.345047 
L 112.259504 157.749644 
L 115.333884 165.45888 
L 118.408264 173.306487 
L 121.482645 181.845949 
L 124.557025 188.685425 
L 127.631405 194.022589 
L 130.705785 199.419055 
L 133.780165 206.416669 
L 136.854545 210.765469 
L 139.928926 216.438676 
L 143.003306 219.581673 
L 146.077686 224.266516 
L 149.152066 225.669993 
L 152.226446 228.239738 
L 155.300826 230.552509 
L 158.375207 232.687375 
L 161.449587 233.30016 
L 164.523967 235.098982 
L 167.598347 236.166415 
L 170.672727 237.233847 
L 173.747107 238.281513 
L 176.821488 238.73616 
L 179.895868 238.775695 
L 182.970248 239.408247 
L 186.044628 240.238473 
L 189.119008 240.001265 
L 192.193388 240.436145 
L 195.267769 240.357076 
L 198.342149 240.515215 
L 201.416529 240.515215 
L 204.490909 241.029164 
L 207.565289 240.752422 
L 210.639669 241.108233 
L 213.71405 241.365207 
L 216.78843 241.384975 
L 219.86281 241.523345 
L 222.93719 241.582647 
L 226.01157 241.602415 
L 229.08595 241.701251 
L 232.160331 241.622182 
L 235.234711 241.721018 
L 238.309091 241.701251 
L 241.383471 241.641949 
L 244.457851 241.859389 
L 247.532231 241.78032 
L 250.606612 241.681484 
L 253.680992 241.918691 
L 256.755372 241.839622 
L 259.829752 241.898924 
L 262.904132 241.898924 
L 265.978512 241.859389 
L 269.052893 241.898924 
L 272.127273 241.879156 
L 275.201653 241.938458 
L 278.276033 241.839622 
L 281.350413 241.977993 
L 284.424793 241.800087 
L 287.499174 241.977993 
L 290.573554 241.99776 
L 293.647934 241.958225 
L 296.722314 242.017527 
L 299.796694 242.057062 
L 302.871074 242.017527 
L 305.945455 241.977993 
L 309.019835 241.977993 
L 312.094215 241.977993 
L 315.168595 241.977993 
L 318.242975 241.977993 
L 321.317355 242.017527 
L 324.391736 242.057062 
L 327.466116 241.958225 
L 330.540496 242.017527 
L 333.614876 241.938458 
L 336.689256 242.057062 
L 339.763636 241.977993 
L 342.838017 242.096596 
L 345.912397 242.057062 
L 348.986777 242.037295 
L 352.061157 241.977993 
L 355.135537 242.017527 
L 358.209917 241.918691 
L 361.284298 242.057062 
L 364.358678 242.057062 
L 367.433058 242.076829 
L 370.507438 242.076829 
L 373.581818 242.076829 
" clip-path="url(#pa419091897)" style="fill: none; stroke: #1f77b4; stroke-width: 1.5; stroke-linecap: square"/>
   </g>
   <g id="line2d_14">
    <path d="M 69.218182 118.887185 
L 72.292562 156.445004 
L 75.366942 180.205265 
L 78.441322 195.4656 
L 81.515702 204.459709 
L 84.590083 218.197964 
L 87.664463 231.540873 
L 90.738843 236.700131 
L 93.813223 232.64784 
L 96.887603 229.287404 
L 99.961983 229.959491 
L 103.036364 233.754807 
L 106.110744 235.692 
L 109.185124 237.352451 
L 112.259504 237.767564 
L 115.333884 237.055942 
L 118.408264 237.688495 
L 121.482645 238.241978 
L 124.557025 238.340815 
L 127.631405 239.091971 
L 130.705785 239.091971 
L 133.780165 238.993135 
L 136.854545 239.60592 
L 139.928926 239.764058 
L 143.003306 240.060567 
L 146.077686 239.922196 
L 149.152066 240.139636 
L 152.226446 240.396611 
L 155.300826 240.851258 
L 158.375207 241.128 
L 161.449587 241.167535 
L 164.523967 241.207069 
L 167.598347 241.286138 
L 170.672727 241.543113 
L 173.747107 241.760553 
L 176.821488 241.800087 
L 179.895868 241.938458 
L 182.970248 242.057062 
L 186.044628 241.99776 
L 189.119008 241.977993 
L 192.193388 241.977993 
L 195.267769 242.116364 
L 198.342149 241.99776 
L 201.416529 242.116364 
L 204.490909 241.879156 
L 207.565289 241.977993 
L 210.639669 241.977993 
L 213.71405 241.99776 
L 216.78843 242.037295 
L 219.86281 242.017527 
L 222.93719 242.037295 
L 226.01157 242.037295 
L 229.08595 241.958225 
L 232.160331 241.958225 
L 235.234711 241.977993 
L 238.309091 242.096596 
L 241.383471 241.938458 
L 244.457851 242.037295 
L 247.532231 242.057062 
L 250.606612 241.99776 
L 253.680992 241.839622 
L 256.755372 241.99776 
L 259.829752 241.977993 
L 262.904132 242.037295 
L 265.978512 242.017527 
L 269.052893 242.037295 
L 272.127273 241.898924 
L 275.201653 241.859389 
L 278.276033 241.602415 
L 281.350413 242.057062 
L 284.424793 242.037295 
L 287.499174 242.076829 
L 290.573554 242.017527 
L 293.647934 242.057062 
L 296.722314 241.99776 
L 299.796694 241.958225 
L 302.871074 242.017527 
L 305.945455 242.057062 
L 309.019835 241.977993 
L 312.094215 242.116364 
L 315.168595 241.859389 
L 318.242975 241.99776 
L 321.317355 241.99776 
L 324.391736 241.879156 
L 327.466116 242.017527 
L 330.540496 241.958225 
L 333.614876 241.977993 
L 336.689256 241.99776 
L 339.763636 242.096596 
L 342.838017 242.057062 
L 345.912397 242.037295 
L 348.986777 242.037295 
L 352.061157 242.116364 
L 355.135537 242.096596 
L 358.209917 242.057062 
L 361.284298 242.057062 
L 364.358678 242.076829 
L 367.433058 242.017527 
L 370.507438 242.057062 
L 373.581818 241.99776 
" clip-path="url(#pa419091897)" style="fill: none; stroke: #ff7f0e; stroke-width: 1.5; stroke-linecap: square"/>
   </g>
   <g id="line2d_15">
    <path d="M 69.218182 95.700175 
L 72.292562 113.965135 
L 75.366942 133.969615 
L 78.441322 160.6752 
L 81.515702 189.179607 
L 84.590083 214.975898 
L 87.664463 227.745556 
L 90.738843 235.652465 
L 93.813223 238.755927 
L 96.887603 240.080335 
L 99.961983 240.732655 
L 103.036364 240.752422 
L 106.110744 241.068698 
L 109.185124 241.34544 
L 112.259504 241.56288 
L 115.333884 241.483811 
L 118.408264 241.56288 
L 121.482645 241.661716 
L 124.557025 241.938458 
L 127.631405 241.800087 
L 130.705785 241.898924 
L 133.780165 241.99776 
L 136.854545 241.879156 
L 139.928926 241.839622 
L 143.003306 241.938458 
L 146.077686 241.99776 
L 149.152066 241.918691 
L 152.226446 241.958225 
L 155.300826 241.918691 
L 158.375207 242.037295 
L 161.449587 242.037295 
L 164.523967 242.037295 
L 167.598347 242.017527 
L 170.672727 242.057062 
L 173.747107 242.037295 
L 176.821488 242.017527 
L 179.895868 242.096596 
L 182.970248 242.017527 
L 186.044628 242.076829 
L 189.119008 242.076829 
L 192.193388 242.017527 
L 195.267769 242.017527 
L 198.342149 241.99776 
L 201.416529 241.958225 
L 204.490909 242.037295 
L 207.565289 242.076829 
L 210.639669 242.057062 
L 213.71405 242.096596 
L 216.78843 242.076829 
L 219.86281 242.096596 
L 222.93719 241.99776 
L 226.01157 242.057062 
L 229.08595 242.076829 
L 232.160331 242.076829 
L 235.234711 242.057062 
L 238.309091 242.096596 
L 241.383471 242.076829 
L 244.457851 242.076829 
L 247.532231 242.116364 
L 250.606612 242.057062 
L 253.680992 242.096596 
L 256.755372 242.096596 
L 259.829752 242.076829 
L 262.904132 242.057062 
L 265.978512 242.057062 
L 269.052893 242.017527 
L 272.127273 242.096596 
L 275.201653 242.057062 
L 278.276033 242.057062 
L 281.350413 242.096596 
L 284.424793 242.096596 
L 287.499174 242.076829 
L 290.573554 242.057062 
L 293.647934 242.057062 
L 296.722314 242.096596 
L 299.796694 242.076829 
L 302.871074 242.096596 
L 305.945455 242.096596 
L 309.019835 242.076829 
L 312.094215 242.076829 
L 315.168595 242.076829 
L 318.242975 242.037295 
L 321.317355 242.057062 
L 324.391736 242.076829 
L 327.466116 242.096596 
L 330.540496 242.076829 
L 333.614876 242.096596 
L 336.689256 242.076829 
L 339.763636 242.057062 
L 342.838017 242.076829 
L 345.912397 242.096596 
L 348.986777 242.057062 
L 352.061157 242.057062 
L 355.135537 242.057062 
L 358.209917 242.076829 
L 361.284298 242.116364 
L 364.358678 242.116364 
L 367.433058 242.096596 
L 370.507438 242.096596 
L 373.581818 242.096596 
" clip-path="url(#pa419091897)" style="fill: none; stroke: #2ca02c; stroke-width: 1.5; stroke-linecap: square"/>
   </g>
   <g id="line2d_16">
    <path d="M 69.218182 81.882851 
L 72.292562 86.053745 
L 75.366942 93.071127 
L 78.441322 98.566429 
L 81.515702 103.587316 
L 84.590083 107.283796 
L 87.664463 113.431418 
L 90.738843 120.686007 
L 93.813223 125.252247 
L 96.887603 129.660349 
L 99.961983 134.305658 
L 103.036364 139.267244 
L 106.110744 145.434633 
L 109.185124 144.979985 
L 112.259504 149.269484 
L 115.333884 158.382196 
L 118.408264 174.472756 
L 121.482645 175.599491 
L 124.557025 175.955302 
L 127.631405 160.121716 
L 130.705785 180.659913 
L 133.780165 198.766735 
L 136.854545 209.974778 
L 139.928926 217.308436 
L 143.003306 221.518865 
L 146.077686 223.218851 
L 149.152066 226.618822 
L 152.226446 227.607185 
L 155.300826 228.812989 
L 158.375207 229.326938 
L 161.449587 230.849018 
L 164.523967 230.592044 
L 167.598347 231.758313 
L 170.672727 232.252495 
L 173.747107 231.699011 
L 176.821488 232.786211 
L 179.895868 233.181556 
L 182.970248 233.458298 
L 186.044628 233.557135 
L 189.119008 233.794342 
L 192.193388 235.079215 
L 195.267769 234.703636 
L 198.342149 234.683869 
L 201.416529 235.019913 
L 204.490909 236.225716 
L 207.565289 235.889673 
L 210.639669 235.514095 
L 213.71405 236.443156 
L 216.78843 235.771069 
L 219.86281 236.166415 
L 222.93719 236.482691 
L 226.01157 236.621062 
L 229.08595 236.99664 
L 232.160331 236.937338 
L 235.234711 236.976873 
L 238.309091 237.194313 
L 241.383471 237.115244 
L 244.457851 237.075709 
L 247.532231 237.688495 
L 250.606612 237.8664 
L 253.680992 237.135011 
L 256.755372 237.352451 
L 259.829752 238.143142 
L 262.904132 237.807098 
L 265.978512 237.925702 
L 269.052893 238.281513 
L 272.127273 238.202444 
L 275.201653 238.08384 
L 278.276033 238.854764 
L 281.350413 237.8664 
L 284.424793 238.30128 
L 287.499174 238.676858 
L 290.573554 238.400116 
L 293.647934 239.269876 
L 296.722314 238.874531 
L 299.796694 238.775695 
L 302.871074 238.854764 
L 305.945455 238.439651 
L 309.019835 238.439651 
L 312.094215 239.072204 
L 315.168595 238.894298 
L 318.242975 238.795462 
L 321.317355 239.052436 
L 324.391736 239.032669 
L 327.466116 239.289644 
L 330.540496 239.467549 
L 333.614876 238.696625 
L 336.689256 239.368713 
L 339.763636 239.368713 
L 342.838017 238.9536 
L 345.912397 239.408247 
L 348.986777 239.091971 
L 352.061157 239.131505 
L 355.135537 238.834996 
L 358.209917 239.645455 
L 361.284298 239.012902 
L 364.358678 239.111738 
L 367.433058 239.111738 
L 370.507438 239.250109 
L 373.581818 239.348945 
" clip-path="url(#pa419091897)" style="fill: none; stroke: #d62728; stroke-width: 1.5; stroke-linecap: square"/>
   </g>
   <g id="line2d_17">
    <path d="M 69.218182 82.554938 
L 72.292562 90.501382 
L 75.366942 97.696669 
L 78.441322 102.144305 
L 81.515702 104.832655 
L 84.590083 111.355855 
L 87.664463 106.888451 
L 90.738843 104.318705 
L 93.813223 101.53152 
L 96.887603 106.769847 
L 99.961983 110.268655 
L 103.036364 116.238371 
L 106.110744 125.390618 
L 109.185124 131.083593 
L 112.259504 141.481178 
L 115.333884 152.254342 
L 118.408264 162.276349 
L 121.482645 169.254196 
L 124.557025 178.347142 
L 127.631405 178.426211 
L 130.705785 182.320364 
L 133.780165 184.198255 
L 136.854545 186.965673 
L 139.928926 191.650516 
L 143.003306 198.766735 
L 146.077686 198.450458 
L 149.152066 199.933004 
L 152.226446 202.107404 
L 155.300826 205.803884 
L 158.375207 205.90272 
L 161.449587 206.436436 
L 164.523967 201.376015 
L 167.598347 198.213251 
L 170.672727 194.220262 
L 173.747107 191.077265 
L 176.821488 189.258676 
L 179.895868 189.990065 
L 182.970248 194.220262 
L 186.044628 195.821411 
L 189.119008 201.474851 
L 192.193388 205.191098 
L 195.267769 209.895709 
L 198.342149 213.157309 
L 201.416529 216.656116 
L 204.490909 218.07936 
L 207.565289 218.870051 
L 210.639669 220.925847 
L 213.71405 221.261891 
L 216.78843 222.131651 
L 219.86281 222.329324 
L 222.93719 223.416524 
L 226.01157 223.574662 
L 229.08595 222.764204 
L 232.160331 223.633964 
L 235.234711 224.345585 
L 238.309091 225.096742 
L 241.383471 226.203709 
L 244.457851 227.073469 
L 247.532231 227.152538 
L 250.606612 227.251375 
L 253.680992 228.29904 
L 256.755372 229.346705 
L 259.829752 229.643215 
L 262.904132 230.453673 
L 265.978512 231.857149 
L 269.052893 231.086225 
L 272.127273 232.944349 
L 275.201653 233.30016 
L 278.276033 233.280393 
L 281.350413 233.873411 
L 284.424793 234.209455 
L 287.499174 233.418764 
L 290.573554 233.853644 
L 293.647934 234.585033 
L 296.722314 234.6048 
L 299.796694 233.972247 
L 302.871074 234.644335 
L 305.945455 234.960611 
L 309.019835 234.802473 
L 312.094215 235.435025 
L 315.168595 235.355956 
L 318.242975 235.03968 
L 321.317355 234.842007 
L 324.391736 235.869905 
L 327.466116 235.217585 
L 330.540496 235.731535 
L 333.614876 235.573396 
L 336.689256 236.245484 
L 339.763636 235.869905 
L 342.838017 236.265251 
L 345.912397 236.205949 
L 348.986777 235.553629 
L 352.061157 236.581527 
L 355.135537 236.166415 
L 358.209917 237.21408 
L 361.284298 236.957105 
L 364.358678 237.332684 
L 367.433058 236.957105 
L 370.507438 236.818735 
L 373.581818 237.391985 
" clip-path="url(#pa419091897)" style="fill: none; stroke: #9467bd; stroke-width: 1.5; stroke-linecap: square"/>
   </g>
   <g id="patch_3">
    <path d="M 54 252 
L 54 34.56 
" style="fill: none; stroke: #000000; stroke-width: 0.8; stroke-linejoin: miter; stroke-linecap: square"/>
   </g>
   <g id="patch_4">
    <path d="M 388.8 252 
L 388.8 34.56 
" style="fill: none; stroke: #000000; stroke-width: 0.8; stroke-linejoin: miter; stroke-linecap: square"/>
   </g>
   <g id="patch_5">
    <path d="M 54 252 
L 388.8 252 
" style="fill: none; stroke: #000000; stroke-width: 0.8; stroke-linejoin: miter; stroke-linecap: square"/>
   </g>
   <g id="patch_6">
    <path d="M 54 34.56 
L 388.8 34.56 
" style="fill: none; stroke: #000000; stroke-width: 0.8; stroke-linejoin: miter; stroke-linecap: square"/>
   </g>
   <g id="legend_1">
    <g id="patch_7">
     <path d="M 290.1325 99.6725 
L 383.2 99.6725 
Q 384.8 99.6725 384.8 98.0725 
L 384.8 40.16 
Q 384.8 38.56 383.2 38.56 
L 290.1325 38.56 
Q 288.5325 38.56 288.5325 40.16 
L 288.5325 98.0725 
Q 288.5325 99.6725 290.1325 99.6725 
z
" style="fill: #ffffff; opacity: 0.8; stroke: #cccccc; stroke-linejoin: miter"/>
    </g>
    <g id="line2d_18">
     <path d="M 291.7325 45.03875 
L 299.7325 45.03875 
L 307.7325 45.03875 
" style="fill: none; stroke: #1f77b4; stroke-width: 1.5; stroke-linecap: square"/>
    </g>
    <g id="text_15">
     <!-- SGD -->
     <g transform="translate(314.1325 47.83875)scale(0.08 -0.08)">
      <defs>
       <path id="DejaVuSans-47" d="M 3809 666 
L 3809 1919 
L 2778 1919 
L 2778 2438 
L 4434 2438 
L 4434 434 
Q 4069 175 3628 42 
Q 3188 -91 2688 -91 
Q 1594 -91 976 548 
Q 359 1188 359 2328 
Q 359 3472 976 4111 
Q 1594 4750 2688 4750 
Q 3144 4750 3555 4637 
Q 3966 4525 4313 4306 
L 4313 3634 
Q 3963 3931 3569 4081 
Q 3175 4231 2741 4231 
Q 1884 4231 1454 3753 
Q 1025 3275 1025 2328 
Q 1025 1384 1454 906 
Q 1884 428 2741 428 
Q 3075 428 3337 486 
Q 3600 544 3809 666 
z
" transform="scale(0.015625)"/>
       <path id="DejaVuSans-44" d="M 1259 4147 
L 1259 519 
L 2022 519 
Q 2988 519 3436 956 
Q 3884 1394 3884 2338 
Q 3884 3275 3436 3711 
Q 2988 4147 2022 4147 
L 1259 4147 
z
M 628 4666 
L 1925 4666 
Q 3281 4666 3915 4102 
Q 4550 3538 4550 2338 
Q 4550 1131 3912 565 
Q 3275 0 1925 0 
L 628 0 
L 628 4666 
z
" transform="scale(0.015625)"/>
      </defs>
      <use xlink:href="#DejaVuSans-53"/>
      <use xlink:href="#DejaVuSans-47" x="63.476562"/>
      <use xlink:href="#DejaVuSans-44" x="140.966797"/>
     </g>
    </g>
    <g id="line2d_19">
     <path d="M 291.7325 56.78125 
L 299.7325 56.78125 
L 307.7325 56.78125 
" style="fill: none; stroke: #ff7f0e; stroke-width: 1.5; stroke-linecap: square"/>
    </g>
    <g id="text_16">
     <!-- Adam -->
     <g transform="translate(314.1325 59.58125)scale(0.08 -0.08)">
      <defs>
       <path id="DejaVuSans-41" d="M 2188 4044 
L 1331 1722 
L 3047 1722 
L 2188 4044 
z
M 1831 4666 
L 2547 4666 
L 4325 0 
L 3669 0 
L 3244 1197 
L 1141 1197 
L 716 0 
L 50 0 
L 1831 4666 
z
" transform="scale(0.015625)"/>
       <path id="DejaVuSans-64" d="M 2906 2969 
L 2906 4863 
L 3481 4863 
L 3481 0 
L 2906 0 
L 2906 525 
Q 2725 213 2448 61 
Q 2172 -91 1784 -91 
Q 1150 -91 751 415 
Q 353 922 353 1747 
Q 353 2572 751 3078 
Q 1150 3584 1784 3584 
Q 2172 3584 2448 3432 
Q 2725 3281 2906 2969 
z
M 947 1747 
Q 947 1113 1208 752 
Q 1469 391 1925 391 
Q 2381 391 2643 752 
Q 2906 1113 2906 1747 
Q 2906 2381 2643 2742 
Q 2381 3103 1925 3103 
Q 1469 3103 1208 2742 
Q 947 2381 947 1747 
z
" transform="scale(0.015625)"/>
       <path id="DejaVuSans-6d" d="M 3328 2828 
Q 3544 3216 3844 3400 
Q 4144 3584 4550 3584 
Q 5097 3584 5394 3201 
Q 5691 2819 5691 2113 
L 5691 0 
L 5113 0 
L 5113 2094 
Q 5113 2597 4934 2840 
Q 4756 3084 4391 3084 
Q 3944 3084 3684 2787 
Q 3425 2491 3425 1978 
L 3425 0 
L 2847 0 
L 2847 2094 
Q 2847 2600 2669 2842 
Q 2491 3084 2119 3084 
Q 1678 3084 1418 2786 
Q 1159 2488 1159 1978 
L 1159 0 
L 581 0 
L 581 3500 
L 1159 3500 
L 1159 2956 
Q 1356 3278 1631 3431 
Q 1906 3584 2284 3584 
Q 2666 3584 2933 3390 
Q 3200 3197 3328 2828 
z
" transform="scale(0.015625)"/>
      </defs>
      <use xlink:href="#DejaVuSans-41"/>
      <use xlink:href="#DejaVuSans-64" x="66.658203"/>
      <use xlink:href="#DejaVuSans-61" x="130.134766"/>
      <use xlink:href="#DejaVuSans-6d" x="191.414062"/>
     </g>
    </g>
    <g id="line2d_20">
     <path d="M 291.7325 68.52375 
L 299.7325 68.52375 
L 307.7325 68.52375 
" style="fill: none; stroke: #2ca02c; stroke-width: 1.5; stroke-linecap: square"/>
    </g>
    <g id="text_17">
     <!-- QNG-QFSM -->
     <g transform="translate(314.1325 71.32375)scale(0.08 -0.08)">
      <defs>
       <path id="DejaVuSans-51" d="M 2522 4238 
Q 1834 4238 1429 3725 
Q 1025 3213 1025 2328 
Q 1025 1447 1429 934 
Q 1834 422 2522 422 
Q 3209 422 3611 934 
Q 4013 1447 4013 2328 
Q 4013 3213 3611 3725 
Q 3209 4238 2522 4238 
z
M 3406 84 
L 4238 -825 
L 3475 -825 
L 2784 -78 
Q 2681 -84 2626 -87 
Q 2572 -91 2522 -91 
Q 1538 -91 948 567 
Q 359 1225 359 2328 
Q 359 3434 948 4092 
Q 1538 4750 2522 4750 
Q 3503 4750 4090 4092 
Q 4678 3434 4678 2328 
Q 4678 1516 4351 937 
Q 4025 359 3406 84 
z
" transform="scale(0.015625)"/>
       <path id="DejaVuSans-4e" d="M 628 4666 
L 1478 4666 
L 3547 763 
L 3547 4666 
L 4159 4666 
L 4159 0 
L 3309 0 
L 1241 3903 
L 1241 0 
L 628 0 
L 628 4666 
z
" transform="scale(0.015625)"/>
       <path id="DejaVuSans-2d" d="M 313 2009 
L 1997 2009 
L 1997 1497 
L 313 1497 
L 313 2009 
z
" transform="scale(0.015625)"/>
       <path id="DejaVuSans-46" d="M 628 4666 
L 3309 4666 
L 3309 4134 
L 1259 4134 
L 1259 2759 
L 3109 2759 
L 3109 2228 
L 1259 2228 
L 1259 0 
L 628 0 
L 628 4666 
z
" transform="scale(0.015625)"/>
       <path id="DejaVuSans-4d" d="M 628 4666 
L 1569 4666 
L 2759 1491 
L 3956 4666 
L 4897 4666 
L 4897 0 
L 4281 0 
L 4281 4097 
L 3078 897 
L 2444 897 
L 1241 4097 
L 1241 0 
L 628 0 
L 628 4666 
z
" transform="scale(0.015625)"/>
      </defs>
      <use xlink:href="#DejaVuSans-51"/>
      <use xlink:href="#DejaVuSans-4e" x="78.710938"/>
      <use xlink:href="#DejaVuSans-47" x="153.515625"/>
      <use xlink:href="#DejaVuSans-2d" x="231.005859"/>
      <use xlink:href="#DejaVuSans-51" x="270.714844"/>
      <use xlink:href="#DejaVuSans-46" x="349.425781"/>
      <use xlink:href="#DejaVuSans-53" x="405.195312"/>
      <use xlink:href="#DejaVuSans-4d" x="468.671875"/>
     </g>
    </g>
    <g id="line2d_21">
     <path d="M 291.7325 80.26625 
L 299.7325 80.26625 
L 307.7325 80.26625 
" style="fill: none; stroke: #d62728; stroke-width: 1.5; stroke-linecap: square"/>
    </g>
    <g id="text_18">
     <!-- QNG-QFIM -->
     <g transform="translate(314.1325 83.06625)scale(0.08 -0.08)">
      <defs>
       <path id="DejaVuSans-49" d="M 628 4666 
L 1259 4666 
L 1259 0 
L 628 0 
L 628 4666 
z
" transform="scale(0.015625)"/>
      </defs>
      <use xlink:href="#DejaVuSans-51"/>
      <use xlink:href="#DejaVuSans-4e" x="78.710938"/>
      <use xlink:href="#DejaVuSans-47" x="153.515625"/>
      <use xlink:href="#DejaVuSans-2d" x="231.005859"/>
      <use xlink:href="#DejaVuSans-51" x="270.714844"/>
      <use xlink:href="#DejaVuSans-46" x="349.425781"/>
      <use xlink:href="#DejaVuSans-49" x="406.945312"/>
      <use xlink:href="#DejaVuSans-4d" x="436.4375"/>
     </g>
    </g>
    <g id="line2d_22">
     <path d="M 291.7325 92.00875 
L 299.7325 92.00875 
L 307.7325 92.00875 
" style="fill: none; stroke: #9467bd; stroke-width: 1.5; stroke-linecap: square"/>
    </g>
    <g id="text_19">
     <!-- Adam QNG-QFIM -->
     <g transform="translate(314.1325 94.80875)scale(0.08 -0.08)">
      <use xlink:href="#DejaVuSans-41"/>
      <use xlink:href="#DejaVuSans-64" x="66.658203"/>
      <use xlink:href="#DejaVuSans-61" x="130.134766"/>
      <use xlink:href="#DejaVuSans-6d" x="191.414062"/>
      <use xlink:href="#DejaVuSans-20" x="288.826172"/>
      <use xlink:href="#DejaVuSans-51" x="320.613281"/>
      <use xlink:href="#DejaVuSans-4e" x="399.324219"/>
      <use xlink:href="#DejaVuSans-47" x="474.128906"/>
      <use xlink:href="#DejaVuSans-2d" x="551.619141"/>
      <use xlink:href="#DejaVuSans-51" x="591.328125"/>
      <use xlink:href="#DejaVuSans-46" x="670.039062"/>
      <use xlink:href="#DejaVuSans-49" x="727.558594"/>
      <use xlink:href="#DejaVuSans-4d" x="757.050781"/>
     </g>
    </g>
   </g>
  </g>
 </g>
 <defs>
  <clipPath id="pa419091897">
   <rect x="54" y="34.56" width="334.8" height="217.44"/>
  </clipPath>
 </defs>
</svg>
