<?xml version="1.0" encoding="utf-8" standalone="no"?>
<!DOCTYPE svg PUBLIC "-//W3C//DTD SVG 1.1//EN"
  "http://www.w3.org/Graphics/SVG/1.1/DTD/svg11.dtd">
<svg xmlns:xlink="http://www.w3.org/1999/xlink" width="432pt" height="288pt" viewBox="0 0 432 288" xmlns="http://www.w3.org/2000/svg" version="1.1">
 <metadata>
  <rdf:RDF xmlns:dc="http://purl.org/dc/elements/1.1/" xmlns:cc="http://creativecommons.org/ns#" xmlns:rdf="http://www.w3.org/1999/02/22-rdf-syntax-ns#">
   <cc:Work>
    <dc:type rdf:resource="http://purl.org/dc/dcmitype/StillImage"/>
    <dc:date>2022-04-17T23:18:07.289852</dc:date>
    <dc:format>image/svg+xml</dc:format>
    <dc:creator>
     <cc:Agent>
      <dc:title>Matplotlib v3.5.1, https://matplotlib.org/</dc:title>
     </cc:Agent>
    </dc:creator>
   </cc:Work>
  </rdf:RDF>
 </metadata>
 <defs>
  <style type="text/css">*{stroke-linejoin: round; stroke-linecap: butt}</style>
 </defs>
 <g id="figure_1">
  <g id="patch_1">
   <path d="M 0 288 
L 432 288 
L 432 0 
L 0 0 
L 0 288 
z
" style="fill: none"/>
  </g>
  <g id="axes_1">
   <g id="patch_2">
    <path d="M 54 252 
L 388.8 252 
L 388.8 34.56 
L 54 34.56 
z
" style="fill: #ffffff"/>
   </g>
   <g id="matplotlib.axis_1">
    <g id="xtick_1">
     <g id="line2d_1">
      <defs>
       <path id="m43cc6d3d5d" d="M 0 0 
L 0 3.5 
" style="stroke: #000000; stroke-width: 0.8"/>
      </defs>
      <g>
       <use xlink:href="#m43cc6d3d5d" x="69.218182" y="252" style="stroke: #000000; stroke-width: 0.8"/>
      </g>
     </g>
     <g id="text_1">
      <!-- 0 -->
      <g transform="translate(66.036932 266.598437)scale(0.1 -0.1)">
       <defs>
        <path id="DejaVuSans-30" d="M 2034 4250 
Q 1547 4250 1301 3770 
Q 1056 3291 1056 2328 
Q 1056 1369 1301 889 
Q 1547 409 2034 409 
Q 2525 409 2770 889 
Q 3016 1369 3016 2328 
Q 3016 3291 2770 3770 
Q 2525 4250 2034 4250 
z
M 2034 4750 
Q 2819 4750 3233 4129 
Q 3647 3509 3647 2328 
Q 3647 1150 3233 529 
Q 2819 -91 2034 -91 
Q 1250 -91 836 529 
Q 422 1150 422 2328 
Q 422 3509 836 4129 
Q 1250 4750 2034 4750 
z
" transform="scale(0.015625)"/>
       </defs>
       <use xlink:href="#DejaVuSans-30"/>
      </g>
     </g>
    </g>
    <g id="xtick_2">
     <g id="line2d_2">
      <g>
       <use xlink:href="#m43cc6d3d5d" x="130.705785" y="252" style="stroke: #000000; stroke-width: 0.8"/>
      </g>
     </g>
     <g id="text_2">
      <!-- 20 -->
      <g transform="translate(124.343285 266.598437)scale(0.1 -0.1)">
       <defs>
        <path id="DejaVuSans-32" d="M 1228 531 
L 3431 531 
L 3431 0 
L 469 0 
L 469 531 
Q 828 903 1448 1529 
Q 2069 2156 2228 2338 
Q 2531 2678 2651 2914 
Q 2772 3150 2772 3378 
Q 2772 3750 2511 3984 
Q 2250 4219 1831 4219 
Q 1534 4219 1204 4116 
Q 875 4013 500 3803 
L 500 4441 
Q 881 4594 1212 4672 
Q 1544 4750 1819 4750 
Q 2544 4750 2975 4387 
Q 3406 4025 3406 3419 
Q 3406 3131 3298 2873 
Q 3191 2616 2906 2266 
Q 2828 2175 2409 1742 
Q 1991 1309 1228 531 
z
" transform="scale(0.015625)"/>
       </defs>
       <use xlink:href="#DejaVuSans-32"/>
       <use xlink:href="#DejaVuSans-30" x="63.623047"/>
      </g>
     </g>
    </g>
    <g id="xtick_3">
     <g id="line2d_3">
      <g>
       <use xlink:href="#m43cc6d3d5d" x="192.193388" y="252" style="stroke: #000000; stroke-width: 0.8"/>
      </g>
     </g>
     <g id="text_3">
      <!-- 40 -->
      <g transform="translate(185.830888 266.598437)scale(0.1 -0.1)">
       <defs>
        <path id="DejaVuSans-34" d="M 2419 4116 
L 825 1625 
L 2419 1625 
L 2419 4116 
z
M 2253 4666 
L 3047 4666 
L 3047 1625 
L 3713 1625 
L 3713 1100 
L 3047 1100 
L 3047 0 
L 2419 0 
L 2419 1100 
L 313 1100 
L 313 1709 
L 2253 4666 
z
" transform="scale(0.015625)"/>
       </defs>
       <use xlink:href="#DejaVuSans-34"/>
       <use xlink:href="#DejaVuSans-30" x="63.623047"/>
      </g>
     </g>
    </g>
    <g id="xtick_4">
     <g id="line2d_4">
      <g>
       <use xlink:href="#m43cc6d3d5d" x="253.680992" y="252" style="stroke: #000000; stroke-width: 0.8"/>
      </g>
     </g>
     <g id="text_4">
      <!-- 60 -->
      <g transform="translate(247.318492 266.598437)scale(0.1 -0.1)">
       <defs>
        <path id="DejaVuSans-36" d="M 2113 2584 
Q 1688 2584 1439 2293 
Q 1191 2003 1191 1497 
Q 1191 994 1439 701 
Q 1688 409 2113 409 
Q 2538 409 2786 701 
Q 3034 994 3034 1497 
Q 3034 2003 2786 2293 
Q 2538 2584 2113 2584 
z
M 3366 4563 
L 3366 3988 
Q 3128 4100 2886 4159 
Q 2644 4219 2406 4219 
Q 1781 4219 1451 3797 
Q 1122 3375 1075 2522 
Q 1259 2794 1537 2939 
Q 1816 3084 2150 3084 
Q 2853 3084 3261 2657 
Q 3669 2231 3669 1497 
Q 3669 778 3244 343 
Q 2819 -91 2113 -91 
Q 1303 -91 875 529 
Q 447 1150 447 2328 
Q 447 3434 972 4092 
Q 1497 4750 2381 4750 
Q 2619 4750 2861 4703 
Q 3103 4656 3366 4563 
z
" transform="scale(0.015625)"/>
       </defs>
       <use xlink:href="#DejaVuSans-36"/>
       <use xlink:href="#DejaVuSans-30" x="63.623047"/>
      </g>
     </g>
    </g>
    <g id="xtick_5">
     <g id="line2d_5">
      <g>
       <use xlink:href="#m43cc6d3d5d" x="315.168595" y="252" style="stroke: #000000; stroke-width: 0.8"/>
      </g>
     </g>
     <g id="text_5">
      <!-- 80 -->
      <g transform="translate(308.806095 266.598437)scale(0.1 -0.1)">
       <defs>
        <path id="DejaVuSans-38" d="M 2034 2216 
Q 1584 2216 1326 1975 
Q 1069 1734 1069 1313 
Q 1069 891 1326 650 
Q 1584 409 2034 409 
Q 2484 409 2743 651 
Q 3003 894 3003 1313 
Q 3003 1734 2745 1975 
Q 2488 2216 2034 2216 
z
M 1403 2484 
Q 997 2584 770 2862 
Q 544 3141 544 3541 
Q 544 4100 942 4425 
Q 1341 4750 2034 4750 
Q 2731 4750 3128 4425 
Q 3525 4100 3525 3541 
Q 3525 3141 3298 2862 
Q 3072 2584 2669 2484 
Q 3125 2378 3379 2068 
Q 3634 1759 3634 1313 
Q 3634 634 3220 271 
Q 2806 -91 2034 -91 
Q 1263 -91 848 271 
Q 434 634 434 1313 
Q 434 1759 690 2068 
Q 947 2378 1403 2484 
z
M 1172 3481 
Q 1172 3119 1398 2916 
Q 1625 2713 2034 2713 
Q 2441 2713 2670 2916 
Q 2900 3119 2900 3481 
Q 2900 3844 2670 4047 
Q 2441 4250 2034 4250 
Q 1625 4250 1398 4047 
Q 1172 3844 1172 3481 
z
" transform="scale(0.015625)"/>
       </defs>
       <use xlink:href="#DejaVuSans-38"/>
       <use xlink:href="#DejaVuSans-30" x="63.623047"/>
      </g>
     </g>
    </g>
    <g id="xtick_6">
     <g id="line2d_6">
      <g>
       <use xlink:href="#m43cc6d3d5d" x="376.656198" y="252" style="stroke: #000000; stroke-width: 0.8"/>
      </g>
     </g>
     <g id="text_6">
      <!-- 100 -->
      <g transform="translate(367.112448 266.598437)scale(0.1 -0.1)">
       <defs>
        <path id="DejaVuSans-31" d="M 794 531 
L 1825 531 
L 1825 4091 
L 703 3866 
L 703 4441 
L 1819 4666 
L 2450 4666 
L 2450 531 
L 3481 531 
L 3481 0 
L 794 0 
L 794 531 
z
" transform="scale(0.015625)"/>
       </defs>
       <use xlink:href="#DejaVuSans-31"/>
       <use xlink:href="#DejaVuSans-30" x="63.623047"/>
       <use xlink:href="#DejaVuSans-30" x="127.246094"/>
      </g>
     </g>
    </g>
    <g id="text_7">
     <!-- Step -->
     <g transform="translate(210.014844 280.276563)scale(0.1 -0.1)">
      <defs>
       <path id="DejaVuSans-53" d="M 3425 4513 
L 3425 3897 
Q 3066 4069 2747 4153 
Q 2428 4238 2131 4238 
Q 1616 4238 1336 4038 
Q 1056 3838 1056 3469 
Q 1056 3159 1242 3001 
Q 1428 2844 1947 2747 
L 2328 2669 
Q 3034 2534 3370 2195 
Q 3706 1856 3706 1288 
Q 3706 609 3251 259 
Q 2797 -91 1919 -91 
Q 1588 -91 1214 -16 
Q 841 59 441 206 
L 441 856 
Q 825 641 1194 531 
Q 1563 422 1919 422 
Q 2459 422 2753 634 
Q 3047 847 3047 1241 
Q 3047 1584 2836 1778 
Q 2625 1972 2144 2069 
L 1759 2144 
Q 1053 2284 737 2584 
Q 422 2884 422 3419 
Q 422 4038 858 4394 
Q 1294 4750 2059 4750 
Q 2388 4750 2728 4690 
Q 3069 4631 3425 4513 
z
" transform="scale(0.015625)"/>
       <path id="DejaVuSans-74" d="M 1172 4494 
L 1172 3500 
L 2356 3500 
L 2356 3053 
L 1172 3053 
L 1172 1153 
Q 1172 725 1289 603 
Q 1406 481 1766 481 
L 2356 481 
L 2356 0 
L 1766 0 
Q 1100 0 847 248 
Q 594 497 594 1153 
L 594 3053 
L 172 3053 
L 172 3500 
L 594 3500 
L 594 4494 
L 1172 4494 
z
" transform="scale(0.015625)"/>
       <path id="DejaVuSans-65" d="M 3597 1894 
L 3597 1613 
L 953 1613 
Q 991 1019 1311 708 
Q 1631 397 2203 397 
Q 2534 397 2845 478 
Q 3156 559 3463 722 
L 3463 178 
Q 3153 47 2828 -22 
Q 2503 -91 2169 -91 
Q 1331 -91 842 396 
Q 353 884 353 1716 
Q 353 2575 817 3079 
Q 1281 3584 2069 3584 
Q 2775 3584 3186 3129 
Q 3597 2675 3597 1894 
z
M 3022 2063 
Q 3016 2534 2758 2815 
Q 2500 3097 2075 3097 
Q 1594 3097 1305 2825 
Q 1016 2553 972 2059 
L 3022 2063 
z
" transform="scale(0.015625)"/>
       <path id="DejaVuSans-70" d="M 1159 525 
L 1159 -1331 
L 581 -1331 
L 581 3500 
L 1159 3500 
L 1159 2969 
Q 1341 3281 1617 3432 
Q 1894 3584 2278 3584 
Q 2916 3584 3314 3078 
Q 3713 2572 3713 1747 
Q 3713 922 3314 415 
Q 2916 -91 2278 -91 
Q 1894 -91 1617 61 
Q 1341 213 1159 525 
z
M 3116 1747 
Q 3116 2381 2855 2742 
Q 2594 3103 2138 3103 
Q 1681 3103 1420 2742 
Q 1159 2381 1159 1747 
Q 1159 1113 1420 752 
Q 1681 391 2138 391 
Q 2594 391 2855 752 
Q 3116 1113 3116 1747 
z
" transform="scale(0.015625)"/>
      </defs>
      <use xlink:href="#DejaVuSans-53"/>
      <use xlink:href="#DejaVuSans-74" x="63.476562"/>
      <use xlink:href="#DejaVuSans-65" x="102.685547"/>
      <use xlink:href="#DejaVuSans-70" x="164.208984"/>
     </g>
    </g>
   </g>
   <g id="matplotlib.axis_2">
    <g id="ytick_1">
     <g id="line2d_7">
      <defs>
       <path id="mdd50f51f99" d="M 0 0 
L -3.5 0 
" style="stroke: #000000; stroke-width: 0.8"/>
      </defs>
      <g>
       <use xlink:href="#mdd50f51f99" x="54" y="242.116364" style="stroke: #000000; stroke-width: 0.8"/>
      </g>
     </g>
     <g id="text_8">
      <!-- 0.0 -->
      <g transform="translate(31.096875 245.915582)scale(0.1 -0.1)">
       <defs>
        <path id="DejaVuSans-2e" d="M 684 794 
L 1344 794 
L 1344 0 
L 684 0 
L 684 794 
z
" transform="scale(0.015625)"/>
       </defs>
       <use xlink:href="#DejaVuSans-30"/>
       <use xlink:href="#DejaVuSans-2e" x="63.623047"/>
       <use xlink:href="#DejaVuSans-30" x="95.410156"/>
      </g>
     </g>
    </g>
    <g id="ytick_2">
     <g id="line2d_8">
      <g>
       <use xlink:href="#mdd50f51f99" x="54" y="202.581818" style="stroke: #000000; stroke-width: 0.8"/>
      </g>
     </g>
     <g id="text_9">
      <!-- 0.2 -->
      <g transform="translate(31.096875 206.381037)scale(0.1 -0.1)">
       <use xlink:href="#DejaVuSans-30"/>
       <use xlink:href="#DejaVuSans-2e" x="63.623047"/>
       <use xlink:href="#DejaVuSans-32" x="95.410156"/>
      </g>
     </g>
    </g>
    <g id="ytick_3">
     <g id="line2d_9">
      <g>
       <use xlink:href="#mdd50f51f99" x="54" y="163.047273" style="stroke: #000000; stroke-width: 0.8"/>
      </g>
     </g>
     <g id="text_10">
      <!-- 0.4 -->
      <g transform="translate(31.096875 166.846491)scale(0.1 -0.1)">
       <use xlink:href="#DejaVuSans-30"/>
       <use xlink:href="#DejaVuSans-2e" x="63.623047"/>
       <use xlink:href="#DejaVuSans-34" x="95.410156"/>
      </g>
     </g>
    </g>
    <g id="ytick_4">
     <g id="line2d_10">
      <g>
       <use xlink:href="#mdd50f51f99" x="54" y="123.512727" style="stroke: #000000; stroke-width: 0.8"/>
      </g>
     </g>
     <g id="text_11">
      <!-- 0.6 -->
      <g transform="translate(31.096875 127.311946)scale(0.1 -0.1)">
       <use xlink:href="#DejaVuSans-30"/>
       <use xlink:href="#DejaVuSans-2e" x="63.623047"/>
       <use xlink:href="#DejaVuSans-36" x="95.410156"/>
      </g>
     </g>
    </g>
    <g id="ytick_5">
     <g id="line2d_11">
      <g>
       <use xlink:href="#mdd50f51f99" x="54" y="83.978182" style="stroke: #000000; stroke-width: 0.8"/>
      </g>
     </g>
     <g id="text_12">
      <!-- 0.8 -->
      <g transform="translate(31.096875 87.777401)scale(0.1 -0.1)">
       <use xlink:href="#DejaVuSans-30"/>
       <use xlink:href="#DejaVuSans-2e" x="63.623047"/>
       <use xlink:href="#DejaVuSans-38" x="95.410156"/>
      </g>
     </g>
    </g>
    <g id="ytick_6">
     <g id="line2d_12">
      <g>
       <use xlink:href="#mdd50f51f99" x="54" y="44.443636" style="stroke: #000000; stroke-width: 0.8"/>
      </g>
     </g>
     <g id="text_13">
      <!-- 1.0 -->
      <g transform="translate(31.096875 48.242855)scale(0.1 -0.1)">
       <use xlink:href="#DejaVuSans-31"/>
       <use xlink:href="#DejaVuSans-2e" x="63.623047"/>
       <use xlink:href="#DejaVuSans-30" x="95.410156"/>
      </g>
     </g>
    </g>
    <g id="text_14">
     <!-- Cost value -->
     <g transform="translate(25.017187 169.6425)rotate(-90)scale(0.1 -0.1)">
      <defs>
       <path id="DejaVuSans-43" d="M 4122 4306 
L 4122 3641 
Q 3803 3938 3442 4084 
Q 3081 4231 2675 4231 
Q 1875 4231 1450 3742 
Q 1025 3253 1025 2328 
Q 1025 1406 1450 917 
Q 1875 428 2675 428 
Q 3081 428 3442 575 
Q 3803 722 4122 1019 
L 4122 359 
Q 3791 134 3420 21 
Q 3050 -91 2638 -91 
Q 1578 -91 968 557 
Q 359 1206 359 2328 
Q 359 3453 968 4101 
Q 1578 4750 2638 4750 
Q 3056 4750 3426 4639 
Q 3797 4528 4122 4306 
z
" transform="scale(0.015625)"/>
       <path id="DejaVuSans-6f" d="M 1959 3097 
Q 1497 3097 1228 2736 
Q 959 2375 959 1747 
Q 959 1119 1226 758 
Q 1494 397 1959 397 
Q 2419 397 2687 759 
Q 2956 1122 2956 1747 
Q 2956 2369 2687 2733 
Q 2419 3097 1959 3097 
z
M 1959 3584 
Q 2709 3584 3137 3096 
Q 3566 2609 3566 1747 
Q 3566 888 3137 398 
Q 2709 -91 1959 -91 
Q 1206 -91 779 398 
Q 353 888 353 1747 
Q 353 2609 779 3096 
Q 1206 3584 1959 3584 
z
" transform="scale(0.015625)"/>
       <path id="DejaVuSans-73" d="M 2834 3397 
L 2834 2853 
Q 2591 2978 2328 3040 
Q 2066 3103 1784 3103 
Q 1356 3103 1142 2972 
Q 928 2841 928 2578 
Q 928 2378 1081 2264 
Q 1234 2150 1697 2047 
L 1894 2003 
Q 2506 1872 2764 1633 
Q 3022 1394 3022 966 
Q 3022 478 2636 193 
Q 2250 -91 1575 -91 
Q 1294 -91 989 -36 
Q 684 19 347 128 
L 347 722 
Q 666 556 975 473 
Q 1284 391 1588 391 
Q 1994 391 2212 530 
Q 2431 669 2431 922 
Q 2431 1156 2273 1281 
Q 2116 1406 1581 1522 
L 1381 1569 
Q 847 1681 609 1914 
Q 372 2147 372 2553 
Q 372 3047 722 3315 
Q 1072 3584 1716 3584 
Q 2034 3584 2315 3537 
Q 2597 3491 2834 3397 
z
" transform="scale(0.015625)"/>
       <path id="DejaVuSans-20" transform="scale(0.015625)"/>
       <path id="DejaVuSans-76" d="M 191 3500 
L 800 3500 
L 1894 563 
L 2988 3500 
L 3597 3500 
L 2284 0 
L 1503 0 
L 191 3500 
z
" transform="scale(0.015625)"/>
       <path id="DejaVuSans-61" d="M 2194 1759 
Q 1497 1759 1228 1600 
Q 959 1441 959 1056 
Q 959 750 1161 570 
Q 1363 391 1709 391 
Q 2188 391 2477 730 
Q 2766 1069 2766 1631 
L 2766 1759 
L 2194 1759 
z
M 3341 1997 
L 3341 0 
L 2766 0 
L 2766 531 
Q 2569 213 2275 61 
Q 1981 -91 1556 -91 
Q 1019 -91 701 211 
Q 384 513 384 1019 
Q 384 1609 779 1909 
Q 1175 2209 1959 2209 
L 2766 2209 
L 2766 2266 
Q 2766 2663 2505 2880 
Q 2244 3097 1772 3097 
Q 1472 3097 1187 3025 
Q 903 2953 641 2809 
L 641 3341 
Q 956 3463 1253 3523 
Q 1550 3584 1831 3584 
Q 2591 3584 2966 3190 
Q 3341 2797 3341 1997 
z
" transform="scale(0.015625)"/>
       <path id="DejaVuSans-6c" d="M 603 4863 
L 1178 4863 
L 1178 0 
L 603 0 
L 603 4863 
z
" transform="scale(0.015625)"/>
       <path id="DejaVuSans-75" d="M 544 1381 
L 544 3500 
L 1119 3500 
L 1119 1403 
Q 1119 906 1312 657 
Q 1506 409 1894 409 
Q 2359 409 2629 706 
Q 2900 1003 2900 1516 
L 2900 3500 
L 3475 3500 
L 3475 0 
L 2900 0 
L 2900 538 
Q 2691 219 2414 64 
Q 2138 -91 1772 -91 
Q 1169 -91 856 284 
Q 544 659 544 1381 
z
M 1991 3584 
L 1991 3584 
z
" transform="scale(0.015625)"/>
      </defs>
      <use xlink:href="#DejaVuSans-43"/>
      <use xlink:href="#DejaVuSans-6f" x="69.824219"/>
      <use xlink:href="#DejaVuSans-73" x="131.005859"/>
      <use xlink:href="#DejaVuSans-74" x="183.105469"/>
      <use xlink:href="#DejaVuSans-20" x="222.314453"/>
      <use xlink:href="#DejaVuSans-76" x="254.101562"/>
      <use xlink:href="#DejaVuSans-61" x="313.28125"/>
      <use xlink:href="#DejaVuSans-6c" x="374.560547"/>
      <use xlink:href="#DejaVuSans-75" x="402.34375"/>
      <use xlink:href="#DejaVuSans-65" x="465.722656"/>
     </g>
    </g>
   </g>
   <g id="line2d_13">
    <path d="M 69.218182 86.231651 
L 72.292562 88.010705 
L 75.366942 90.046735 
L 78.441322 93.209498 
L 81.515702 95.087389 
L 84.590083 98.230385 
L 87.664463 100.523389 
L 90.738843 103.448945 
L 93.813223 103.567549 
L 96.887603 107.086124 
L 99.961983 109.833775 
L 103.036364 110.960509 
L 106.110744 114.320945 
L 109.185124 116.060465 
L 112.259504 117.029062 
L 115.333884 119.658109 
L 118.408264 120.330196 
L 121.482645 123.512727 
L 124.557025 124.402255 
L 127.631405 128.098735 
L 130.705785 130.2336 
L 133.780165 130.648713 
L 136.854545 134.285891 
L 139.928926 133.831244 
L 143.003306 136.796335 
L 146.077686 136.519593 
L 149.152066 136.519593 
L 152.226446 139.80096 
L 155.300826 141.026531 
L 158.375207 140.907927 
L 161.449587 145.118356 
L 164.523967 145.316029 
L 167.598347 145.395098 
L 170.672727 147.806705 
L 173.747107 147.866007 
L 176.821488 148.755535 
L 179.895868 149.882269 
L 182.970248 150.317149 
L 186.044628 150.870633 
L 189.119008 151.839229 
L 192.193388 153.578749 
L 195.267769 153.381076 
L 198.342149 154.665949 
L 201.416529 155.140364 
L 204.490909 155.950822 
L 207.565289 155.258967 
L 210.639669 157.433367 
L 213.71405 156.721745 
L 216.78843 158.06592 
L 219.86281 160.02288 
L 222.93719 160.615898 
L 226.01157 160.635665 
L 229.08595 161.782167 
L 232.160331 161.604262 
L 235.234711 161.624029 
L 238.309091 161.248451 
L 241.383471 163.165876 
L 244.457851 164.628655 
L 247.532231 164.944931 
L 250.606612 164.905396 
L 253.680992 165.775156 
L 256.755372 166.170502 
L 259.829752 166.743753 
L 262.904132 165.577484 
L 265.978512 168.918153 
L 269.052893 168.621644 
L 272.127273 169.511171 
L 275.201653 169.254196 
L 278.276033 169.115825 
L 281.350413 169.056524 
L 284.424793 171.013484 
L 287.499174 170.914647 
L 290.573554 170.875113 
L 293.647934 172.515796 
L 296.722314 171.626269 
L 299.796694 172.654167 
L 302.871074 173.682065 
L 305.945455 175.046007 
L 309.019835 174.334385 
L 312.094215 175.204145 
L 315.168595 175.500655 
L 318.242975 175.737862 
L 321.317355 175.599491 
L 324.391736 176.172742 
L 327.466116 177.655287 
L 330.540496 177.457615 
L 333.614876 178.208771 
L 336.689256 179.790153 
L 339.763636 178.841324 
L 342.838017 179.730851 
L 345.912397 182.656407 
L 348.986777 180.877353 
L 352.061157 181.885484 
L 355.135537 182.616873 
L 358.209917 182.794778 
L 361.284298 182.616873 
L 364.358678 184.534298 
L 367.433058 185.6808 
L 370.507438 185.601731 
L 373.581818 187.123811 
" clip-path="url(#pc0bde1bbc7)" style="fill: none; stroke: #1f77b4; stroke-width: 1.5; stroke-linecap: square"/>
   </g>
   <g id="line2d_14">
    <path d="M 69.218182 114.36048 
L 72.292562 136.875404 
L 75.366942 148.577629 
L 78.441322 154.231069 
L 81.515702 160.45776 
L 84.590083 164.213542 
L 87.664463 170.24256 
L 90.738843 174.294851 
L 93.813223 181.233164 
L 96.887603 186.511025 
L 99.961983 193.192364 
L 103.036364 196.473731 
L 106.110744 207.20736 
L 109.185124 211.002676 
L 112.259504 213.453818 
L 115.333884 211.753833 
L 118.408264 212.801498 
L 121.482645 213.967767 
L 124.557025 213.789862 
L 127.631405 213.631724 
L 130.705785 214.639855 
L 133.780165 217.031695 
L 136.854545 216.241004 
L 139.928926 216.596815 
L 143.003306 215.825891 
L 146.077686 217.308436 
L 149.152066 217.624713 
L 152.226446 216.636349 
L 155.300826 217.328204 
L 158.375207 217.189833 
L 161.449587 216.359607 
L 164.523967 217.664247 
L 167.598347 217.387505 
L 170.672727 217.684015 
L 173.747107 217.703782 
L 176.821488 218.277033 
L 179.895868 217.960756 
L 182.970248 217.407273 
L 186.044628 217.782851 
L 189.119008 217.940989 
L 192.193388 217.525876 
L 195.267769 217.684015 
L 198.342149 217.763084 
L 201.416529 217.86192 
L 204.490909 218.474705 
L 207.565289 217.763084 
L 210.639669 218.652611 
L 213.71405 216.873556 
L 216.78843 218.415404 
L 219.86281 216.853789 
L 222.93719 218.474705 
L 226.01157 217.763084 
L 229.08595 217.486342 
L 232.160331 218.158429 
L 235.234711 216.577047 
L 238.309091 218.415404 
L 241.383471 216.77472 
L 244.457851 218.336335 
L 247.532231 217.585178 
L 250.606612 218.197964 
L 253.680992 217.901455 
L 256.755372 217.723549 
L 259.829752 218.039825 
L 262.904132 216.913091 
L 265.978512 217.545644 
L 269.052893 218.613076 
L 272.127273 216.735185 
L 275.201653 217.051462 
L 278.276033 218.237498 
L 281.350413 216.952625 
L 284.424793 216.873556 
L 287.499174 216.300305 
L 290.573554 216.913091 
L 293.647934 217.525876 
L 296.722314 218.059593 
L 299.796694 219.581673 
L 302.871074 217.763084 
L 305.945455 218.356102 
L 309.019835 218.039825 
L 312.094215 218.494473 
L 315.168595 216.932858 
L 318.242975 216.497978 
L 321.317355 215.568916 
L 324.391736 217.367738 
L 327.466116 218.099127 
L 330.540496 217.130531 
L 333.614876 218.2968 
L 336.689256 218.2968 
L 339.763636 217.842153 
L 342.838017 217.822385 
L 345.912397 218.336335 
L 348.986777 218.059593 
L 352.061157 218.73168 
L 355.135537 217.802618 
L 358.209917 218.454938 
L 361.284298 217.328204 
L 364.358678 217.624713 
L 367.433058 217.624713 
L 370.507438 217.723549 
L 373.581818 216.952625 
" clip-path="url(#pc0bde1bbc7)" style="fill: none; stroke: #ff7f0e; stroke-width: 1.5; stroke-linecap: square"/>
   </g>
   <g id="line2d_15">
    <path d="M 69.218182 93.506007 
L 72.292562 104.081498 
L 75.366942 112.126778 
L 78.441322 121.199956 
L 81.515702 129.561513 
L 84.590083 136.657964 
L 87.664463 140.255607 
L 90.738843 146.343927 
L 93.813223 150.396218 
L 96.887603 153.203171 
L 99.961983 156.227564 
L 103.036364 158.71824 
L 106.110744 163.225178 
L 109.185124 165.45888 
L 112.259504 166.565847 
L 115.333884 167.910022 
L 118.408264 173.7216 
L 121.482645 175.639025 
L 124.557025 177.833193 
L 127.631405 180.976189 
L 130.705785 185.285455 
L 133.780165 184.395927 
L 136.854545 187.459855 
L 139.928926 188.626124 
L 143.003306 191.274938 
L 146.077686 192.184233 
L 149.152066 194.259796 
L 152.226446 196.592335 
L 155.300826 201.257411 
L 158.375207 201.909731 
L 161.449587 203.589949 
L 164.523967 204.143433 
L 167.598347 207.780611 
L 170.672727 208.136422 
L 173.747107 210.923607 
L 176.821488 210.350356 
L 179.895868 211.160815 
L 182.970248 212.742196 
L 186.044628 212.781731 
L 189.119008 213.29568 
L 192.193388 215.213105 
L 195.267769 215.0352 
L 198.342149 214.797993 
L 201.416529 216.893324 
L 204.490909 215.272407 
L 207.565289 216.023564 
L 210.639669 215.153804 
L 213.71405 216.063098 
L 216.78843 216.478211 
L 219.86281 217.802618 
L 222.93719 218.138662 
L 226.01157 215.924727 
L 229.08595 216.932858 
L 232.160331 217.545644 
L 235.234711 217.387505 
L 238.309091 216.33984 
L 241.383471 216.794487 
L 244.457851 215.865425 
L 247.532231 217.525876 
L 250.606612 217.407273 
L 253.680992 217.347971 
L 256.755372 217.782851 
L 259.829752 216.399142 
L 262.904132 217.229367 
L 265.978512 217.466575 
L 269.052893 217.624713 
L 272.127273 216.913091 
L 275.201653 217.090996 
L 278.276033 217.367738 
L 281.350413 216.754953 
L 284.424793 217.288669 
L 287.499174 217.2096 
L 290.573554 217.763084 
L 293.647934 216.458444 
L 296.722314 218.336335 
L 299.796694 217.743316 
L 302.871074 217.684015 
L 305.945455 217.506109 
L 309.019835 217.506109 
L 312.094215 217.308436 
L 315.168595 217.585178 
L 318.242975 217.684015 
L 321.317355 217.466575 
L 324.391736 216.497978 
L 327.466116 218.059593 
L 330.540496 216.873556 
L 333.614876 217.011927 
L 336.689256 216.814255 
L 339.763636 217.347971 
L 342.838017 216.932858 
L 345.912397 217.288669 
L 348.986777 218.51424 
L 352.061157 218.257265 
L 355.135537 216.893324 
L 358.209917 216.438676 
L 361.284298 217.703782 
L 364.358678 217.881687 
L 367.433058 217.367738 
L 370.507438 216.952625 
L 373.581818 217.64448 
" clip-path="url(#pc0bde1bbc7)" style="fill: none; stroke: #2ca02c; stroke-width: 1.5; stroke-linecap: square"/>
   </g>
   <g id="line2d_16">
    <path d="M 69.218182 86.033978 
L 72.292562 90.738589 
L 75.366942 91.252538 
L 78.441322 96.945513 
L 81.515702 99.416422 
L 84.590083 104.002429 
L 87.664463 106.077993 
L 90.738843 111.059345 
L 93.813223 111.948873 
L 96.887603 116.890691 
L 99.961983 101.729193 
L 103.036364 107.283796 
L 106.110744 111.889571 
L 109.185124 115.329076 
L 112.259504 120.033687 
L 115.333884 120.527869 
L 118.408264 124.105745 
L 121.482645 126.932465 
L 124.557025 131.498705 
L 127.631405 134.404495 
L 130.705785 135.550996 
L 133.780165 138.773062 
L 136.854545 138.516087 
L 139.928926 143.042793 
L 143.003306 144.861382 
L 146.077686 145.098589 
L 149.152066 147.786938 
L 152.226446 150.415985 
L 155.300826 148.340422 
L 158.375207 149.58576 
L 161.449587 152.649687 
L 164.523967 151.878764 
L 167.598347 151.997367 
L 170.672727 153.400844 
L 173.747107 155.515942 
L 176.821488 155.654313 
L 179.895868 156.247331 
L 182.970248 156.267098 
L 186.044628 157.907782 
L 189.119008 157.808945 
L 192.193388 158.164756 
L 195.267769 158.817076 
L 198.342149 161.54496 
L 201.416529 159.291491 
L 204.490909 160.121716 
L 207.565289 161.228684 
L 210.639669 160.45776 
L 213.71405 163.06704 
L 216.78843 163.462385 
L 219.86281 163.383316 
L 222.93719 161.841469 
L 226.01157 162.217047 
L 229.08595 166.625149 
L 232.160331 164.529818 
L 235.234711 164.253076 
L 238.309091 165.182138 
L 241.383471 165.656553 
L 244.457851 167.692582 
L 247.532231 168.50304 
L 250.606612 167.257702 
L 253.680992 170.02512 
L 256.755372 168.206531 
L 259.829752 170.301862 
L 262.904132 172.219287 
L 265.978512 173.7216 
L 269.052893 172.713469 
L 272.127273 173.089047 
L 275.201653 174.15648 
L 278.276033 173.879738 
L 281.350413 176.825062 
L 284.424793 177.082036 
L 287.499174 177.734356 
L 290.573554 177.773891 
L 293.647934 178.28784 
L 296.722314 180.02736 
L 299.796694 180.956422 
L 302.871074 181.134327 
L 305.945455 183.368029 
L 309.019835 181.786647 
L 312.094215 185.166851 
L 315.168595 185.601731 
L 318.242975 187.914502 
L 321.317355 187.756364 
L 324.391736 190.701687 
L 327.466116 190.523782 
L 330.540496 192.026095 
L 333.614876 192.816785 
L 336.689256 193.192364 
L 339.763636 193.567942 
L 342.838017 194.556305 
L 345.912397 196.967913 
L 348.986777 196.908611 
L 352.061157 197.976044 
L 355.135537 197.896975 
L 358.209917 200.862065 
L 361.284298 201.217876 
L 364.358678 202.957396 
L 367.433058 202.819025 
L 370.507438 203.471345 
L 373.581818 204.479476 
" clip-path="url(#pc0bde1bbc7)" style="fill: none; stroke: #d62728; stroke-width: 1.5; stroke-linecap: square"/>
   </g>
   <g id="line2d_17">
    <path d="M 69.218182 82.416567 
L 72.292562 94.632742 
L 75.366942 110.920975 
L 78.441322 123.354589 
L 81.515702 133.989382 
L 84.590083 144.683476 
L 87.664463 153.28224 
L 90.738843 162.730996 
L 93.813223 163.976335 
L 96.887603 165.617018 
L 99.961983 161.999607 
L 103.036364 159.429862 
L 106.110744 155.298502 
L 109.185124 159.113585 
L 112.259504 163.9368 
L 115.333884 176.666924 
L 118.408264 189.199375 
L 121.482645 202.186473 
L 124.557025 207.64224 
L 127.631405 202.779491 
L 130.705785 196.058618 
L 133.780165 192.026095 
L 136.854545 194.655142 
L 139.928926 198.529527 
L 143.003306 202.996931 
L 146.077686 208.017818 
L 149.152066 210.053847 
L 152.226446 214.027069 
L 155.300826 214.81776 
L 158.375207 215.351476 
L 161.449587 215.667753 
L 164.523967 216.616582 
L 167.598347 216.913091 
L 170.672727 217.822385 
L 173.747107 218.593309 
L 176.821488 218.435171 
L 179.895868 218.830516 
L 182.970248 219.977018 
L 186.044628 219.739811 
L 189.119008 221.004916 
L 192.193388 220.4712 
L 195.267769 221.716538 
L 198.342149 219.937484 
L 201.416529 222.21072 
L 204.490909 222.270022 
L 207.565289 221.914211 
L 210.639669 222.783971 
L 213.71405 223.060713 
L 216.78843 223.258385 
L 219.86281 222.606065 
L 222.93719 224.306051 
L 226.01157 224.661862 
L 229.08595 222.882807 
L 232.160331 224.365353 
L 235.234711 224.266516 
L 238.309091 224.839767 
L 241.383471 224.82 
L 244.457851 225.571156 
L 247.532231 225.808364 
L 250.606612 225.808364 
L 253.680992 225.966502 
L 256.755372 226.282778 
L 259.829752 225.828131 
L 262.904132 225.136276 
L 265.978512 226.085105 
L 269.052893 227.073469 
L 272.127273 226.183942 
L 275.201653 226.599055 
L 278.276033 227.725789 
L 281.350413 226.974633 
L 284.424793 227.330444 
L 287.499174 227.626953 
L 290.573554 228.51648 
L 293.647934 228.0816 
L 296.722314 227.824625 
L 299.796694 229.188567 
L 302.871074 228.694385 
L 305.945455 227.785091 
L 309.019835 228.812989 
L 312.094215 228.160669 
L 315.168595 229.1688 
L 318.242975 228.318807 
L 321.317355 228.73392 
L 324.391736 228.575782 
L 327.466116 229.267636 
L 330.540496 229.267636 
L 333.614876 228.832756 
L 336.689256 229.662982 
L 339.763636 228.259505 
L 342.838017 229.188567 
L 345.912397 228.674618 
L 348.986777 228.279273 
L 352.061157 228.832756 
L 355.135537 229.208335 
L 358.209917 228.397876 
L 361.284298 227.626953 
L 364.358678 229.504844 
L 367.433058 228.911825 
L 370.507438 228.793222 
L 373.581818 228.694385 
" clip-path="url(#pc0bde1bbc7)" style="fill: none; stroke: #9467bd; stroke-width: 1.5; stroke-linecap: square"/>
   </g>
   <g id="patch_3">
    <path d="M 54 252 
L 54 34.56 
" style="fill: none; stroke: #000000; stroke-width: 0.8; stroke-linejoin: miter; stroke-linecap: square"/>
   </g>
   <g id="patch_4">
    <path d="M 388.8 252 
L 388.8 34.56 
" style="fill: none; stroke: #000000; stroke-width: 0.8; stroke-linejoin: miter; stroke-linecap: square"/>
   </g>
   <g id="patch_5">
    <path d="M 54 252 
L 388.8 252 
" style="fill: none; stroke: #000000; stroke-width: 0.8; stroke-linejoin: miter; stroke-linecap: square"/>
   </g>
   <g id="patch_6">
    <path d="M 54 34.56 
L 388.8 34.56 
" style="fill: none; stroke: #000000; stroke-width: 0.8; stroke-linejoin: miter; stroke-linecap: square"/>
   </g>
   <g id="legend_1">
    <g id="patch_7">
     <path d="M 290.1325 99.6725 
L 383.2 99.6725 
Q 384.8 99.6725 384.8 98.0725 
L 384.8 40.16 
Q 384.8 38.56 383.2 38.56 
L 290.1325 38.56 
Q 288.5325 38.56 288.5325 40.16 
L 288.5325 98.0725 
Q 288.5325 99.6725 290.1325 99.6725 
z
" style="fill: #ffffff; opacity: 0.8; stroke: #cccccc; stroke-linejoin: miter"/>
    </g>
    <g id="line2d_18">
     <path d="M 291.7325 45.03875 
L 299.7325 45.03875 
L 307.7325 45.03875 
" style="fill: none; stroke: #1f77b4; stroke-width: 1.5; stroke-linecap: square"/>
    </g>
    <g id="text_15">
     <!-- SGD -->
     <g transform="translate(314.1325 47.83875)scale(0.08 -0.08)">
      <defs>
       <path id="DejaVuSans-47" d="M 3809 666 
L 3809 1919 
L 2778 1919 
L 2778 2438 
L 4434 2438 
L 4434 434 
Q 4069 175 3628 42 
Q 3188 -91 2688 -91 
Q 1594 -91 976 548 
Q 359 1188 359 2328 
Q 359 3472 976 4111 
Q 1594 4750 2688 4750 
Q 3144 4750 3555 4637 
Q 3966 4525 4313 4306 
L 4313 3634 
Q 3963 3931 3569 4081 
Q 3175 4231 2741 4231 
Q 1884 4231 1454 3753 
Q 1025 3275 1025 2328 
Q 1025 1384 1454 906 
Q 1884 428 2741 428 
Q 3075 428 3337 486 
Q 3600 544 3809 666 
z
" transform="scale(0.015625)"/>
       <path id="DejaVuSans-44" d="M 1259 4147 
L 1259 519 
L 2022 519 
Q 2988 519 3436 956 
Q 3884 1394 3884 2338 
Q 3884 3275 3436 3711 
Q 2988 4147 2022 4147 
L 1259 4147 
z
M 628 4666 
L 1925 4666 
Q 3281 4666 3915 4102 
Q 4550 3538 4550 2338 
Q 4550 1131 3912 565 
Q 3275 0 1925 0 
L 628 0 
L 628 4666 
z
" transform="scale(0.015625)"/>
      </defs>
      <use xlink:href="#DejaVuSans-53"/>
      <use xlink:href="#DejaVuSans-47" x="63.476562"/>
      <use xlink:href="#DejaVuSans-44" x="140.966797"/>
     </g>
    </g>
    <g id="line2d_19">
     <path d="M 291.7325 56.78125 
L 299.7325 56.78125 
L 307.7325 56.78125 
" style="fill: none; stroke: #ff7f0e; stroke-width: 1.5; stroke-linecap: square"/>
    </g>
    <g id="text_16">
     <!-- Adam -->
     <g transform="translate(314.1325 59.58125)scale(0.08 -0.08)">
      <defs>
       <path id="DejaVuSans-41" d="M 2188 4044 
L 1331 1722 
L 3047 1722 
L 2188 4044 
z
M 1831 4666 
L 2547 4666 
L 4325 0 
L 3669 0 
L 3244 1197 
L 1141 1197 
L 716 0 
L 50 0 
L 1831 4666 
z
" transform="scale(0.015625)"/>
       <path id="DejaVuSans-64" d="M 2906 2969 
L 2906 4863 
L 3481 4863 
L 3481 0 
L 2906 0 
L 2906 525 
Q 2725 213 2448 61 
Q 2172 -91 1784 -91 
Q 1150 -91 751 415 
Q 353 922 353 1747 
Q 353 2572 751 3078 
Q 1150 3584 1784 3584 
Q 2172 3584 2448 3432 
Q 2725 3281 2906 2969 
z
M 947 1747 
Q 947 1113 1208 752 
Q 1469 391 1925 391 
Q 2381 391 2643 752 
Q 2906 1113 2906 1747 
Q 2906 2381 2643 2742 
Q 2381 3103 1925 3103 
Q 1469 3103 1208 2742 
Q 947 2381 947 1747 
z
" transform="scale(0.015625)"/>
       <path id="DejaVuSans-6d" d="M 3328 2828 
Q 3544 3216 3844 3400 
Q 4144 3584 4550 3584 
Q 5097 3584 5394 3201 
Q 5691 2819 5691 2113 
L 5691 0 
L 5113 0 
L 5113 2094 
Q 5113 2597 4934 2840 
Q 4756 3084 4391 3084 
Q 3944 3084 3684 2787 
Q 3425 2491 3425 1978 
L 3425 0 
L 2847 0 
L 2847 2094 
Q 2847 2600 2669 2842 
Q 2491 3084 2119 3084 
Q 1678 3084 1418 2786 
Q 1159 2488 1159 1978 
L 1159 0 
L 581 0 
L 581 3500 
L 1159 3500 
L 1159 2956 
Q 1356 3278 1631 3431 
Q 1906 3584 2284 3584 
Q 2666 3584 2933 3390 
Q 3200 3197 3328 2828 
z
" transform="scale(0.015625)"/>
      </defs>
      <use xlink:href="#DejaVuSans-41"/>
      <use xlink:href="#DejaVuSans-64" x="66.658203"/>
      <use xlink:href="#DejaVuSans-61" x="130.134766"/>
      <use xlink:href="#DejaVuSans-6d" x="191.414062"/>
     </g>
    </g>
    <g id="line2d_20">
     <path d="M 291.7325 68.52375 
L 299.7325 68.52375 
L 307.7325 68.52375 
" style="fill: none; stroke: #2ca02c; stroke-width: 1.5; stroke-linecap: square"/>
    </g>
    <g id="text_17">
     <!-- QNG-QFSM -->
     <g transform="translate(314.1325 71.32375)scale(0.08 -0.08)">
      <defs>
       <path id="DejaVuSans-51" d="M 2522 4238 
Q 1834 4238 1429 3725 
Q 1025 3213 1025 2328 
Q 1025 1447 1429 934 
Q 1834 422 2522 422 
Q 3209 422 3611 934 
Q 4013 1447 4013 2328 
Q 4013 3213 3611 3725 
Q 3209 4238 2522 4238 
z
M 3406 84 
L 4238 -825 
L 3475 -825 
L 2784 -78 
Q 2681 -84 2626 -87 
Q 2572 -91 2522 -91 
Q 1538 -91 948 567 
Q 359 1225 359 2328 
Q 359 3434 948 4092 
Q 1538 4750 2522 4750 
Q 3503 4750 4090 4092 
Q 4678 3434 4678 2328 
Q 4678 1516 4351 937 
Q 4025 359 3406 84 
z
" transform="scale(0.015625)"/>
       <path id="DejaVuSans-4e" d="M 628 4666 
L 1478 4666 
L 3547 763 
L 3547 4666 
L 4159 4666 
L 4159 0 
L 3309 0 
L 1241 3903 
L 1241 0 
L 628 0 
L 628 4666 
z
" transform="scale(0.015625)"/>
       <path id="DejaVuSans-2d" d="M 313 2009 
L 1997 2009 
L 1997 1497 
L 313 1497 
L 313 2009 
z
" transform="scale(0.015625)"/>
       <path id="DejaVuSans-46" d="M 628 4666 
L 3309 4666 
L 3309 4134 
L 1259 4134 
L 1259 2759 
L 3109 2759 
L 3109 2228 
L 1259 2228 
L 1259 0 
L 628 0 
L 628 4666 
z
" transform="scale(0.015625)"/>
       <path id="DejaVuSans-4d" d="M 628 4666 
L 1569 4666 
L 2759 1491 
L 3956 4666 
L 4897 4666 
L 4897 0 
L 4281 0 
L 4281 4097 
L 3078 897 
L 2444 897 
L 1241 4097 
L 1241 0 
L 628 0 
L 628 4666 
z
" transform="scale(0.015625)"/>
      </defs>
      <use xlink:href="#DejaVuSans-51"/>
      <use xlink:href="#DejaVuSans-4e" x="78.710938"/>
      <use xlink:href="#DejaVuSans-47" x="153.515625"/>
      <use xlink:href="#DejaVuSans-2d" x="231.005859"/>
      <use xlink:href="#DejaVuSans-51" x="270.714844"/>
      <use xlink:href="#DejaVuSans-46" x="349.425781"/>
      <use xlink:href="#DejaVuSans-53" x="405.195312"/>
      <use xlink:href="#DejaVuSans-4d" x="468.671875"/>
     </g>
    </g>
    <g id="line2d_21">
     <path d="M 291.7325 80.26625 
L 299.7325 80.26625 
L 307.7325 80.26625 
" style="fill: none; stroke: #d62728; stroke-width: 1.5; stroke-linecap: square"/>
    </g>
    <g id="text_18">
     <!-- QNG-QFIM -->
     <g transform="translate(314.1325 83.06625)scale(0.08 -0.08)">
      <defs>
       <path id="DejaVuSans-49" d="M 628 4666 
L 1259 4666 
L 1259 0 
L 628 0 
L 628 4666 
z
" transform="scale(0.015625)"/>
      </defs>
      <use xlink:href="#DejaVuSans-51"/>
      <use xlink:href="#DejaVuSans-4e" x="78.710938"/>
      <use xlink:href="#DejaVuSans-47" x="153.515625"/>
      <use xlink:href="#DejaVuSans-2d" x="231.005859"/>
      <use xlink:href="#DejaVuSans-51" x="270.714844"/>
      <use xlink:href="#DejaVuSans-46" x="349.425781"/>
      <use xlink:href="#DejaVuSans-49" x="406.945312"/>
      <use xlink:href="#DejaVuSans-4d" x="436.4375"/>
     </g>
    </g>
    <g id="line2d_22">
     <path d="M 291.7325 92.00875 
L 299.7325 92.00875 
L 307.7325 92.00875 
" style="fill: none; stroke: #9467bd; stroke-width: 1.5; stroke-linecap: square"/>
    </g>
    <g id="text_19">
     <!-- Adam QNG-QFIM -->
     <g transform="translate(314.1325 94.80875)scale(0.08 -0.08)">
      <use xlink:href="#DejaVuSans-41"/>
      <use xlink:href="#DejaVuSans-64" x="66.658203"/>
      <use xlink:href="#DejaVuSans-61" x="130.134766"/>
      <use xlink:href="#DejaVuSans-6d" x="191.414062"/>
      <use xlink:href="#DejaVuSans-20" x="288.826172"/>
      <use xlink:href="#DejaVuSans-51" x="320.613281"/>
      <use xlink:href="#DejaVuSans-4e" x="399.324219"/>
      <use xlink:href="#DejaVuSans-47" x="474.128906"/>
      <use xlink:href="#DejaVuSans-2d" x="551.619141"/>
      <use xlink:href="#DejaVuSans-51" x="591.328125"/>
      <use xlink:href="#DejaVuSans-46" x="670.039062"/>
      <use xlink:href="#DejaVuSans-49" x="727.558594"/>
      <use xlink:href="#DejaVuSans-4d" x="757.050781"/>
     </g>
    </g>
   </g>
  </g>
 </g>
 <defs>
  <clipPath id="pc0bde1bbc7">
   <rect x="54" y="34.56" width="334.8" height="217.44"/>
  </clipPath>
 </defs>
</svg>
