<?xml version="1.0" encoding="utf-8" standalone="no"?>
<!DOCTYPE svg PUBLIC "-//W3C//DTD SVG 1.1//EN"
  "http://www.w3.org/Graphics/SVG/1.1/DTD/svg11.dtd">
<svg xmlns:xlink="http://www.w3.org/1999/xlink" width="432pt" height="288pt" viewBox="0 0 432 288" xmlns="http://www.w3.org/2000/svg" version="1.1">
 <metadata>
  <rdf:RDF xmlns:dc="http://purl.org/dc/elements/1.1/" xmlns:cc="http://creativecommons.org/ns#" xmlns:rdf="http://www.w3.org/1999/02/22-rdf-syntax-ns#">
   <cc:Work>
    <dc:type rdf:resource="http://purl.org/dc/dcmitype/StillImage"/>
    <dc:date>2022-04-17T01:00:26.981907</dc:date>
    <dc:format>image/svg+xml</dc:format>
    <dc:creator>
     <cc:Agent>
      <dc:title>Matplotlib v3.5.1, https://matplotlib.org/</dc:title>
     </cc:Agent>
    </dc:creator>
   </cc:Work>
  </rdf:RDF>
 </metadata>
 <defs>
  <style type="text/css">*{stroke-linejoin: round; stroke-linecap: butt}</style>
 </defs>
 <g id="figure_1">
  <g id="patch_1">
   <path d="M 0 288 
L 432 288 
L 432 0 
L 0 0 
L 0 288 
z
" style="fill: none"/>
  </g>
  <g id="axes_1">
   <g id="patch_2">
    <path d="M 54 252 
L 388.8 252 
L 388.8 34.56 
L 54 34.56 
z
" style="fill: #ffffff"/>
   </g>
   <g id="matplotlib.axis_1">
    <g id="xtick_1">
     <g id="line2d_1">
      <defs>
       <path id="mb027289819" d="M 0 0 
L 0 3.5 
" style="stroke: #000000; stroke-width: 0.8"/>
      </defs>
      <g>
       <use xlink:href="#mb027289819" x="69.218182" y="252" style="stroke: #000000; stroke-width: 0.8"/>
      </g>
     </g>
     <g id="text_1">
      <!-- 0 -->
      <g transform="translate(66.036932 266.598437)scale(0.1 -0.1)">
       <defs>
        <path id="DejaVuSans-30" d="M 2034 4250 
Q 1547 4250 1301 3770 
Q 1056 3291 1056 2328 
Q 1056 1369 1301 889 
Q 1547 409 2034 409 
Q 2525 409 2770 889 
Q 3016 1369 3016 2328 
Q 3016 3291 2770 3770 
Q 2525 4250 2034 4250 
z
M 2034 4750 
Q 2819 4750 3233 4129 
Q 3647 3509 3647 2328 
Q 3647 1150 3233 529 
Q 2819 -91 2034 -91 
Q 1250 -91 836 529 
Q 422 1150 422 2328 
Q 422 3509 836 4129 
Q 1250 4750 2034 4750 
z
" transform="scale(0.015625)"/>
       </defs>
       <use xlink:href="#DejaVuSans-30"/>
      </g>
     </g>
    </g>
    <g id="xtick_2">
     <g id="line2d_2">
      <g>
       <use xlink:href="#mb027289819" x="130.705785" y="252" style="stroke: #000000; stroke-width: 0.8"/>
      </g>
     </g>
     <g id="text_2">
      <!-- 20 -->
      <g transform="translate(124.343285 266.598437)scale(0.1 -0.1)">
       <defs>
        <path id="DejaVuSans-32" d="M 1228 531 
L 3431 531 
L 3431 0 
L 469 0 
L 469 531 
Q 828 903 1448 1529 
Q 2069 2156 2228 2338 
Q 2531 2678 2651 2914 
Q 2772 3150 2772 3378 
Q 2772 3750 2511 3984 
Q 2250 4219 1831 4219 
Q 1534 4219 1204 4116 
Q 875 4013 500 3803 
L 500 4441 
Q 881 4594 1212 4672 
Q 1544 4750 1819 4750 
Q 2544 4750 2975 4387 
Q 3406 4025 3406 3419 
Q 3406 3131 3298 2873 
Q 3191 2616 2906 2266 
Q 2828 2175 2409 1742 
Q 1991 1309 1228 531 
z
" transform="scale(0.015625)"/>
       </defs>
       <use xlink:href="#DejaVuSans-32"/>
       <use xlink:href="#DejaVuSans-30" x="63.623047"/>
      </g>
     </g>
    </g>
    <g id="xtick_3">
     <g id="line2d_3">
      <g>
       <use xlink:href="#mb027289819" x="192.193388" y="252" style="stroke: #000000; stroke-width: 0.8"/>
      </g>
     </g>
     <g id="text_3">
      <!-- 40 -->
      <g transform="translate(185.830888 266.598437)scale(0.1 -0.1)">
       <defs>
        <path id="DejaVuSans-34" d="M 2419 4116 
L 825 1625 
L 2419 1625 
L 2419 4116 
z
M 2253 4666 
L 3047 4666 
L 3047 1625 
L 3713 1625 
L 3713 1100 
L 3047 1100 
L 3047 0 
L 2419 0 
L 2419 1100 
L 313 1100 
L 313 1709 
L 2253 4666 
z
" transform="scale(0.015625)"/>
       </defs>
       <use xlink:href="#DejaVuSans-34"/>
       <use xlink:href="#DejaVuSans-30" x="63.623047"/>
      </g>
     </g>
    </g>
    <g id="xtick_4">
     <g id="line2d_4">
      <g>
       <use xlink:href="#mb027289819" x="253.680992" y="252" style="stroke: #000000; stroke-width: 0.8"/>
      </g>
     </g>
     <g id="text_4">
      <!-- 60 -->
      <g transform="translate(247.318492 266.598437)scale(0.1 -0.1)">
       <defs>
        <path id="DejaVuSans-36" d="M 2113 2584 
Q 1688 2584 1439 2293 
Q 1191 2003 1191 1497 
Q 1191 994 1439 701 
Q 1688 409 2113 409 
Q 2538 409 2786 701 
Q 3034 994 3034 1497 
Q 3034 2003 2786 2293 
Q 2538 2584 2113 2584 
z
M 3366 4563 
L 3366 3988 
Q 3128 4100 2886 4159 
Q 2644 4219 2406 4219 
Q 1781 4219 1451 3797 
Q 1122 3375 1075 2522 
Q 1259 2794 1537 2939 
Q 1816 3084 2150 3084 
Q 2853 3084 3261 2657 
Q 3669 2231 3669 1497 
Q 3669 778 3244 343 
Q 2819 -91 2113 -91 
Q 1303 -91 875 529 
Q 447 1150 447 2328 
Q 447 3434 972 4092 
Q 1497 4750 2381 4750 
Q 2619 4750 2861 4703 
Q 3103 4656 3366 4563 
z
" transform="scale(0.015625)"/>
       </defs>
       <use xlink:href="#DejaVuSans-36"/>
       <use xlink:href="#DejaVuSans-30" x="63.623047"/>
      </g>
     </g>
    </g>
    <g id="xtick_5">
     <g id="line2d_5">
      <g>
       <use xlink:href="#mb027289819" x="315.168595" y="252" style="stroke: #000000; stroke-width: 0.8"/>
      </g>
     </g>
     <g id="text_5">
      <!-- 80 -->
      <g transform="translate(308.806095 266.598437)scale(0.1 -0.1)">
       <defs>
        <path id="DejaVuSans-38" d="M 2034 2216 
Q 1584 2216 1326 1975 
Q 1069 1734 1069 1313 
Q 1069 891 1326 650 
Q 1584 409 2034 409 
Q 2484 409 2743 651 
Q 3003 894 3003 1313 
Q 3003 1734 2745 1975 
Q 2488 2216 2034 2216 
z
M 1403 2484 
Q 997 2584 770 2862 
Q 544 3141 544 3541 
Q 544 4100 942 4425 
Q 1341 4750 2034 4750 
Q 2731 4750 3128 4425 
Q 3525 4100 3525 3541 
Q 3525 3141 3298 2862 
Q 3072 2584 2669 2484 
Q 3125 2378 3379 2068 
Q 3634 1759 3634 1313 
Q 3634 634 3220 271 
Q 2806 -91 2034 -91 
Q 1263 -91 848 271 
Q 434 634 434 1313 
Q 434 1759 690 2068 
Q 947 2378 1403 2484 
z
M 1172 3481 
Q 1172 3119 1398 2916 
Q 1625 2713 2034 2713 
Q 2441 2713 2670 2916 
Q 2900 3119 2900 3481 
Q 2900 3844 2670 4047 
Q 2441 4250 2034 4250 
Q 1625 4250 1398 4047 
Q 1172 3844 1172 3481 
z
" transform="scale(0.015625)"/>
       </defs>
       <use xlink:href="#DejaVuSans-38"/>
       <use xlink:href="#DejaVuSans-30" x="63.623047"/>
      </g>
     </g>
    </g>
    <g id="xtick_6">
     <g id="line2d_6">
      <g>
       <use xlink:href="#mb027289819" x="376.656198" y="252" style="stroke: #000000; stroke-width: 0.8"/>
      </g>
     </g>
     <g id="text_6">
      <!-- 100 -->
      <g transform="translate(367.112448 266.598437)scale(0.1 -0.1)">
       <defs>
        <path id="DejaVuSans-31" d="M 794 531 
L 1825 531 
L 1825 4091 
L 703 3866 
L 703 4441 
L 1819 4666 
L 2450 4666 
L 2450 531 
L 3481 531 
L 3481 0 
L 794 0 
L 794 531 
z
" transform="scale(0.015625)"/>
       </defs>
       <use xlink:href="#DejaVuSans-31"/>
       <use xlink:href="#DejaVuSans-30" x="63.623047"/>
       <use xlink:href="#DejaVuSans-30" x="127.246094"/>
      </g>
     </g>
    </g>
    <g id="text_7">
     <!-- Step -->
     <g transform="translate(210.014844 280.276563)scale(0.1 -0.1)">
      <defs>
       <path id="DejaVuSans-53" d="M 3425 4513 
L 3425 3897 
Q 3066 4069 2747 4153 
Q 2428 4238 2131 4238 
Q 1616 4238 1336 4038 
Q 1056 3838 1056 3469 
Q 1056 3159 1242 3001 
Q 1428 2844 1947 2747 
L 2328 2669 
Q 3034 2534 3370 2195 
Q 3706 1856 3706 1288 
Q 3706 609 3251 259 
Q 2797 -91 1919 -91 
Q 1588 -91 1214 -16 
Q 841 59 441 206 
L 441 856 
Q 825 641 1194 531 
Q 1563 422 1919 422 
Q 2459 422 2753 634 
Q 3047 847 3047 1241 
Q 3047 1584 2836 1778 
Q 2625 1972 2144 2069 
L 1759 2144 
Q 1053 2284 737 2584 
Q 422 2884 422 3419 
Q 422 4038 858 4394 
Q 1294 4750 2059 4750 
Q 2388 4750 2728 4690 
Q 3069 4631 3425 4513 
z
" transform="scale(0.015625)"/>
       <path id="DejaVuSans-74" d="M 1172 4494 
L 1172 3500 
L 2356 3500 
L 2356 3053 
L 1172 3053 
L 1172 1153 
Q 1172 725 1289 603 
Q 1406 481 1766 481 
L 2356 481 
L 2356 0 
L 1766 0 
Q 1100 0 847 248 
Q 594 497 594 1153 
L 594 3053 
L 172 3053 
L 172 3500 
L 594 3500 
L 594 4494 
L 1172 4494 
z
" transform="scale(0.015625)"/>
       <path id="DejaVuSans-65" d="M 3597 1894 
L 3597 1613 
L 953 1613 
Q 991 1019 1311 708 
Q 1631 397 2203 397 
Q 2534 397 2845 478 
Q 3156 559 3463 722 
L 3463 178 
Q 3153 47 2828 -22 
Q 2503 -91 2169 -91 
Q 1331 -91 842 396 
Q 353 884 353 1716 
Q 353 2575 817 3079 
Q 1281 3584 2069 3584 
Q 2775 3584 3186 3129 
Q 3597 2675 3597 1894 
z
M 3022 2063 
Q 3016 2534 2758 2815 
Q 2500 3097 2075 3097 
Q 1594 3097 1305 2825 
Q 1016 2553 972 2059 
L 3022 2063 
z
" transform="scale(0.015625)"/>
       <path id="DejaVuSans-70" d="M 1159 525 
L 1159 -1331 
L 581 -1331 
L 581 3500 
L 1159 3500 
L 1159 2969 
Q 1341 3281 1617 3432 
Q 1894 3584 2278 3584 
Q 2916 3584 3314 3078 
Q 3713 2572 3713 1747 
Q 3713 922 3314 415 
Q 2916 -91 2278 -91 
Q 1894 -91 1617 61 
Q 1341 213 1159 525 
z
M 3116 1747 
Q 3116 2381 2855 2742 
Q 2594 3103 2138 3103 
Q 1681 3103 1420 2742 
Q 1159 2381 1159 1747 
Q 1159 1113 1420 752 
Q 1681 391 2138 391 
Q 2594 391 2855 752 
Q 3116 1113 3116 1747 
z
" transform="scale(0.015625)"/>
      </defs>
      <use xlink:href="#DejaVuSans-53"/>
      <use xlink:href="#DejaVuSans-74" x="63.476562"/>
      <use xlink:href="#DejaVuSans-65" x="102.685547"/>
      <use xlink:href="#DejaVuSans-70" x="164.208984"/>
     </g>
    </g>
   </g>
   <g id="matplotlib.axis_2">
    <g id="ytick_1">
     <g id="line2d_7">
      <defs>
       <path id="mb4a69dfa02" d="M 0 0 
L -3.5 0 
" style="stroke: #000000; stroke-width: 0.8"/>
      </defs>
      <g>
       <use xlink:href="#mb4a69dfa02" x="54" y="242.116364" style="stroke: #000000; stroke-width: 0.8"/>
      </g>
     </g>
     <g id="text_8">
      <!-- 0.0 -->
      <g transform="translate(31.096875 245.915582)scale(0.1 -0.1)">
       <defs>
        <path id="DejaVuSans-2e" d="M 684 794 
L 1344 794 
L 1344 0 
L 684 0 
L 684 794 
z
" transform="scale(0.015625)"/>
       </defs>
       <use xlink:href="#DejaVuSans-30"/>
       <use xlink:href="#DejaVuSans-2e" x="63.623047"/>
       <use xlink:href="#DejaVuSans-30" x="95.410156"/>
      </g>
     </g>
    </g>
    <g id="ytick_2">
     <g id="line2d_8">
      <g>
       <use xlink:href="#mb4a69dfa02" x="54" y="202.581818" style="stroke: #000000; stroke-width: 0.8"/>
      </g>
     </g>
     <g id="text_9">
      <!-- 0.2 -->
      <g transform="translate(31.096875 206.381037)scale(0.1 -0.1)">
       <use xlink:href="#DejaVuSans-30"/>
       <use xlink:href="#DejaVuSans-2e" x="63.623047"/>
       <use xlink:href="#DejaVuSans-32" x="95.410156"/>
      </g>
     </g>
    </g>
    <g id="ytick_3">
     <g id="line2d_9">
      <g>
       <use xlink:href="#mb4a69dfa02" x="54" y="163.047273" style="stroke: #000000; stroke-width: 0.8"/>
      </g>
     </g>
     <g id="text_10">
      <!-- 0.4 -->
      <g transform="translate(31.096875 166.846491)scale(0.1 -0.1)">
       <use xlink:href="#DejaVuSans-30"/>
       <use xlink:href="#DejaVuSans-2e" x="63.623047"/>
       <use xlink:href="#DejaVuSans-34" x="95.410156"/>
      </g>
     </g>
    </g>
    <g id="ytick_4">
     <g id="line2d_10">
      <g>
       <use xlink:href="#mb4a69dfa02" x="54" y="123.512727" style="stroke: #000000; stroke-width: 0.8"/>
      </g>
     </g>
     <g id="text_11">
      <!-- 0.6 -->
      <g transform="translate(31.096875 127.311946)scale(0.1 -0.1)">
       <use xlink:href="#DejaVuSans-30"/>
       <use xlink:href="#DejaVuSans-2e" x="63.623047"/>
       <use xlink:href="#DejaVuSans-36" x="95.410156"/>
      </g>
     </g>
    </g>
    <g id="ytick_5">
     <g id="line2d_11">
      <g>
       <use xlink:href="#mb4a69dfa02" x="54" y="83.978182" style="stroke: #000000; stroke-width: 0.8"/>
      </g>
     </g>
     <g id="text_12">
      <!-- 0.8 -->
      <g transform="translate(31.096875 87.777401)scale(0.1 -0.1)">
       <use xlink:href="#DejaVuSans-30"/>
       <use xlink:href="#DejaVuSans-2e" x="63.623047"/>
       <use xlink:href="#DejaVuSans-38" x="95.410156"/>
      </g>
     </g>
    </g>
    <g id="ytick_6">
     <g id="line2d_12">
      <g>
       <use xlink:href="#mb4a69dfa02" x="54" y="44.443636" style="stroke: #000000; stroke-width: 0.8"/>
      </g>
     </g>
     <g id="text_13">
      <!-- 1.0 -->
      <g transform="translate(31.096875 48.242855)scale(0.1 -0.1)">
       <use xlink:href="#DejaVuSans-31"/>
       <use xlink:href="#DejaVuSans-2e" x="63.623047"/>
       <use xlink:href="#DejaVuSans-30" x="95.410156"/>
      </g>
     </g>
    </g>
    <g id="text_14">
     <!-- Cost value -->
     <g transform="translate(25.017187 169.6425)rotate(-90)scale(0.1 -0.1)">
      <defs>
       <path id="DejaVuSans-43" d="M 4122 4306 
L 4122 3641 
Q 3803 3938 3442 4084 
Q 3081 4231 2675 4231 
Q 1875 4231 1450 3742 
Q 1025 3253 1025 2328 
Q 1025 1406 1450 917 
Q 1875 428 2675 428 
Q 3081 428 3442 575 
Q 3803 722 4122 1019 
L 4122 359 
Q 3791 134 3420 21 
Q 3050 -91 2638 -91 
Q 1578 -91 968 557 
Q 359 1206 359 2328 
Q 359 3453 968 4101 
Q 1578 4750 2638 4750 
Q 3056 4750 3426 4639 
Q 3797 4528 4122 4306 
z
" transform="scale(0.015625)"/>
       <path id="DejaVuSans-6f" d="M 1959 3097 
Q 1497 3097 1228 2736 
Q 959 2375 959 1747 
Q 959 1119 1226 758 
Q 1494 397 1959 397 
Q 2419 397 2687 759 
Q 2956 1122 2956 1747 
Q 2956 2369 2687 2733 
Q 2419 3097 1959 3097 
z
M 1959 3584 
Q 2709 3584 3137 3096 
Q 3566 2609 3566 1747 
Q 3566 888 3137 398 
Q 2709 -91 1959 -91 
Q 1206 -91 779 398 
Q 353 888 353 1747 
Q 353 2609 779 3096 
Q 1206 3584 1959 3584 
z
" transform="scale(0.015625)"/>
       <path id="DejaVuSans-73" d="M 2834 3397 
L 2834 2853 
Q 2591 2978 2328 3040 
Q 2066 3103 1784 3103 
Q 1356 3103 1142 2972 
Q 928 2841 928 2578 
Q 928 2378 1081 2264 
Q 1234 2150 1697 2047 
L 1894 2003 
Q 2506 1872 2764 1633 
Q 3022 1394 3022 966 
Q 3022 478 2636 193 
Q 2250 -91 1575 -91 
Q 1294 -91 989 -36 
Q 684 19 347 128 
L 347 722 
Q 666 556 975 473 
Q 1284 391 1588 391 
Q 1994 391 2212 530 
Q 2431 669 2431 922 
Q 2431 1156 2273 1281 
Q 2116 1406 1581 1522 
L 1381 1569 
Q 847 1681 609 1914 
Q 372 2147 372 2553 
Q 372 3047 722 3315 
Q 1072 3584 1716 3584 
Q 2034 3584 2315 3537 
Q 2597 3491 2834 3397 
z
" transform="scale(0.015625)"/>
       <path id="DejaVuSans-20" transform="scale(0.015625)"/>
       <path id="DejaVuSans-76" d="M 191 3500 
L 800 3500 
L 1894 563 
L 2988 3500 
L 3597 3500 
L 2284 0 
L 1503 0 
L 191 3500 
z
" transform="scale(0.015625)"/>
       <path id="DejaVuSans-61" d="M 2194 1759 
Q 1497 1759 1228 1600 
Q 959 1441 959 1056 
Q 959 750 1161 570 
Q 1363 391 1709 391 
Q 2188 391 2477 730 
Q 2766 1069 2766 1631 
L 2766 1759 
L 2194 1759 
z
M 3341 1997 
L 3341 0 
L 2766 0 
L 2766 531 
Q 2569 213 2275 61 
Q 1981 -91 1556 -91 
Q 1019 -91 701 211 
Q 384 513 384 1019 
Q 384 1609 779 1909 
Q 1175 2209 1959 2209 
L 2766 2209 
L 2766 2266 
Q 2766 2663 2505 2880 
Q 2244 3097 1772 3097 
Q 1472 3097 1187 3025 
Q 903 2953 641 2809 
L 641 3341 
Q 956 3463 1253 3523 
Q 1550 3584 1831 3584 
Q 2591 3584 2966 3190 
Q 3341 2797 3341 1997 
z
" transform="scale(0.015625)"/>
       <path id="DejaVuSans-6c" d="M 603 4863 
L 1178 4863 
L 1178 0 
L 603 0 
L 603 4863 
z
" transform="scale(0.015625)"/>
       <path id="DejaVuSans-75" d="M 544 1381 
L 544 3500 
L 1119 3500 
L 1119 1403 
Q 1119 906 1312 657 
Q 1506 409 1894 409 
Q 2359 409 2629 706 
Q 2900 1003 2900 1516 
L 2900 3500 
L 3475 3500 
L 3475 0 
L 2900 0 
L 2900 538 
Q 2691 219 2414 64 
Q 2138 -91 1772 -91 
Q 1169 -91 856 284 
Q 544 659 544 1381 
z
M 1991 3584 
L 1991 3584 
z
" transform="scale(0.015625)"/>
      </defs>
      <use xlink:href="#DejaVuSans-43"/>
      <use xlink:href="#DejaVuSans-6f" x="69.824219"/>
      <use xlink:href="#DejaVuSans-73" x="131.005859"/>
      <use xlink:href="#DejaVuSans-74" x="183.105469"/>
      <use xlink:href="#DejaVuSans-20" x="222.314453"/>
      <use xlink:href="#DejaVuSans-76" x="254.101562"/>
      <use xlink:href="#DejaVuSans-61" x="313.28125"/>
      <use xlink:href="#DejaVuSans-6c" x="374.560547"/>
      <use xlink:href="#DejaVuSans-75" x="402.34375"/>
      <use xlink:href="#DejaVuSans-65" x="465.722656"/>
     </g>
    </g>
   </g>
   <g id="line2d_13">
    <path d="M 69.218182 48.495927 
L 72.292562 48.772669 
L 75.366942 49.049411 
L 78.441322 50.097076 
L 81.515702 50.769164 
L 84.590083 51.895898 
L 87.664463 53.279607 
L 90.738843 54.010996 
L 93.813223 55.394705 
L 96.887603 56.106327 
L 99.961983 58.142356 
L 103.036364 59.664436 
L 106.110744 61.581862 
L 109.185124 63.400451 
L 112.259504 66.167869 
L 115.333884 68.184131 
L 118.408264 68.955055 
L 121.482645 73.48176 
L 124.557025 77.138705 
L 127.631405 79.075898 
L 130.705785 83.464233 
L 133.780165 84.887476 
L 136.854545 87.200247 
L 139.928926 90.185105 
L 143.003306 94.217629 
L 146.077686 96.490865 
L 149.152066 98.072247 
L 152.226446 101.175709 
L 155.300826 104.35824 
L 158.375207 107.382633 
L 161.449587 109.418662 
L 164.523967 112.957004 
L 167.598347 112.897702 
L 170.672727 116.119767 
L 173.747107 119.381367 
L 176.821488 118.729047 
L 179.895868 120.310429 
L 182.970248 122.919709 
L 186.044628 123.473193 
L 189.119008 124.955738 
L 192.193388 127.387113 
L 195.267769 128.948727 
L 198.342149 129.383607 
L 201.416529 131.399869 
L 204.490909 130.806851 
L 207.565289 133.574269 
L 210.639669 134.068451 
L 213.71405 134.819607 
L 216.78843 137.982371 
L 219.86281 135.570764 
L 222.93719 139.781193 
L 226.01157 140.354444 
L 229.08595 141.75792 
L 232.160331 141.006764 
L 235.234711 144.347433 
L 238.309091 144.821847 
L 241.383471 143.141629 
L 244.457851 142.84512 
L 247.532231 143.359069 
L 250.606612 144.900916 
L 253.680992 147.095084 
L 256.755372 149.625295 
L 259.829752 146.996247 
L 262.904132 150.356684 
L 265.978512 149.506691 
L 269.052893 146.679971 
L 272.127273 151.602022 
L 275.201653 150.257847 
L 278.276033 150.850865 
L 281.350413 152.926429 
L 284.424793 152.372945 
L 287.499174 152.788058 
L 290.573554 155.140364 
L 293.647934 155.792684 
L 296.722314 155.2392 
L 299.796694 155.140364 
L 302.871074 155.179898 
L 305.945455 157.374065 
L 309.019835 156.958953 
L 312.094215 160.141484 
L 315.168595 161.347287 
L 318.242975 160.358924 
L 321.317355 161.386822 
L 324.391736 162.948436 
L 327.466116 159.943811 
L 330.540496 163.027505 
L 333.614876 163.739127 
L 336.689256 165.933295 
L 339.763636 167.593745 
L 342.838017 165.577484 
L 345.912397 168.206531 
L 348.986777 166.961193 
L 352.061157 168.680945 
L 355.135537 170.02512 
L 358.209917 170.479767 
L 361.284298 173.701833 
L 364.358678 173.306487 
L 367.433058 173.523927 
L 370.507438 175.935535 
L 373.581818 175.540189 
" clip-path="url(#p2bd1e3e638)" style="fill: none; stroke: #1f77b4; stroke-width: 1.5; stroke-linecap: square"/>
   </g>
   <g id="line2d_14">
    <path d="M 69.218182 78.91776 
L 72.292562 106.394269 
L 75.366942 121.931345 
L 78.441322 132.289396 
L 81.515702 142.430007 
L 84.590083 144.821847 
L 87.664463 149.902036 
L 90.738843 160.200785 
L 93.813223 169.669309 
L 96.887603 178.525047 
L 99.961983 183.308727 
L 103.036364 189.436582 
L 106.110744 192.065629 
L 109.185124 195.722575 
L 112.259504 200.150444 
L 115.333884 200.703927 
L 118.408264 209.401527 
L 121.482645 214.363113 
L 124.557025 220.431665 
L 127.631405 223.29792 
L 130.705785 226.104873 
L 133.780165 225.116509 
L 136.854545 224.266516 
L 139.928926 225.156044 
L 143.003306 225.788596 
L 146.077686 228.022298 
L 149.152066 227.409513 
L 152.226446 226.480451 
L 155.300826 227.330444 
L 158.375207 228.51648 
L 161.449587 229.030429 
L 164.523967 228.536247 
L 167.598347 228.417644 
L 170.672727 228.496713 
L 173.747107 228.022298 
L 176.821488 228.832756 
L 179.895868 230.03856 
L 182.970248 228.773455 
L 186.044628 228.536247 
L 189.119008 228.812989 
L 192.193388 229.069964 
L 195.267769 228.832756 
L 198.342149 228.694385 
L 201.416529 228.061833 
L 204.490909 228.694385 
L 207.565289 228.812989 
L 210.639669 228.892058 
L 213.71405 228.101367 
L 216.78843 229.445542 
L 219.86281 229.030429 
L 222.93719 228.753687 
L 226.01157 228.892058 
L 229.08595 229.544378 
L 232.160331 228.812989 
L 235.234711 229.069964 
L 238.309091 228.318807 
L 241.383471 228.29904 
L 244.457851 228.635084 
L 247.532231 228.852524 
L 250.606612 228.694385 
L 253.680992 228.51648 
L 256.755372 228.971127 
L 259.829752 228.615316 
L 262.904132 227.903695 
L 265.978512 228.437411 
L 269.052893 229.38624 
L 272.127273 228.51648 
L 275.201653 229.030429 
L 278.276033 228.73392 
L 281.350413 228.852524 
L 284.424793 228.160669 
L 287.499174 228.318807 
L 290.573554 229.069964 
L 293.647934 230.018793 
L 296.722314 227.943229 
L 299.796694 229.366473 
L 302.871074 229.208335 
L 305.945455 228.931593 
L 309.019835 229.544378 
L 312.094215 228.259505 
L 315.168595 228.714153 
L 318.242975 227.824625 
L 321.317355 228.279273 
L 324.391736 229.425775 
L 327.466116 229.149033 
L 330.540496 228.654851 
L 333.614876 228.714153 
L 336.689256 228.476945 
L 339.763636 229.326938 
L 342.838017 228.812989 
L 345.912397 228.121135 
L 348.986777 228.911825 
L 352.061157 227.962996 
L 355.135537 228.73392 
L 358.209917 227.725789 
L 361.284298 228.397876 
L 364.358678 229.38624 
L 367.433058 229.544378 
L 370.507438 228.635084 
L 373.581818 228.753687 
" clip-path="url(#p2bd1e3e638)" style="fill: none; stroke: #ff7f0e; stroke-width: 1.5; stroke-linecap: square"/>
   </g>
   <g id="line2d_15">
    <path d="M 69.218182 50.21568 
L 72.292562 52.60752 
L 75.366942 59.802807 
L 78.441322 67.156233 
L 81.515702 78.364276 
L 84.590083 89.78976 
L 87.664463 100.978036 
L 90.738843 110.031447 
L 93.813223 118.373236 
L 96.887603 122.40576 
L 99.961983 127.84176 
L 103.036364 131.617309 
L 106.110744 137.250982 
L 109.185124 140.730022 
L 112.259504 143.853251 
L 115.333884 142.983491 
L 118.408264 148.755535 
L 121.482645 151.147375 
L 124.557025 154.053164 
L 127.631405 157.215927 
L 130.705785 159.746138 
L 133.780165 163.027505 
L 136.854545 169.471636 
L 139.928926 172.911142 
L 143.003306 178.445978 
L 146.077686 181.193629 
L 149.152066 187.183113 
L 152.226446 189.061004 
L 155.300826 193.390036 
L 158.375207 195.109789 
L 161.449587 195.307462 
L 164.523967 197.956276 
L 167.598347 199.083011 
L 170.672727 199.873702 
L 173.747107 200.723695 
L 176.821488 200.150444 
L 179.895868 202.226007 
L 182.970248 202.443447 
L 186.044628 204.064364 
L 189.119008 201.909731 
L 192.193388 204.123665 
L 195.267769 204.736451 
L 198.342149 205.566676 
L 201.416529 205.46784 
L 204.490909 207.029455 
L 207.565289 208.175956 
L 210.639669 206.792247 
L 213.71405 208.670138 
L 216.78843 209.618967 
L 219.86281 209.105018 
L 222.93719 210.805004 
L 226.01157 210.587564 
L 229.08595 211.714298 
L 232.160331 213.967767 
L 235.234711 212.366618 
L 238.309091 213.552655 
L 241.383471 214.975898 
L 244.457851 216.675884 
L 247.532231 216.320073 
L 250.606612 216.715418 
L 253.680992 218.039825 
L 256.755372 218.237498 
L 259.829752 218.474705 
L 262.904132 218.988655 
L 265.978512 219.403767 
L 269.052893 219.16656 
L 272.127273 220.214225 
L 275.201653 221.360727 
L 278.276033 221.736305 
L 281.350413 220.649105 
L 284.424793 220.807244 
L 287.499174 220.431665 
L 290.573554 222.072349 
L 293.647934 221.064218 
L 296.722314 221.617702 
L 299.796694 221.736305 
L 302.871074 222.408393 
L 305.945455 221.617702 
L 309.019835 221.795607 
L 312.094215 222.388625 
L 315.168595 221.854909 
L 318.242975 222.309556 
L 321.317355 223.199084 
L 324.391736 223.179316 
L 327.466116 222.388625 
L 330.540496 222.86304 
L 333.614876 223.396756 
L 336.689256 223.08048 
L 339.763636 223.970007 
L 342.838017 223.040945 
L 345.912397 223.436291 
L 348.986777 224.483956 
L 352.061157 222.467695 
L 355.135537 223.535127 
L 358.209917 224.582793 
L 361.284298 223.851404 
L 364.358678 224.681629 
L 367.433058 224.226982 
L 370.507438 223.851404 
L 373.581818 223.95024 
" clip-path="url(#p2bd1e3e638)" style="fill: none; stroke: #2ca02c; stroke-width: 1.5; stroke-linecap: square"/>
   </g>
   <g id="line2d_16">
    <path d="M 69.218182 48.456393 
L 72.292562 49.069178 
L 75.366942 50.393585 
L 78.441322 50.769164 
L 81.515702 53.022633 
L 84.590083 53.101702 
L 87.664463 55.572611 
L 90.738843 57.549338 
L 93.813223 58.280727 
L 96.887603 60.43536 
L 99.961983 64.013236 
L 103.036364 66.0888 
L 106.110744 68.836451 
L 109.185124 71.939913 
L 112.259504 75.517789 
L 115.333884 77.415447 
L 118.408264 79.115433 
L 121.482645 85.638633 
L 124.557025 89.097905 
L 127.631405 91.568815 
L 130.705785 94.612975 
L 133.780165 96.846676 
L 136.854545 102.796625 
L 139.928926 105.781484 
L 143.003306 109.201222 
L 146.077686 114.913964 
L 149.152066 117.463942 
L 152.226446 121.476698 
L 155.300826 126.675491 
L 158.375207 129.976625 
L 161.449587 134.384727 
L 164.523967 138.298647 
L 167.598347 141.678851 
L 170.672727 144.070691 
L 173.747107 150.712495 
L 176.821488 152.452015 
L 179.895868 156.820582 
L 182.970248 161.090313 
L 186.044628 164.648422 
L 189.119008 169.550705 
L 192.193388 174.235549 
L 195.267769 176.449484 
L 198.342149 181.588975 
L 201.416529 185.02848 
L 204.490909 188.112175 
L 207.565289 192.006327 
L 210.639669 194.931884 
L 213.71405 197.42256 
L 216.78843 200.605091 
L 219.86281 203.016698 
L 222.93719 207.148058 
L 226.01157 208.848044 
L 229.08595 209.994545 
L 232.160331 211.635229 
L 235.234711 212.920102 
L 238.309091 215.430545 
L 241.383471 216.300305 
L 244.457851 217.446807 
L 247.532231 218.593309 
L 250.606612 218.178196 
L 253.680992 219.067724 
L 256.755372 220.866545 
L 259.829752 220.807244 
L 262.904132 220.728175 
L 265.978512 222.368858 
L 269.052893 222.289789 
L 272.127273 222.250255 
L 275.201653 223.060713 
L 278.276033 224.642095 
L 281.350413 224.444422 
L 284.424793 224.622327 
L 287.499174 224.108378 
L 290.573554 224.582793 
L 293.647934 225.274647 
L 296.722314 225.274647 
L 299.796694 225.333949 
L 302.871074 224.859535 
L 305.945455 225.768829 
L 309.019835 226.12464 
L 312.094215 224.938604 
L 315.168595 225.551389 
L 318.242975 225.946735 
L 321.317355 227.152538 
L 324.391736 225.9072 
L 327.466116 226.401382 
L 330.540496 226.065338 
L 333.614876 226.836262 
L 336.689256 226.065338 
L 339.763636 227.113004 
L 342.838017 226.144407 
L 345.912397 227.567651 
L 348.986777 225.946735 
L 352.061157 227.844393 
L 355.135537 227.42928 
L 358.209917 226.796727 
L 361.284298 227.152538 
L 364.358678 227.844393 
L 367.433058 227.64672 
L 370.507438 227.310676 
L 373.581818 227.073469 
" clip-path="url(#p2bd1e3e638)" style="fill: none; stroke: #d62728; stroke-width: 1.5; stroke-linecap: square"/>
   </g>
   <g id="line2d_17">
    <path d="M 69.218182 70.042255 
L 72.292562 89.928131 
L 75.366942 105.840785 
L 78.441322 111.494225 
L 81.515702 109.003549 
L 84.590083 107.224495 
L 87.664463 108.27216 
L 90.738843 113.391884 
L 93.813223 120.349964 
L 96.887603 126.794095 
L 99.961983 125.054575 
L 103.036364 122.801105 
L 106.110744 122.168553 
L 109.185124 125.489455 
L 112.259504 133.771942 
L 115.333884 141.856756 
L 118.408264 149.486924 
L 121.482645 160.655433 
L 124.557025 165.617018 
L 127.631405 170.380931 
L 130.705785 176.666924 
L 133.780165 180.877353 
L 136.854545 185.127316 
L 139.928926 189.416815 
L 143.003306 195.070255 
L 146.077686 196.710938 
L 149.152066 200.486487 
L 152.226446 201.573687 
L 155.300826 205.586444 
L 158.375207 205.981789 
L 161.449587 202.680655 
L 164.523967 198.233018 
L 167.598347 194.576073 
L 170.672727 192.204 
L 173.747107 180.89712 
L 176.821488 164.253076 
L 179.895868 175.02624 
L 182.970248 183.644771 
L 186.044628 170.46 
L 189.119008 150.376451 
L 192.193388 132.62544 
L 195.267769 124.184815 
L 198.342149 121.812742 
L 201.416529 125.608058 
L 204.490909 135.353324 
L 207.565289 143.833484 
L 210.639669 148.419491 
L 213.71405 153.914793 
L 216.78843 157.453135 
L 219.86281 162.889135 
L 222.93719 165.45888 
L 226.01157 172.733236 
L 229.08595 179.355273 
L 232.160331 187.8552 
L 235.234711 193.034225 
L 238.309091 197.42256 
L 241.383471 202.048102 
L 244.457851 203.688785 
L 247.532231 204.064364 
L 250.606612 202.384145 
L 253.680992 203.332975 
L 256.755372 199.063244 
L 259.829752 196.671404 
L 262.904132 202.245775 
L 265.978512 205.013193 
L 269.052893 202.364378 
L 272.127273 199.478356 
L 275.201653 196.513265 
L 278.276033 192.164465 
L 281.350413 192.876087 
L 284.424793 192.816785 
L 287.499174 193.093527 
L 290.573554 193.785382 
L 293.647934 195.880713 
L 296.722314 198.173716 
L 299.796694 202.562051 
L 302.871074 203.570182 
L 305.945455 208.867811 
L 309.019835 211.141047 
L 312.094215 214.086371 
L 315.168595 217.486342 
L 318.242975 217.110764 
L 321.317355 219.364233 
L 324.391736 219.423535 
L 327.466116 220.570036 
L 330.540496 222.329324 
L 333.614876 222.052582 
L 336.689256 222.408393 
L 339.763636 222.309556 
L 342.838017 223.436291 
L 345.912397 223.495593 
L 348.986777 223.238618 
L 352.061157 223.060713 
L 355.135537 222.961876 
L 358.209917 223.278153 
L 361.284298 224.701396 
L 364.358678 224.760698 
L 367.433058 225.729295 
L 370.507438 225.432785 
L 373.581818 224.839767 
" clip-path="url(#p2bd1e3e638)" style="fill: none; stroke: #9467bd; stroke-width: 1.5; stroke-linecap: square"/>
   </g>
   <g id="patch_3">
    <path d="M 54 252 
L 54 34.56 
" style="fill: none; stroke: #000000; stroke-width: 0.8; stroke-linejoin: miter; stroke-linecap: square"/>
   </g>
   <g id="patch_4">
    <path d="M 388.8 252 
L 388.8 34.56 
" style="fill: none; stroke: #000000; stroke-width: 0.8; stroke-linejoin: miter; stroke-linecap: square"/>
   </g>
   <g id="patch_5">
    <path d="M 54 252 
L 388.8 252 
" style="fill: none; stroke: #000000; stroke-width: 0.8; stroke-linejoin: miter; stroke-linecap: square"/>
   </g>
   <g id="patch_6">
    <path d="M 54 34.56 
L 388.8 34.56 
" style="fill: none; stroke: #000000; stroke-width: 0.8; stroke-linejoin: miter; stroke-linecap: square"/>
   </g>
   <g id="legend_1">
    <g id="patch_7">
     <path d="M 290.1325 99.6725 
L 383.2 99.6725 
Q 384.8 99.6725 384.8 98.0725 
L 384.8 40.16 
Q 384.8 38.56 383.2 38.56 
L 290.1325 38.56 
Q 288.5325 38.56 288.5325 40.16 
L 288.5325 98.0725 
Q 288.5325 99.6725 290.1325 99.6725 
z
" style="fill: #ffffff; opacity: 0.8; stroke: #cccccc; stroke-linejoin: miter"/>
    </g>
    <g id="line2d_18">
     <path d="M 291.7325 45.03875 
L 299.7325 45.03875 
L 307.7325 45.03875 
" style="fill: none; stroke: #1f77b4; stroke-width: 1.5; stroke-linecap: square"/>
    </g>
    <g id="text_15">
     <!-- SGD -->
     <g transform="translate(314.1325 47.83875)scale(0.08 -0.08)">
      <defs>
       <path id="DejaVuSans-47" d="M 3809 666 
L 3809 1919 
L 2778 1919 
L 2778 2438 
L 4434 2438 
L 4434 434 
Q 4069 175 3628 42 
Q 3188 -91 2688 -91 
Q 1594 -91 976 548 
Q 359 1188 359 2328 
Q 359 3472 976 4111 
Q 1594 4750 2688 4750 
Q 3144 4750 3555 4637 
Q 3966 4525 4313 4306 
L 4313 3634 
Q 3963 3931 3569 4081 
Q 3175 4231 2741 4231 
Q 1884 4231 1454 3753 
Q 1025 3275 1025 2328 
Q 1025 1384 1454 906 
Q 1884 428 2741 428 
Q 3075 428 3337 486 
Q 3600 544 3809 666 
z
" transform="scale(0.015625)"/>
       <path id="DejaVuSans-44" d="M 1259 4147 
L 1259 519 
L 2022 519 
Q 2988 519 3436 956 
Q 3884 1394 3884 2338 
Q 3884 3275 3436 3711 
Q 2988 4147 2022 4147 
L 1259 4147 
z
M 628 4666 
L 1925 4666 
Q 3281 4666 3915 4102 
Q 4550 3538 4550 2338 
Q 4550 1131 3912 565 
Q 3275 0 1925 0 
L 628 0 
L 628 4666 
z
" transform="scale(0.015625)"/>
      </defs>
      <use xlink:href="#DejaVuSans-53"/>
      <use xlink:href="#DejaVuSans-47" x="63.476562"/>
      <use xlink:href="#DejaVuSans-44" x="140.966797"/>
     </g>
    </g>
    <g id="line2d_19">
     <path d="M 291.7325 56.78125 
L 299.7325 56.78125 
L 307.7325 56.78125 
" style="fill: none; stroke: #ff7f0e; stroke-width: 1.5; stroke-linecap: square"/>
    </g>
    <g id="text_16">
     <!-- Adam -->
     <g transform="translate(314.1325 59.58125)scale(0.08 -0.08)">
      <defs>
       <path id="DejaVuSans-41" d="M 2188 4044 
L 1331 1722 
L 3047 1722 
L 2188 4044 
z
M 1831 4666 
L 2547 4666 
L 4325 0 
L 3669 0 
L 3244 1197 
L 1141 1197 
L 716 0 
L 50 0 
L 1831 4666 
z
" transform="scale(0.015625)"/>
       <path id="DejaVuSans-64" d="M 2906 2969 
L 2906 4863 
L 3481 4863 
L 3481 0 
L 2906 0 
L 2906 525 
Q 2725 213 2448 61 
Q 2172 -91 1784 -91 
Q 1150 -91 751 415 
Q 353 922 353 1747 
Q 353 2572 751 3078 
Q 1150 3584 1784 3584 
Q 2172 3584 2448 3432 
Q 2725 3281 2906 2969 
z
M 947 1747 
Q 947 1113 1208 752 
Q 1469 391 1925 391 
Q 2381 391 2643 752 
Q 2906 1113 2906 1747 
Q 2906 2381 2643 2742 
Q 2381 3103 1925 3103 
Q 1469 3103 1208 2742 
Q 947 2381 947 1747 
z
" transform="scale(0.015625)"/>
       <path id="DejaVuSans-6d" d="M 3328 2828 
Q 3544 3216 3844 3400 
Q 4144 3584 4550 3584 
Q 5097 3584 5394 3201 
Q 5691 2819 5691 2113 
L 5691 0 
L 5113 0 
L 5113 2094 
Q 5113 2597 4934 2840 
Q 4756 3084 4391 3084 
Q 3944 3084 3684 2787 
Q 3425 2491 3425 1978 
L 3425 0 
L 2847 0 
L 2847 2094 
Q 2847 2600 2669 2842 
Q 2491 3084 2119 3084 
Q 1678 3084 1418 2786 
Q 1159 2488 1159 1978 
L 1159 0 
L 581 0 
L 581 3500 
L 1159 3500 
L 1159 2956 
Q 1356 3278 1631 3431 
Q 1906 3584 2284 3584 
Q 2666 3584 2933 3390 
Q 3200 3197 3328 2828 
z
" transform="scale(0.015625)"/>
      </defs>
      <use xlink:href="#DejaVuSans-41"/>
      <use xlink:href="#DejaVuSans-64" x="66.658203"/>
      <use xlink:href="#DejaVuSans-61" x="130.134766"/>
      <use xlink:href="#DejaVuSans-6d" x="191.414062"/>
     </g>
    </g>
    <g id="line2d_20">
     <path d="M 291.7325 68.52375 
L 299.7325 68.52375 
L 307.7325 68.52375 
" style="fill: none; stroke: #2ca02c; stroke-width: 1.5; stroke-linecap: square"/>
    </g>
    <g id="text_17">
     <!-- QNG-QFSM -->
     <g transform="translate(314.1325 71.32375)scale(0.08 -0.08)">
      <defs>
       <path id="DejaVuSans-51" d="M 2522 4238 
Q 1834 4238 1429 3725 
Q 1025 3213 1025 2328 
Q 1025 1447 1429 934 
Q 1834 422 2522 422 
Q 3209 422 3611 934 
Q 4013 1447 4013 2328 
Q 4013 3213 3611 3725 
Q 3209 4238 2522 4238 
z
M 3406 84 
L 4238 -825 
L 3475 -825 
L 2784 -78 
Q 2681 -84 2626 -87 
Q 2572 -91 2522 -91 
Q 1538 -91 948 567 
Q 359 1225 359 2328 
Q 359 3434 948 4092 
Q 1538 4750 2522 4750 
Q 3503 4750 4090 4092 
Q 4678 3434 4678 2328 
Q 4678 1516 4351 937 
Q 4025 359 3406 84 
z
" transform="scale(0.015625)"/>
       <path id="DejaVuSans-4e" d="M 628 4666 
L 1478 4666 
L 3547 763 
L 3547 4666 
L 4159 4666 
L 4159 0 
L 3309 0 
L 1241 3903 
L 1241 0 
L 628 0 
L 628 4666 
z
" transform="scale(0.015625)"/>
       <path id="DejaVuSans-2d" d="M 313 2009 
L 1997 2009 
L 1997 1497 
L 313 1497 
L 313 2009 
z
" transform="scale(0.015625)"/>
       <path id="DejaVuSans-46" d="M 628 4666 
L 3309 4666 
L 3309 4134 
L 1259 4134 
L 1259 2759 
L 3109 2759 
L 3109 2228 
L 1259 2228 
L 1259 0 
L 628 0 
L 628 4666 
z
" transform="scale(0.015625)"/>
       <path id="DejaVuSans-4d" d="M 628 4666 
L 1569 4666 
L 2759 1491 
L 3956 4666 
L 4897 4666 
L 4897 0 
L 4281 0 
L 4281 4097 
L 3078 897 
L 2444 897 
L 1241 4097 
L 1241 0 
L 628 0 
L 628 4666 
z
" transform="scale(0.015625)"/>
      </defs>
      <use xlink:href="#DejaVuSans-51"/>
      <use xlink:href="#DejaVuSans-4e" x="78.710938"/>
      <use xlink:href="#DejaVuSans-47" x="153.515625"/>
      <use xlink:href="#DejaVuSans-2d" x="231.005859"/>
      <use xlink:href="#DejaVuSans-51" x="270.714844"/>
      <use xlink:href="#DejaVuSans-46" x="349.425781"/>
      <use xlink:href="#DejaVuSans-53" x="405.195312"/>
      <use xlink:href="#DejaVuSans-4d" x="468.671875"/>
     </g>
    </g>
    <g id="line2d_21">
     <path d="M 291.7325 80.26625 
L 299.7325 80.26625 
L 307.7325 80.26625 
" style="fill: none; stroke: #d62728; stroke-width: 1.5; stroke-linecap: square"/>
    </g>
    <g id="text_18">
     <!-- QNG-QFIM -->
     <g transform="translate(314.1325 83.06625)scale(0.08 -0.08)">
      <defs>
       <path id="DejaVuSans-49" d="M 628 4666 
L 1259 4666 
L 1259 0 
L 628 0 
L 628 4666 
z
" transform="scale(0.015625)"/>
      </defs>
      <use xlink:href="#DejaVuSans-51"/>
      <use xlink:href="#DejaVuSans-4e" x="78.710938"/>
      <use xlink:href="#DejaVuSans-47" x="153.515625"/>
      <use xlink:href="#DejaVuSans-2d" x="231.005859"/>
      <use xlink:href="#DejaVuSans-51" x="270.714844"/>
      <use xlink:href="#DejaVuSans-46" x="349.425781"/>
      <use xlink:href="#DejaVuSans-49" x="406.945312"/>
      <use xlink:href="#DejaVuSans-4d" x="436.4375"/>
     </g>
    </g>
    <g id="line2d_22">
     <path d="M 291.7325 92.00875 
L 299.7325 92.00875 
L 307.7325 92.00875 
" style="fill: none; stroke: #9467bd; stroke-width: 1.5; stroke-linecap: square"/>
    </g>
    <g id="text_19">
     <!-- Adam QNG-QFIM -->
     <g transform="translate(314.1325 94.80875)scale(0.08 -0.08)">
      <use xlink:href="#DejaVuSans-41"/>
      <use xlink:href="#DejaVuSans-64" x="66.658203"/>
      <use xlink:href="#DejaVuSans-61" x="130.134766"/>
      <use xlink:href="#DejaVuSans-6d" x="191.414062"/>
      <use xlink:href="#DejaVuSans-20" x="288.826172"/>
      <use xlink:href="#DejaVuSans-51" x="320.613281"/>
      <use xlink:href="#DejaVuSans-4e" x="399.324219"/>
      <use xlink:href="#DejaVuSans-47" x="474.128906"/>
      <use xlink:href="#DejaVuSans-2d" x="551.619141"/>
      <use xlink:href="#DejaVuSans-51" x="591.328125"/>
      <use xlink:href="#DejaVuSans-46" x="670.039062"/>
      <use xlink:href="#DejaVuSans-49" x="727.558594"/>
      <use xlink:href="#DejaVuSans-4d" x="757.050781"/>
     </g>
    </g>
   </g>
  </g>
 </g>
 <defs>
  <clipPath id="p2bd1e3e638">
   <rect x="54" y="34.56" width="334.8" height="217.44"/>
  </clipPath>
 </defs>
</svg>
