<?xml version="1.0" encoding="utf-8" standalone="no"?>
<!DOCTYPE svg PUBLIC "-//W3C//DTD SVG 1.1//EN"
  "http://www.w3.org/Graphics/SVG/1.1/DTD/svg11.dtd">
<svg xmlns:xlink="http://www.w3.org/1999/xlink" width="432pt" height="288pt" viewBox="0 0 432 288" xmlns="http://www.w3.org/2000/svg" version="1.1">
 <metadata>
  <rdf:RDF xmlns:dc="http://purl.org/dc/elements/1.1/" xmlns:cc="http://creativecommons.org/ns#" xmlns:rdf="http://www.w3.org/1999/02/22-rdf-syntax-ns#">
   <cc:Work>
    <dc:type rdf:resource="http://purl.org/dc/dcmitype/StillImage"/>
    <dc:date>2022-04-18T15:39:33.228505</dc:date>
    <dc:format>image/svg+xml</dc:format>
    <dc:creator>
     <cc:Agent>
      <dc:title>Matplotlib v3.5.1, https://matplotlib.org/</dc:title>
     </cc:Agent>
    </dc:creator>
   </cc:Work>
  </rdf:RDF>
 </metadata>
 <defs>
  <style type="text/css">*{stroke-linejoin: round; stroke-linecap: butt}</style>
 </defs>
 <g id="figure_1">
  <g id="patch_1">
   <path d="M 0 288 
L 432 288 
L 432 0 
L 0 0 
L 0 288 
z
" style="fill: none"/>
  </g>
  <g id="axes_1">
   <g id="patch_2">
    <path d="M 54 252 
L 388.8 252 
L 388.8 34.56 
L 54 34.56 
z
" style="fill: #ffffff"/>
   </g>
   <g id="matplotlib.axis_1">
    <g id="xtick_1">
     <g id="line2d_1">
      <defs>
       <path id="m54a28bd68e" d="M 0 0 
L 0 3.5 
" style="stroke: #000000; stroke-width: 0.8"/>
      </defs>
      <g>
       <use xlink:href="#m54a28bd68e" x="69.218182" y="252" style="stroke: #000000; stroke-width: 0.8"/>
      </g>
     </g>
     <g id="text_1">
      <!-- 0 -->
      <g transform="translate(66.036932 266.598437)scale(0.1 -0.1)">
       <defs>
        <path id="DejaVuSans-30" d="M 2034 4250 
Q 1547 4250 1301 3770 
Q 1056 3291 1056 2328 
Q 1056 1369 1301 889 
Q 1547 409 2034 409 
Q 2525 409 2770 889 
Q 3016 1369 3016 2328 
Q 3016 3291 2770 3770 
Q 2525 4250 2034 4250 
z
M 2034 4750 
Q 2819 4750 3233 4129 
Q 3647 3509 3647 2328 
Q 3647 1150 3233 529 
Q 2819 -91 2034 -91 
Q 1250 -91 836 529 
Q 422 1150 422 2328 
Q 422 3509 836 4129 
Q 1250 4750 2034 4750 
z
" transform="scale(0.015625)"/>
       </defs>
       <use xlink:href="#DejaVuSans-30"/>
      </g>
     </g>
    </g>
    <g id="xtick_2">
     <g id="line2d_2">
      <g>
       <use xlink:href="#m54a28bd68e" x="130.705785" y="252" style="stroke: #000000; stroke-width: 0.8"/>
      </g>
     </g>
     <g id="text_2">
      <!-- 20 -->
      <g transform="translate(124.343285 266.598437)scale(0.1 -0.1)">
       <defs>
        <path id="DejaVuSans-32" d="M 1228 531 
L 3431 531 
L 3431 0 
L 469 0 
L 469 531 
Q 828 903 1448 1529 
Q 2069 2156 2228 2338 
Q 2531 2678 2651 2914 
Q 2772 3150 2772 3378 
Q 2772 3750 2511 3984 
Q 2250 4219 1831 4219 
Q 1534 4219 1204 4116 
Q 875 4013 500 3803 
L 500 4441 
Q 881 4594 1212 4672 
Q 1544 4750 1819 4750 
Q 2544 4750 2975 4387 
Q 3406 4025 3406 3419 
Q 3406 3131 3298 2873 
Q 3191 2616 2906 2266 
Q 2828 2175 2409 1742 
Q 1991 1309 1228 531 
z
" transform="scale(0.015625)"/>
       </defs>
       <use xlink:href="#DejaVuSans-32"/>
       <use xlink:href="#DejaVuSans-30" x="63.623047"/>
      </g>
     </g>
    </g>
    <g id="xtick_3">
     <g id="line2d_3">
      <g>
       <use xlink:href="#m54a28bd68e" x="192.193388" y="252" style="stroke: #000000; stroke-width: 0.8"/>
      </g>
     </g>
     <g id="text_3">
      <!-- 40 -->
      <g transform="translate(185.830888 266.598437)scale(0.1 -0.1)">
       <defs>
        <path id="DejaVuSans-34" d="M 2419 4116 
L 825 1625 
L 2419 1625 
L 2419 4116 
z
M 2253 4666 
L 3047 4666 
L 3047 1625 
L 3713 1625 
L 3713 1100 
L 3047 1100 
L 3047 0 
L 2419 0 
L 2419 1100 
L 313 1100 
L 313 1709 
L 2253 4666 
z
" transform="scale(0.015625)"/>
       </defs>
       <use xlink:href="#DejaVuSans-34"/>
       <use xlink:href="#DejaVuSans-30" x="63.623047"/>
      </g>
     </g>
    </g>
    <g id="xtick_4">
     <g id="line2d_4">
      <g>
       <use xlink:href="#m54a28bd68e" x="253.680992" y="252" style="stroke: #000000; stroke-width: 0.8"/>
      </g>
     </g>
     <g id="text_4">
      <!-- 60 -->
      <g transform="translate(247.318492 266.598437)scale(0.1 -0.1)">
       <defs>
        <path id="DejaVuSans-36" d="M 2113 2584 
Q 1688 2584 1439 2293 
Q 1191 2003 1191 1497 
Q 1191 994 1439 701 
Q 1688 409 2113 409 
Q 2538 409 2786 701 
Q 3034 994 3034 1497 
Q 3034 2003 2786 2293 
Q 2538 2584 2113 2584 
z
M 3366 4563 
L 3366 3988 
Q 3128 4100 2886 4159 
Q 2644 4219 2406 4219 
Q 1781 4219 1451 3797 
Q 1122 3375 1075 2522 
Q 1259 2794 1537 2939 
Q 1816 3084 2150 3084 
Q 2853 3084 3261 2657 
Q 3669 2231 3669 1497 
Q 3669 778 3244 343 
Q 2819 -91 2113 -91 
Q 1303 -91 875 529 
Q 447 1150 447 2328 
Q 447 3434 972 4092 
Q 1497 4750 2381 4750 
Q 2619 4750 2861 4703 
Q 3103 4656 3366 4563 
z
" transform="scale(0.015625)"/>
       </defs>
       <use xlink:href="#DejaVuSans-36"/>
       <use xlink:href="#DejaVuSans-30" x="63.623047"/>
      </g>
     </g>
    </g>
    <g id="xtick_5">
     <g id="line2d_5">
      <g>
       <use xlink:href="#m54a28bd68e" x="315.168595" y="252" style="stroke: #000000; stroke-width: 0.8"/>
      </g>
     </g>
     <g id="text_5">
      <!-- 80 -->
      <g transform="translate(308.806095 266.598437)scale(0.1 -0.1)">
       <defs>
        <path id="DejaVuSans-38" d="M 2034 2216 
Q 1584 2216 1326 1975 
Q 1069 1734 1069 1313 
Q 1069 891 1326 650 
Q 1584 409 2034 409 
Q 2484 409 2743 651 
Q 3003 894 3003 1313 
Q 3003 1734 2745 1975 
Q 2488 2216 2034 2216 
z
M 1403 2484 
Q 997 2584 770 2862 
Q 544 3141 544 3541 
Q 544 4100 942 4425 
Q 1341 4750 2034 4750 
Q 2731 4750 3128 4425 
Q 3525 4100 3525 3541 
Q 3525 3141 3298 2862 
Q 3072 2584 2669 2484 
Q 3125 2378 3379 2068 
Q 3634 1759 3634 1313 
Q 3634 634 3220 271 
Q 2806 -91 2034 -91 
Q 1263 -91 848 271 
Q 434 634 434 1313 
Q 434 1759 690 2068 
Q 947 2378 1403 2484 
z
M 1172 3481 
Q 1172 3119 1398 2916 
Q 1625 2713 2034 2713 
Q 2441 2713 2670 2916 
Q 2900 3119 2900 3481 
Q 2900 3844 2670 4047 
Q 2441 4250 2034 4250 
Q 1625 4250 1398 4047 
Q 1172 3844 1172 3481 
z
" transform="scale(0.015625)"/>
       </defs>
       <use xlink:href="#DejaVuSans-38"/>
       <use xlink:href="#DejaVuSans-30" x="63.623047"/>
      </g>
     </g>
    </g>
    <g id="xtick_6">
     <g id="line2d_6">
      <g>
       <use xlink:href="#m54a28bd68e" x="376.656198" y="252" style="stroke: #000000; stroke-width: 0.8"/>
      </g>
     </g>
     <g id="text_6">
      <!-- 100 -->
      <g transform="translate(367.112448 266.598437)scale(0.1 -0.1)">
       <defs>
        <path id="DejaVuSans-31" d="M 794 531 
L 1825 531 
L 1825 4091 
L 703 3866 
L 703 4441 
L 1819 4666 
L 2450 4666 
L 2450 531 
L 3481 531 
L 3481 0 
L 794 0 
L 794 531 
z
" transform="scale(0.015625)"/>
       </defs>
       <use xlink:href="#DejaVuSans-31"/>
       <use xlink:href="#DejaVuSans-30" x="63.623047"/>
       <use xlink:href="#DejaVuSans-30" x="127.246094"/>
      </g>
     </g>
    </g>
    <g id="text_7">
     <!-- Step -->
     <g transform="translate(210.014844 280.276563)scale(0.1 -0.1)">
      <defs>
       <path id="DejaVuSans-53" d="M 3425 4513 
L 3425 3897 
Q 3066 4069 2747 4153 
Q 2428 4238 2131 4238 
Q 1616 4238 1336 4038 
Q 1056 3838 1056 3469 
Q 1056 3159 1242 3001 
Q 1428 2844 1947 2747 
L 2328 2669 
Q 3034 2534 3370 2195 
Q 3706 1856 3706 1288 
Q 3706 609 3251 259 
Q 2797 -91 1919 -91 
Q 1588 -91 1214 -16 
Q 841 59 441 206 
L 441 856 
Q 825 641 1194 531 
Q 1563 422 1919 422 
Q 2459 422 2753 634 
Q 3047 847 3047 1241 
Q 3047 1584 2836 1778 
Q 2625 1972 2144 2069 
L 1759 2144 
Q 1053 2284 737 2584 
Q 422 2884 422 3419 
Q 422 4038 858 4394 
Q 1294 4750 2059 4750 
Q 2388 4750 2728 4690 
Q 3069 4631 3425 4513 
z
" transform="scale(0.015625)"/>
       <path id="DejaVuSans-74" d="M 1172 4494 
L 1172 3500 
L 2356 3500 
L 2356 3053 
L 1172 3053 
L 1172 1153 
Q 1172 725 1289 603 
Q 1406 481 1766 481 
L 2356 481 
L 2356 0 
L 1766 0 
Q 1100 0 847 248 
Q 594 497 594 1153 
L 594 3053 
L 172 3053 
L 172 3500 
L 594 3500 
L 594 4494 
L 1172 4494 
z
" transform="scale(0.015625)"/>
       <path id="DejaVuSans-65" d="M 3597 1894 
L 3597 1613 
L 953 1613 
Q 991 1019 1311 708 
Q 1631 397 2203 397 
Q 2534 397 2845 478 
Q 3156 559 3463 722 
L 3463 178 
Q 3153 47 2828 -22 
Q 2503 -91 2169 -91 
Q 1331 -91 842 396 
Q 353 884 353 1716 
Q 353 2575 817 3079 
Q 1281 3584 2069 3584 
Q 2775 3584 3186 3129 
Q 3597 2675 3597 1894 
z
M 3022 2063 
Q 3016 2534 2758 2815 
Q 2500 3097 2075 3097 
Q 1594 3097 1305 2825 
Q 1016 2553 972 2059 
L 3022 2063 
z
" transform="scale(0.015625)"/>
       <path id="DejaVuSans-70" d="M 1159 525 
L 1159 -1331 
L 581 -1331 
L 581 3500 
L 1159 3500 
L 1159 2969 
Q 1341 3281 1617 3432 
Q 1894 3584 2278 3584 
Q 2916 3584 3314 3078 
Q 3713 2572 3713 1747 
Q 3713 922 3314 415 
Q 2916 -91 2278 -91 
Q 1894 -91 1617 61 
Q 1341 213 1159 525 
z
M 3116 1747 
Q 3116 2381 2855 2742 
Q 2594 3103 2138 3103 
Q 1681 3103 1420 2742 
Q 1159 2381 1159 1747 
Q 1159 1113 1420 752 
Q 1681 391 2138 391 
Q 2594 391 2855 752 
Q 3116 1113 3116 1747 
z
" transform="scale(0.015625)"/>
      </defs>
      <use xlink:href="#DejaVuSans-53"/>
      <use xlink:href="#DejaVuSans-74" x="63.476562"/>
      <use xlink:href="#DejaVuSans-65" x="102.685547"/>
      <use xlink:href="#DejaVuSans-70" x="164.208984"/>
     </g>
    </g>
   </g>
   <g id="matplotlib.axis_2">
    <g id="ytick_1">
     <g id="line2d_7">
      <defs>
       <path id="maaa78391f5" d="M 0 0 
L -3.5 0 
" style="stroke: #000000; stroke-width: 0.8"/>
      </defs>
      <g>
       <use xlink:href="#maaa78391f5" x="54" y="242.116364" style="stroke: #000000; stroke-width: 0.8"/>
      </g>
     </g>
     <g id="text_8">
      <!-- 0.0 -->
      <g transform="translate(31.096875 245.915582)scale(0.1 -0.1)">
       <defs>
        <path id="DejaVuSans-2e" d="M 684 794 
L 1344 794 
L 1344 0 
L 684 0 
L 684 794 
z
" transform="scale(0.015625)"/>
       </defs>
       <use xlink:href="#DejaVuSans-30"/>
       <use xlink:href="#DejaVuSans-2e" x="63.623047"/>
       <use xlink:href="#DejaVuSans-30" x="95.410156"/>
      </g>
     </g>
    </g>
    <g id="ytick_2">
     <g id="line2d_8">
      <g>
       <use xlink:href="#maaa78391f5" x="54" y="202.581818" style="stroke: #000000; stroke-width: 0.8"/>
      </g>
     </g>
     <g id="text_9">
      <!-- 0.2 -->
      <g transform="translate(31.096875 206.381037)scale(0.1 -0.1)">
       <use xlink:href="#DejaVuSans-30"/>
       <use xlink:href="#DejaVuSans-2e" x="63.623047"/>
       <use xlink:href="#DejaVuSans-32" x="95.410156"/>
      </g>
     </g>
    </g>
    <g id="ytick_3">
     <g id="line2d_9">
      <g>
       <use xlink:href="#maaa78391f5" x="54" y="163.047273" style="stroke: #000000; stroke-width: 0.8"/>
      </g>
     </g>
     <g id="text_10">
      <!-- 0.4 -->
      <g transform="translate(31.096875 166.846491)scale(0.1 -0.1)">
       <use xlink:href="#DejaVuSans-30"/>
       <use xlink:href="#DejaVuSans-2e" x="63.623047"/>
       <use xlink:href="#DejaVuSans-34" x="95.410156"/>
      </g>
     </g>
    </g>
    <g id="ytick_4">
     <g id="line2d_10">
      <g>
       <use xlink:href="#maaa78391f5" x="54" y="123.512727" style="stroke: #000000; stroke-width: 0.8"/>
      </g>
     </g>
     <g id="text_11">
      <!-- 0.6 -->
      <g transform="translate(31.096875 127.311946)scale(0.1 -0.1)">
       <use xlink:href="#DejaVuSans-30"/>
       <use xlink:href="#DejaVuSans-2e" x="63.623047"/>
       <use xlink:href="#DejaVuSans-36" x="95.410156"/>
      </g>
     </g>
    </g>
    <g id="ytick_5">
     <g id="line2d_11">
      <g>
       <use xlink:href="#maaa78391f5" x="54" y="83.978182" style="stroke: #000000; stroke-width: 0.8"/>
      </g>
     </g>
     <g id="text_12">
      <!-- 0.8 -->
      <g transform="translate(31.096875 87.777401)scale(0.1 -0.1)">
       <use xlink:href="#DejaVuSans-30"/>
       <use xlink:href="#DejaVuSans-2e" x="63.623047"/>
       <use xlink:href="#DejaVuSans-38" x="95.410156"/>
      </g>
     </g>
    </g>
    <g id="ytick_6">
     <g id="line2d_12">
      <g>
       <use xlink:href="#maaa78391f5" x="54" y="44.443636" style="stroke: #000000; stroke-width: 0.8"/>
      </g>
     </g>
     <g id="text_13">
      <!-- 1.0 -->
      <g transform="translate(31.096875 48.242855)scale(0.1 -0.1)">
       <use xlink:href="#DejaVuSans-31"/>
       <use xlink:href="#DejaVuSans-2e" x="63.623047"/>
       <use xlink:href="#DejaVuSans-30" x="95.410156"/>
      </g>
     </g>
    </g>
    <g id="text_14">
     <!-- Cost value -->
     <g transform="translate(25.017187 169.6425)rotate(-90)scale(0.1 -0.1)">
      <defs>
       <path id="DejaVuSans-43" d="M 4122 4306 
L 4122 3641 
Q 3803 3938 3442 4084 
Q 3081 4231 2675 4231 
Q 1875 4231 1450 3742 
Q 1025 3253 1025 2328 
Q 1025 1406 1450 917 
Q 1875 428 2675 428 
Q 3081 428 3442 575 
Q 3803 722 4122 1019 
L 4122 359 
Q 3791 134 3420 21 
Q 3050 -91 2638 -91 
Q 1578 -91 968 557 
Q 359 1206 359 2328 
Q 359 3453 968 4101 
Q 1578 4750 2638 4750 
Q 3056 4750 3426 4639 
Q 3797 4528 4122 4306 
z
" transform="scale(0.015625)"/>
       <path id="DejaVuSans-6f" d="M 1959 3097 
Q 1497 3097 1228 2736 
Q 959 2375 959 1747 
Q 959 1119 1226 758 
Q 1494 397 1959 397 
Q 2419 397 2687 759 
Q 2956 1122 2956 1747 
Q 2956 2369 2687 2733 
Q 2419 3097 1959 3097 
z
M 1959 3584 
Q 2709 3584 3137 3096 
Q 3566 2609 3566 1747 
Q 3566 888 3137 398 
Q 2709 -91 1959 -91 
Q 1206 -91 779 398 
Q 353 888 353 1747 
Q 353 2609 779 3096 
Q 1206 3584 1959 3584 
z
" transform="scale(0.015625)"/>
       <path id="DejaVuSans-73" d="M 2834 3397 
L 2834 2853 
Q 2591 2978 2328 3040 
Q 2066 3103 1784 3103 
Q 1356 3103 1142 2972 
Q 928 2841 928 2578 
Q 928 2378 1081 2264 
Q 1234 2150 1697 2047 
L 1894 2003 
Q 2506 1872 2764 1633 
Q 3022 1394 3022 966 
Q 3022 478 2636 193 
Q 2250 -91 1575 -91 
Q 1294 -91 989 -36 
Q 684 19 347 128 
L 347 722 
Q 666 556 975 473 
Q 1284 391 1588 391 
Q 1994 391 2212 530 
Q 2431 669 2431 922 
Q 2431 1156 2273 1281 
Q 2116 1406 1581 1522 
L 1381 1569 
Q 847 1681 609 1914 
Q 372 2147 372 2553 
Q 372 3047 722 3315 
Q 1072 3584 1716 3584 
Q 2034 3584 2315 3537 
Q 2597 3491 2834 3397 
z
" transform="scale(0.015625)"/>
       <path id="DejaVuSans-20" transform="scale(0.015625)"/>
       <path id="DejaVuSans-76" d="M 191 3500 
L 800 3500 
L 1894 563 
L 2988 3500 
L 3597 3500 
L 2284 0 
L 1503 0 
L 191 3500 
z
" transform="scale(0.015625)"/>
       <path id="DejaVuSans-61" d="M 2194 1759 
Q 1497 1759 1228 1600 
Q 959 1441 959 1056 
Q 959 750 1161 570 
Q 1363 391 1709 391 
Q 2188 391 2477 730 
Q 2766 1069 2766 1631 
L 2766 1759 
L 2194 1759 
z
M 3341 1997 
L 3341 0 
L 2766 0 
L 2766 531 
Q 2569 213 2275 61 
Q 1981 -91 1556 -91 
Q 1019 -91 701 211 
Q 384 513 384 1019 
Q 384 1609 779 1909 
Q 1175 2209 1959 2209 
L 2766 2209 
L 2766 2266 
Q 2766 2663 2505 2880 
Q 2244 3097 1772 3097 
Q 1472 3097 1187 3025 
Q 903 2953 641 2809 
L 641 3341 
Q 956 3463 1253 3523 
Q 1550 3584 1831 3584 
Q 2591 3584 2966 3190 
Q 3341 2797 3341 1997 
z
" transform="scale(0.015625)"/>
       <path id="DejaVuSans-6c" d="M 603 4863 
L 1178 4863 
L 1178 0 
L 603 0 
L 603 4863 
z
" transform="scale(0.015625)"/>
       <path id="DejaVuSans-75" d="M 544 1381 
L 544 3500 
L 1119 3500 
L 1119 1403 
Q 1119 906 1312 657 
Q 1506 409 1894 409 
Q 2359 409 2629 706 
Q 2900 1003 2900 1516 
L 2900 3500 
L 3475 3500 
L 3475 0 
L 2900 0 
L 2900 538 
Q 2691 219 2414 64 
Q 2138 -91 1772 -91 
Q 1169 -91 856 284 
Q 544 659 544 1381 
z
M 1991 3584 
L 1991 3584 
z
" transform="scale(0.015625)"/>
      </defs>
      <use xlink:href="#DejaVuSans-43"/>
      <use xlink:href="#DejaVuSans-6f" x="69.824219"/>
      <use xlink:href="#DejaVuSans-73" x="131.005859"/>
      <use xlink:href="#DejaVuSans-74" x="183.105469"/>
      <use xlink:href="#DejaVuSans-20" x="222.314453"/>
      <use xlink:href="#DejaVuSans-76" x="254.101562"/>
      <use xlink:href="#DejaVuSans-61" x="313.28125"/>
      <use xlink:href="#DejaVuSans-6c" x="374.560547"/>
      <use xlink:href="#DejaVuSans-75" x="402.34375"/>
      <use xlink:href="#DejaVuSans-65" x="465.722656"/>
     </g>
    </g>
   </g>
   <g id="line2d_13">
    <path d="M 69.218182 47.428495 
L 72.292562 48.080815 
L 75.366942 48.061047 
L 78.441322 48.970342 
L 81.515702 49.385455 
L 84.590083 50.294749 
L 87.664463 51.204044 
L 90.738843 51.322647 
L 93.813223 52.251709 
L 96.887603 53.358676 
L 99.961983 54.485411 
L 103.036364 56.145862 
L 106.110744 56.798182 
L 109.185124 58.834211 
L 112.259504 60.87024 
L 115.333884 62.076044 
L 118.408264 63.281847 
L 121.482645 65.65392 
L 124.557025 67.808553 
L 127.631405 70.239927 
L 130.705785 72.018982 
L 133.780165 74.410822 
L 136.854545 77.751491 
L 139.928926 78.680553 
L 143.003306 81.704945 
L 146.077686 86.113047 
L 149.152066 88.228145 
L 152.226446 92.814153 
L 155.300826 94.810647 
L 158.375207 98.7048 
L 161.449587 102.341978 
L 164.523967 104.457076 
L 167.598347 107.066356 
L 170.672727 109.497731 
L 173.747107 112.324451 
L 176.821488 115.408145 
L 179.895868 119.262764 
L 182.970248 121.120887 
L 186.044628 125.351084 
L 189.119008 126.576655 
L 192.193388 128.830124 
L 195.267769 130.075462 
L 198.342149 132.62544 
L 201.416529 133.851011 
L 204.490909 136.460291 
L 207.565289 138.71376 
L 210.639669 140.650953 
L 213.71405 140.314909 
L 216.78843 141.560247 
L 219.86281 144.169527 
L 222.93719 144.070691 
L 226.01157 146.857876 
L 229.08595 148.142749 
L 232.160331 149.249716 
L 235.234711 149.269484 
L 238.309091 150.850865 
L 241.383471 151.997367 
L 244.457851 154.013629 
L 247.532231 156.188029 
L 250.606612 155.496175 
L 253.680992 157.63104 
L 256.755372 159.548465 
L 259.829752 158.184524 
L 262.904132 159.212422 
L 265.978512 159.133353 
L 269.052893 160.45776 
L 272.127273 160.378691 
L 275.201653 162.19728 
L 278.276033 159.054284 
L 281.350413 162.572858 
L 284.424793 163.165876 
L 287.499174 162.928669 
L 290.573554 163.205411 
L 293.647934 165.083302 
L 296.722314 164.668189 
L 299.796694 165.834458 
L 302.871074 165.360044 
L 305.945455 165.834458 
L 309.019835 167.1984 
L 312.094215 165.814691 
L 315.168595 167.139098 
L 318.242975 167.317004 
L 321.317355 169.175127 
L 324.391736 164.648422 
L 327.466116 167.139098 
L 330.540496 167.732116 
L 333.614876 168.799549 
L 336.689256 168.443738 
L 339.763636 167.771651 
L 342.838017 168.423971 
L 345.912397 169.234429 
L 348.986777 171.309993 
L 352.061157 168.483273 
L 355.135537 170.361164 
L 358.209917 168.404204 
L 361.284298 170.499535 
L 364.358678 169.096058 
L 367.433058 170.420465 
L 370.507438 170.440233 
L 373.581818 169.965818 
" clip-path="url(#pa75aa16d8e)" style="fill: none; stroke: #1f77b4; stroke-width: 1.5; stroke-linecap: square"/>
   </g>
   <g id="line2d_14">
    <path d="M 69.218182 73.679433 
L 72.292562 98.566429 
L 75.366942 123.196451 
L 78.441322 139.721891 
L 81.515702 146.877644 
L 84.590083 154.132233 
L 87.664463 158.362429 
L 90.738843 164.529818 
L 93.813223 166.308873 
L 96.887603 167.178633 
L 99.961983 167.751884 
L 103.036364 170.855345 
L 106.110744 171.191389 
L 109.185124 170.400698 
L 112.259504 170.756509 
L 115.333884 172.239055 
L 118.408264 172.733236 
L 121.482645 174.571593 
L 124.557025 174.551825 
L 127.631405 173.089047 
L 130.705785 173.919273 
L 133.780165 175.046007 
L 136.854545 176.054138 
L 139.928926 174.848335 
L 143.003306 173.978575 
L 146.077686 174.828567 
L 149.152066 175.382051 
L 152.226446 175.67856 
L 155.300826 175.757629 
L 158.375207 175.639025 
L 161.449587 175.441353 
L 164.523967 174.966938 
L 167.598347 175.263447 
L 170.672727 175.520422 
L 173.747107 175.362284 
L 176.821488 176.54832 
L 179.895868 177.002967 
L 182.970248 176.587855 
L 186.044628 174.769265 
L 189.119008 175.322749 
L 192.193388 177.319244 
L 195.267769 176.370415 
L 198.342149 175.401818 
L 201.416529 175.836698 
L 204.490909 175.876233 
L 207.565289 176.568087 
L 210.639669 176.251811 
L 213.71405 176.350647 
L 216.78843 175.401818 
L 219.86281 175.105309 
L 222.93719 176.212276 
L 226.01157 177.180873 
L 229.08595 178.307607 
L 232.160331 175.480887 
L 235.234711 176.311113 
L 238.309091 175.579724 
L 241.383471 176.825062 
L 244.457851 175.915767 
L 247.532231 176.666924 
L 250.606612 176.172742 
L 253.680992 177.259942 
L 256.755372 175.02624 
L 259.829752 176.54832 
L 262.904132 175.975069 
L 265.978512 175.896 
L 269.052893 176.33088 
L 272.127273 176.429716 
L 275.201653 177.694822 
L 278.276033 176.014604 
L 281.350413 176.785527 
L 284.424793 176.073905 
L 287.499174 177.101804 
L 290.573554 178.327375 
L 293.647934 175.540189 
L 296.722314 176.647156 
L 299.796694 176.350647 
L 302.871074 176.943665 
L 305.945455 178.347142 
L 309.019835 175.994836 
L 312.094215 179.355273 
L 315.168595 180.304102 
L 318.242975 177.793658 
L 321.317355 181.509905 
L 324.391736 182.63664 
L 327.466116 182.695942 
L 330.540496 182.518036 
L 333.614876 182.478502 
L 336.689256 184.791273 
L 339.763636 181.707578 
L 342.838017 184.218022 
L 345.912397 183.94128 
L 348.986777 182.715709 
L 352.061157 186.095913 
L 355.135537 185.127316 
L 358.209917 186.965673 
L 361.284298 185.107549 
L 364.358678 186.155215 
L 367.433058 186.728465 
L 370.507438 185.265687 
L 373.581818 184.969178 
" clip-path="url(#pa75aa16d8e)" style="fill: none; stroke: #ff7f0e; stroke-width: 1.5; stroke-linecap: square"/>
   </g>
   <g id="line2d_15">
    <path d="M 69.218182 48.970342 
L 72.292562 51.243578 
L 75.366942 54.920291 
L 78.441322 60.988844 
L 81.515702 67.017862 
L 84.590083 76.446851 
L 87.664463 88.860698 
L 90.738843 101.353615 
L 93.813223 111.652364 
L 96.887603 123.176684 
L 99.961983 133.257993 
L 103.036364 138.654458 
L 106.110744 146.521833 
L 109.185124 150.23808 
L 112.259504 156.168262 
L 115.333884 157.453135 
L 118.408264 161.386822 
L 121.482645 164.094938 
L 124.557025 164.450749 
L 127.631405 166.229804 
L 130.705785 168.087927 
L 133.780165 167.949556 
L 136.854545 170.776276 
L 139.928926 169.866982 
L 143.003306 169.570473 
L 146.077686 172.337891 
L 149.152066 169.906516 
L 152.226446 171.349527 
L 155.300826 171.76464 
L 158.375207 171.804175 
L 161.449587 173.7216 
L 164.523967 172.120451 
L 167.598347 173.06928 
L 170.672727 172.6344 
L 173.747107 171.072785 
L 176.821488 172.832073 
L 179.895868 172.535564 
L 182.970248 171.527433 
L 186.044628 171.705338 
L 189.119008 173.761135 
L 192.193388 173.543695 
L 195.267769 173.168116 
L 198.342149 174.887869 
L 201.416529 172.911142 
L 204.490909 175.342516 
L 207.565289 173.859971 
L 210.639669 172.930909 
L 213.71405 174.196015 
L 216.78843 174.947171 
L 219.86281 172.891375 
L 222.93719 174.452989 
L 226.01157 172.654167 
L 229.08595 172.713469 
L 232.160331 173.800669 
L 235.234711 174.215782 
L 238.309091 172.239055 
L 241.383471 173.998342 
L 244.457851 172.911142 
L 247.532231 173.484393 
L 250.606612 173.622764 
L 253.680992 174.275084 
L 256.755372 173.701833 
L 259.829752 174.670429 
L 262.904132 175.540189 
L 265.978512 175.975069 
L 269.052893 173.622764 
L 272.127273 175.263447 
L 275.201653 175.520422 
L 278.276033 175.204145 
L 281.350413 175.144844 
L 284.424793 174.255316 
L 287.499174 175.955302 
L 290.573554 174.769265 
L 293.647934 175.125076 
L 296.722314 175.184378 
L 299.796694 175.164611 
L 302.871074 175.223913 
L 305.945455 173.583229 
L 309.019835 174.986705 
L 312.094215 175.02624 
L 315.168595 174.492524 
L 318.242975 174.887869 
L 321.317355 173.049513 
L 324.391736 173.978575 
L 327.466116 176.014604 
L 330.540496 173.800669 
L 333.614876 176.014604 
L 336.689256 175.362284 
L 339.763636 173.326255 
L 342.838017 175.698327 
L 345.912397 174.907636 
L 348.986777 174.018109 
L 352.061157 174.532058 
L 355.135537 175.816931 
L 358.209917 173.583229 
L 361.284298 174.15648 
L 364.358678 175.046007 
L 367.433058 175.302982 
L 370.507438 173.662298 
L 373.581818 175.164611 
" clip-path="url(#pa75aa16d8e)" style="fill: none; stroke: #2ca02c; stroke-width: 1.5; stroke-linecap: square"/>
   </g>
   <g id="line2d_16">
    <path d="M 69.218182 47.784305 
L 72.292562 47.685469 
L 75.366942 48.970342 
L 78.441322 49.187782 
L 81.515702 50.393585 
L 84.590083 51.184276 
L 87.664463 51.480785 
L 90.738843 52.567985 
L 93.813223 52.963331 
L 96.887603 55.256335 
L 99.961983 55.86912 
L 103.036364 58.063287 
L 106.110744 60.830705 
L 109.185124 63.143476 
L 112.259504 63.934167 
L 115.333884 66.207404 
L 118.408264 70.081789 
L 121.482645 71.682938 
L 124.557025 74.865469 
L 127.631405 78.621251 
L 130.705785 82.594473 
L 133.780165 85.796771 
L 136.854545 88.801396 
L 139.928926 96.392029 
L 143.003306 98.605964 
L 146.077686 101.709425 
L 149.152066 106.137295 
L 152.226446 111.019811 
L 155.300826 115.941862 
L 158.375207 117.009295 
L 161.449587 122.227855 
L 164.523967 127.051069 
L 167.598347 130.312669 
L 170.672727 135.274255 
L 173.747107 136.480058 
L 176.821488 138.792829 
L 179.895868 144.426502 
L 182.970248 145.909047 
L 186.044628 150.139244 
L 189.119008 153.025265 
L 192.193388 153.93456 
L 195.267769 156.54384 
L 198.342149 156.879884 
L 201.416529 159.647302 
L 204.490909 161.801935 
L 207.565289 162.098444 
L 210.639669 162.572858 
L 213.71405 163.324015 
L 216.78843 164.411215 
L 219.86281 166.387942 
L 222.93719 164.174007 
L 226.01157 165.419345 
L 229.08595 167.751884 
L 232.160331 166.803055 
L 235.234711 170.262327 
L 238.309091 167.910022 
L 241.383471 169.115825 
L 244.457851 169.610007 
L 247.532231 171.685571 
L 250.606612 169.827447 
L 253.680992 171.270458 
L 256.755372 171.883244 
L 259.829752 171.586735 
L 262.904132 171.230924 
L 265.978512 171.11232 
L 269.052893 171.76464 
L 272.127273 172.120451 
L 275.201653 171.349527 
L 278.276033 172.772771 
L 281.350413 171.903011 
L 284.424793 172.061149 
L 287.499174 173.662298 
L 290.573554 172.911142 
L 293.647934 172.258822 
L 296.722314 172.673935 
L 299.796694 174.749498 
L 302.871074 172.239055 
L 305.945455 174.413455 
L 309.019835 172.337891 
L 312.094215 173.464625 
L 315.168595 172.120451 
L 318.242975 172.930909 
L 321.317355 172.515796 
L 324.391736 172.832073 
L 327.466116 173.780902 
L 330.540496 173.425091 
L 333.614876 172.930909 
L 336.689256 172.594865 
L 339.763636 174.729731 
L 342.838017 175.125076 
L 345.912397 173.523927 
L 348.986777 174.196015 
L 352.061157 174.255316 
L 355.135537 174.314618 
L 358.209917 174.492524 
L 361.284298 173.484393 
L 364.358678 173.543695 
L 367.433058 174.966938 
L 370.507438 174.077411 
L 373.581818 175.046007 
" clip-path="url(#pa75aa16d8e)" style="fill: none; stroke: #d62728; stroke-width: 1.5; stroke-linecap: square"/>
   </g>
   <g id="line2d_17">
    <path d="M 69.218182 67.591113 
L 72.292562 89.769993 
L 75.366942 109.715171 
L 78.441322 124.777833 
L 81.515702 142.805585 
L 84.590083 150.692727 
L 87.664463 154.58688 
L 90.738843 156.3264 
L 93.813223 156.484538 
L 96.887603 159.884509 
L 99.961983 162.355418 
L 103.036364 167.85072 
L 106.110744 166.803055 
L 109.185124 171.369295 
L 112.259504 171.092553 
L 115.333884 172.614633 
L 118.408264 173.247185 
L 121.482645 174.789033 
L 124.557025 174.37392 
L 127.631405 174.927404 
L 130.705785 175.421585 
L 133.780165 175.540189 
L 136.854545 175.737862 
L 139.928926 175.283215 
L 143.003306 176.192509 
L 146.077686 174.393687 
L 149.152066 174.907636 
L 152.226446 177.576218 
L 155.300826 176.11344 
L 158.375207 176.409949 
L 161.449587 176.726225 
L 164.523967 176.152975 
L 167.598347 175.382051 
L 170.672727 175.480887 
L 173.747107 176.627389 
L 176.821488 177.872727 
L 179.895868 177.714589 
L 182.970248 177.991331 
L 186.044628 176.311113 
L 189.119008 177.813425 
L 192.193388 177.971564 
L 195.267769 179.335505 
L 198.342149 181.430836 
L 201.416529 176.627389 
L 204.490909 176.33088 
L 207.565289 176.884364 
L 210.639669 178.564582 
L 213.71405 179.730851 
L 216.78843 178.109935 
L 219.86281 178.643651 
L 222.93719 178.643651 
L 226.01157 177.595985 
L 229.08595 177.754124 
L 232.160331 178.604116 
L 235.234711 179.59248 
L 238.309091 179.948291 
L 241.383471 180.126196 
L 244.457851 181.430836 
L 247.532231 181.173862 
L 250.606612 183.111055 
L 253.680992 184.079651 
L 256.755372 183.269193 
L 259.829752 183.605236 
L 262.904132 185.6808 
L 265.978512 185.02848 
L 269.052893 185.502895 
L 272.127273 184.830807 
L 275.201653 186.886604 
L 278.276033 184.138953 
L 281.350413 185.759869 
L 284.424793 187.104044 
L 287.499174 186.352887 
L 290.573554 185.819171 
L 293.647934 187.222647 
L 296.722314 187.716829 
L 299.796694 187.242415 
L 302.871074 187.301716 
L 305.945455 186.194749 
L 309.019835 188.428451 
L 312.094215 187.222647 
L 315.168595 187.163345 
L 318.242975 185.661033 
L 321.317355 184.257556 
L 324.391736 186.530793 
L 327.466116 188.863331 
L 330.540496 185.206385 
L 333.614876 187.894735 
L 336.689256 185.562196 
L 339.763636 186.234284 
L 342.838017 186.530793 
L 345.912397 186.866836 
L 348.986777 186.590095 
L 352.061157 185.720335 
L 355.135537 186.214516 
L 358.209917 186.056378 
L 361.284298 187.005207 
L 364.358678 185.562196 
L 367.433058 188.171476 
L 370.507438 186.135447 
L 373.581818 185.89824 
" clip-path="url(#pa75aa16d8e)" style="fill: none; stroke: #9467bd; stroke-width: 1.5; stroke-linecap: square"/>
   </g>
   <g id="patch_3">
    <path d="M 54 252 
L 54 34.56 
" style="fill: none; stroke: #000000; stroke-width: 0.8; stroke-linejoin: miter; stroke-linecap: square"/>
   </g>
   <g id="patch_4">
    <path d="M 388.8 252 
L 388.8 34.56 
" style="fill: none; stroke: #000000; stroke-width: 0.8; stroke-linejoin: miter; stroke-linecap: square"/>
   </g>
   <g id="patch_5">
    <path d="M 54 252 
L 388.8 252 
" style="fill: none; stroke: #000000; stroke-width: 0.8; stroke-linejoin: miter; stroke-linecap: square"/>
   </g>
   <g id="patch_6">
    <path d="M 54 34.56 
L 388.8 34.56 
" style="fill: none; stroke: #000000; stroke-width: 0.8; stroke-linejoin: miter; stroke-linecap: square"/>
   </g>
   <g id="legend_1">
    <g id="patch_7">
     <path d="M 290.1325 99.6725 
L 383.2 99.6725 
Q 384.8 99.6725 384.8 98.0725 
L 384.8 40.16 
Q 384.8 38.56 383.2 38.56 
L 290.1325 38.56 
Q 288.5325 38.56 288.5325 40.16 
L 288.5325 98.0725 
Q 288.5325 99.6725 290.1325 99.6725 
z
" style="fill: #ffffff; opacity: 0.8; stroke: #cccccc; stroke-linejoin: miter"/>
    </g>
    <g id="line2d_18">
     <path d="M 291.7325 45.03875 
L 299.7325 45.03875 
L 307.7325 45.03875 
" style="fill: none; stroke: #1f77b4; stroke-width: 1.5; stroke-linecap: square"/>
    </g>
    <g id="text_15">
     <!-- SGD -->
     <g transform="translate(314.1325 47.83875)scale(0.08 -0.08)">
      <defs>
       <path id="DejaVuSans-47" d="M 3809 666 
L 3809 1919 
L 2778 1919 
L 2778 2438 
L 4434 2438 
L 4434 434 
Q 4069 175 3628 42 
Q 3188 -91 2688 -91 
Q 1594 -91 976 548 
Q 359 1188 359 2328 
Q 359 3472 976 4111 
Q 1594 4750 2688 4750 
Q 3144 4750 3555 4637 
Q 3966 4525 4313 4306 
L 4313 3634 
Q 3963 3931 3569 4081 
Q 3175 4231 2741 4231 
Q 1884 4231 1454 3753 
Q 1025 3275 1025 2328 
Q 1025 1384 1454 906 
Q 1884 428 2741 428 
Q 3075 428 3337 486 
Q 3600 544 3809 666 
z
" transform="scale(0.015625)"/>
       <path id="DejaVuSans-44" d="M 1259 4147 
L 1259 519 
L 2022 519 
Q 2988 519 3436 956 
Q 3884 1394 3884 2338 
Q 3884 3275 3436 3711 
Q 2988 4147 2022 4147 
L 1259 4147 
z
M 628 4666 
L 1925 4666 
Q 3281 4666 3915 4102 
Q 4550 3538 4550 2338 
Q 4550 1131 3912 565 
Q 3275 0 1925 0 
L 628 0 
L 628 4666 
z
" transform="scale(0.015625)"/>
      </defs>
      <use xlink:href="#DejaVuSans-53"/>
      <use xlink:href="#DejaVuSans-47" x="63.476562"/>
      <use xlink:href="#DejaVuSans-44" x="140.966797"/>
     </g>
    </g>
    <g id="line2d_19">
     <path d="M 291.7325 56.78125 
L 299.7325 56.78125 
L 307.7325 56.78125 
" style="fill: none; stroke: #ff7f0e; stroke-width: 1.5; stroke-linecap: square"/>
    </g>
    <g id="text_16">
     <!-- Adam -->
     <g transform="translate(314.1325 59.58125)scale(0.08 -0.08)">
      <defs>
       <path id="DejaVuSans-41" d="M 2188 4044 
L 1331 1722 
L 3047 1722 
L 2188 4044 
z
M 1831 4666 
L 2547 4666 
L 4325 0 
L 3669 0 
L 3244 1197 
L 1141 1197 
L 716 0 
L 50 0 
L 1831 4666 
z
" transform="scale(0.015625)"/>
       <path id="DejaVuSans-64" d="M 2906 2969 
L 2906 4863 
L 3481 4863 
L 3481 0 
L 2906 0 
L 2906 525 
Q 2725 213 2448 61 
Q 2172 -91 1784 -91 
Q 1150 -91 751 415 
Q 353 922 353 1747 
Q 353 2572 751 3078 
Q 1150 3584 1784 3584 
Q 2172 3584 2448 3432 
Q 2725 3281 2906 2969 
z
M 947 1747 
Q 947 1113 1208 752 
Q 1469 391 1925 391 
Q 2381 391 2643 752 
Q 2906 1113 2906 1747 
Q 2906 2381 2643 2742 
Q 2381 3103 1925 3103 
Q 1469 3103 1208 2742 
Q 947 2381 947 1747 
z
" transform="scale(0.015625)"/>
       <path id="DejaVuSans-6d" d="M 3328 2828 
Q 3544 3216 3844 3400 
Q 4144 3584 4550 3584 
Q 5097 3584 5394 3201 
Q 5691 2819 5691 2113 
L 5691 0 
L 5113 0 
L 5113 2094 
Q 5113 2597 4934 2840 
Q 4756 3084 4391 3084 
Q 3944 3084 3684 2787 
Q 3425 2491 3425 1978 
L 3425 0 
L 2847 0 
L 2847 2094 
Q 2847 2600 2669 2842 
Q 2491 3084 2119 3084 
Q 1678 3084 1418 2786 
Q 1159 2488 1159 1978 
L 1159 0 
L 581 0 
L 581 3500 
L 1159 3500 
L 1159 2956 
Q 1356 3278 1631 3431 
Q 1906 3584 2284 3584 
Q 2666 3584 2933 3390 
Q 3200 3197 3328 2828 
z
" transform="scale(0.015625)"/>
      </defs>
      <use xlink:href="#DejaVuSans-41"/>
      <use xlink:href="#DejaVuSans-64" x="66.658203"/>
      <use xlink:href="#DejaVuSans-61" x="130.134766"/>
      <use xlink:href="#DejaVuSans-6d" x="191.414062"/>
     </g>
    </g>
    <g id="line2d_20">
     <path d="M 291.7325 68.52375 
L 299.7325 68.52375 
L 307.7325 68.52375 
" style="fill: none; stroke: #2ca02c; stroke-width: 1.5; stroke-linecap: square"/>
    </g>
    <g id="text_17">
     <!-- QNG-QFSM -->
     <g transform="translate(314.1325 71.32375)scale(0.08 -0.08)">
      <defs>
       <path id="DejaVuSans-51" d="M 2522 4238 
Q 1834 4238 1429 3725 
Q 1025 3213 1025 2328 
Q 1025 1447 1429 934 
Q 1834 422 2522 422 
Q 3209 422 3611 934 
Q 4013 1447 4013 2328 
Q 4013 3213 3611 3725 
Q 3209 4238 2522 4238 
z
M 3406 84 
L 4238 -825 
L 3475 -825 
L 2784 -78 
Q 2681 -84 2626 -87 
Q 2572 -91 2522 -91 
Q 1538 -91 948 567 
Q 359 1225 359 2328 
Q 359 3434 948 4092 
Q 1538 4750 2522 4750 
Q 3503 4750 4090 4092 
Q 4678 3434 4678 2328 
Q 4678 1516 4351 937 
Q 4025 359 3406 84 
z
" transform="scale(0.015625)"/>
       <path id="DejaVuSans-4e" d="M 628 4666 
L 1478 4666 
L 3547 763 
L 3547 4666 
L 4159 4666 
L 4159 0 
L 3309 0 
L 1241 3903 
L 1241 0 
L 628 0 
L 628 4666 
z
" transform="scale(0.015625)"/>
       <path id="DejaVuSans-2d" d="M 313 2009 
L 1997 2009 
L 1997 1497 
L 313 1497 
L 313 2009 
z
" transform="scale(0.015625)"/>
       <path id="DejaVuSans-46" d="M 628 4666 
L 3309 4666 
L 3309 4134 
L 1259 4134 
L 1259 2759 
L 3109 2759 
L 3109 2228 
L 1259 2228 
L 1259 0 
L 628 0 
L 628 4666 
z
" transform="scale(0.015625)"/>
       <path id="DejaVuSans-4d" d="M 628 4666 
L 1569 4666 
L 2759 1491 
L 3956 4666 
L 4897 4666 
L 4897 0 
L 4281 0 
L 4281 4097 
L 3078 897 
L 2444 897 
L 1241 4097 
L 1241 0 
L 628 0 
L 628 4666 
z
" transform="scale(0.015625)"/>
      </defs>
      <use xlink:href="#DejaVuSans-51"/>
      <use xlink:href="#DejaVuSans-4e" x="78.710938"/>
      <use xlink:href="#DejaVuSans-47" x="153.515625"/>
      <use xlink:href="#DejaVuSans-2d" x="231.005859"/>
      <use xlink:href="#DejaVuSans-51" x="270.714844"/>
      <use xlink:href="#DejaVuSans-46" x="349.425781"/>
      <use xlink:href="#DejaVuSans-53" x="405.195312"/>
      <use xlink:href="#DejaVuSans-4d" x="468.671875"/>
     </g>
    </g>
    <g id="line2d_21">
     <path d="M 291.7325 80.26625 
L 299.7325 80.26625 
L 307.7325 80.26625 
" style="fill: none; stroke: #d62728; stroke-width: 1.5; stroke-linecap: square"/>
    </g>
    <g id="text_18">
     <!-- QNG-QFIM -->
     <g transform="translate(314.1325 83.06625)scale(0.08 -0.08)">
      <defs>
       <path id="DejaVuSans-49" d="M 628 4666 
L 1259 4666 
L 1259 0 
L 628 0 
L 628 4666 
z
" transform="scale(0.015625)"/>
      </defs>
      <use xlink:href="#DejaVuSans-51"/>
      <use xlink:href="#DejaVuSans-4e" x="78.710938"/>
      <use xlink:href="#DejaVuSans-47" x="153.515625"/>
      <use xlink:href="#DejaVuSans-2d" x="231.005859"/>
      <use xlink:href="#DejaVuSans-51" x="270.714844"/>
      <use xlink:href="#DejaVuSans-46" x="349.425781"/>
      <use xlink:href="#DejaVuSans-49" x="406.945312"/>
      <use xlink:href="#DejaVuSans-4d" x="436.4375"/>
     </g>
    </g>
    <g id="line2d_22">
     <path d="M 291.7325 92.00875 
L 299.7325 92.00875 
L 307.7325 92.00875 
" style="fill: none; stroke: #9467bd; stroke-width: 1.5; stroke-linecap: square"/>
    </g>
    <g id="text_19">
     <!-- Adam QNG-QFIM -->
     <g transform="translate(314.1325 94.80875)scale(0.08 -0.08)">
      <use xlink:href="#DejaVuSans-41"/>
      <use xlink:href="#DejaVuSans-64" x="66.658203"/>
      <use xlink:href="#DejaVuSans-61" x="130.134766"/>
      <use xlink:href="#DejaVuSans-6d" x="191.414062"/>
      <use xlink:href="#DejaVuSans-20" x="288.826172"/>
      <use xlink:href="#DejaVuSans-51" x="320.613281"/>
      <use xlink:href="#DejaVuSans-4e" x="399.324219"/>
      <use xlink:href="#DejaVuSans-47" x="474.128906"/>
      <use xlink:href="#DejaVuSans-2d" x="551.619141"/>
      <use xlink:href="#DejaVuSans-51" x="591.328125"/>
      <use xlink:href="#DejaVuSans-46" x="670.039062"/>
      <use xlink:href="#DejaVuSans-49" x="727.558594"/>
      <use xlink:href="#DejaVuSans-4d" x="757.050781"/>
     </g>
    </g>
   </g>
  </g>
 </g>
 <defs>
  <clipPath id="pa75aa16d8e">
   <rect x="54" y="34.56" width="334.8" height="217.44"/>
  </clipPath>
 </defs>
</svg>
