<?xml version="1.0" encoding="utf-8" standalone="no"?>
<!DOCTYPE svg PUBLIC "-//W3C//DTD SVG 1.1//EN"
  "http://www.w3.org/Graphics/SVG/1.1/DTD/svg11.dtd">
<svg xmlns:xlink="http://www.w3.org/1999/xlink" width="432pt" height="288pt" viewBox="0 0 432 288" xmlns="http://www.w3.org/2000/svg" version="1.1">
 <metadata>
  <rdf:RDF xmlns:dc="http://purl.org/dc/elements/1.1/" xmlns:cc="http://creativecommons.org/ns#" xmlns:rdf="http://www.w3.org/1999/02/22-rdf-syntax-ns#">
   <cc:Work>
    <dc:type rdf:resource="http://purl.org/dc/dcmitype/StillImage"/>
    <dc:date>2022-04-17T02:01:30.167802</dc:date>
    <dc:format>image/svg+xml</dc:format>
    <dc:creator>
     <cc:Agent>
      <dc:title>Matplotlib v3.5.1, https://matplotlib.org/</dc:title>
     </cc:Agent>
    </dc:creator>
   </cc:Work>
  </rdf:RDF>
 </metadata>
 <defs>
  <style type="text/css">*{stroke-linejoin: round; stroke-linecap: butt}</style>
 </defs>
 <g id="figure_1">
  <g id="patch_1">
   <path d="M 0 288 
L 432 288 
L 432 0 
L 0 0 
L 0 288 
z
" style="fill: none"/>
  </g>
  <g id="axes_1">
   <g id="patch_2">
    <path d="M 54 252 
L 388.8 252 
L 388.8 34.56 
L 54 34.56 
z
" style="fill: #ffffff"/>
   </g>
   <g id="matplotlib.axis_1">
    <g id="xtick_1">
     <g id="line2d_1">
      <defs>
       <path id="m9ba87548b2" d="M 0 0 
L 0 3.5 
" style="stroke: #000000; stroke-width: 0.8"/>
      </defs>
      <g>
       <use xlink:href="#m9ba87548b2" x="69.218182" y="252" style="stroke: #000000; stroke-width: 0.8"/>
      </g>
     </g>
     <g id="text_1">
      <!-- 0 -->
      <g transform="translate(66.036932 266.598437)scale(0.1 -0.1)">
       <defs>
        <path id="DejaVuSans-30" d="M 2034 4250 
Q 1547 4250 1301 3770 
Q 1056 3291 1056 2328 
Q 1056 1369 1301 889 
Q 1547 409 2034 409 
Q 2525 409 2770 889 
Q 3016 1369 3016 2328 
Q 3016 3291 2770 3770 
Q 2525 4250 2034 4250 
z
M 2034 4750 
Q 2819 4750 3233 4129 
Q 3647 3509 3647 2328 
Q 3647 1150 3233 529 
Q 2819 -91 2034 -91 
Q 1250 -91 836 529 
Q 422 1150 422 2328 
Q 422 3509 836 4129 
Q 1250 4750 2034 4750 
z
" transform="scale(0.015625)"/>
       </defs>
       <use xlink:href="#DejaVuSans-30"/>
      </g>
     </g>
    </g>
    <g id="xtick_2">
     <g id="line2d_2">
      <g>
       <use xlink:href="#m9ba87548b2" x="130.705785" y="252" style="stroke: #000000; stroke-width: 0.8"/>
      </g>
     </g>
     <g id="text_2">
      <!-- 20 -->
      <g transform="translate(124.343285 266.598437)scale(0.1 -0.1)">
       <defs>
        <path id="DejaVuSans-32" d="M 1228 531 
L 3431 531 
L 3431 0 
L 469 0 
L 469 531 
Q 828 903 1448 1529 
Q 2069 2156 2228 2338 
Q 2531 2678 2651 2914 
Q 2772 3150 2772 3378 
Q 2772 3750 2511 3984 
Q 2250 4219 1831 4219 
Q 1534 4219 1204 4116 
Q 875 4013 500 3803 
L 500 4441 
Q 881 4594 1212 4672 
Q 1544 4750 1819 4750 
Q 2544 4750 2975 4387 
Q 3406 4025 3406 3419 
Q 3406 3131 3298 2873 
Q 3191 2616 2906 2266 
Q 2828 2175 2409 1742 
Q 1991 1309 1228 531 
z
" transform="scale(0.015625)"/>
       </defs>
       <use xlink:href="#DejaVuSans-32"/>
       <use xlink:href="#DejaVuSans-30" x="63.623047"/>
      </g>
     </g>
    </g>
    <g id="xtick_3">
     <g id="line2d_3">
      <g>
       <use xlink:href="#m9ba87548b2" x="192.193388" y="252" style="stroke: #000000; stroke-width: 0.8"/>
      </g>
     </g>
     <g id="text_3">
      <!-- 40 -->
      <g transform="translate(185.830888 266.598437)scale(0.1 -0.1)">
       <defs>
        <path id="DejaVuSans-34" d="M 2419 4116 
L 825 1625 
L 2419 1625 
L 2419 4116 
z
M 2253 4666 
L 3047 4666 
L 3047 1625 
L 3713 1625 
L 3713 1100 
L 3047 1100 
L 3047 0 
L 2419 0 
L 2419 1100 
L 313 1100 
L 313 1709 
L 2253 4666 
z
" transform="scale(0.015625)"/>
       </defs>
       <use xlink:href="#DejaVuSans-34"/>
       <use xlink:href="#DejaVuSans-30" x="63.623047"/>
      </g>
     </g>
    </g>
    <g id="xtick_4">
     <g id="line2d_4">
      <g>
       <use xlink:href="#m9ba87548b2" x="253.680992" y="252" style="stroke: #000000; stroke-width: 0.8"/>
      </g>
     </g>
     <g id="text_4">
      <!-- 60 -->
      <g transform="translate(247.318492 266.598437)scale(0.1 -0.1)">
       <defs>
        <path id="DejaVuSans-36" d="M 2113 2584 
Q 1688 2584 1439 2293 
Q 1191 2003 1191 1497 
Q 1191 994 1439 701 
Q 1688 409 2113 409 
Q 2538 409 2786 701 
Q 3034 994 3034 1497 
Q 3034 2003 2786 2293 
Q 2538 2584 2113 2584 
z
M 3366 4563 
L 3366 3988 
Q 3128 4100 2886 4159 
Q 2644 4219 2406 4219 
Q 1781 4219 1451 3797 
Q 1122 3375 1075 2522 
Q 1259 2794 1537 2939 
Q 1816 3084 2150 3084 
Q 2853 3084 3261 2657 
Q 3669 2231 3669 1497 
Q 3669 778 3244 343 
Q 2819 -91 2113 -91 
Q 1303 -91 875 529 
Q 447 1150 447 2328 
Q 447 3434 972 4092 
Q 1497 4750 2381 4750 
Q 2619 4750 2861 4703 
Q 3103 4656 3366 4563 
z
" transform="scale(0.015625)"/>
       </defs>
       <use xlink:href="#DejaVuSans-36"/>
       <use xlink:href="#DejaVuSans-30" x="63.623047"/>
      </g>
     </g>
    </g>
    <g id="xtick_5">
     <g id="line2d_5">
      <g>
       <use xlink:href="#m9ba87548b2" x="315.168595" y="252" style="stroke: #000000; stroke-width: 0.8"/>
      </g>
     </g>
     <g id="text_5">
      <!-- 80 -->
      <g transform="translate(308.806095 266.598437)scale(0.1 -0.1)">
       <defs>
        <path id="DejaVuSans-38" d="M 2034 2216 
Q 1584 2216 1326 1975 
Q 1069 1734 1069 1313 
Q 1069 891 1326 650 
Q 1584 409 2034 409 
Q 2484 409 2743 651 
Q 3003 894 3003 1313 
Q 3003 1734 2745 1975 
Q 2488 2216 2034 2216 
z
M 1403 2484 
Q 997 2584 770 2862 
Q 544 3141 544 3541 
Q 544 4100 942 4425 
Q 1341 4750 2034 4750 
Q 2731 4750 3128 4425 
Q 3525 4100 3525 3541 
Q 3525 3141 3298 2862 
Q 3072 2584 2669 2484 
Q 3125 2378 3379 2068 
Q 3634 1759 3634 1313 
Q 3634 634 3220 271 
Q 2806 -91 2034 -91 
Q 1263 -91 848 271 
Q 434 634 434 1313 
Q 434 1759 690 2068 
Q 947 2378 1403 2484 
z
M 1172 3481 
Q 1172 3119 1398 2916 
Q 1625 2713 2034 2713 
Q 2441 2713 2670 2916 
Q 2900 3119 2900 3481 
Q 2900 3844 2670 4047 
Q 2441 4250 2034 4250 
Q 1625 4250 1398 4047 
Q 1172 3844 1172 3481 
z
" transform="scale(0.015625)"/>
       </defs>
       <use xlink:href="#DejaVuSans-38"/>
       <use xlink:href="#DejaVuSans-30" x="63.623047"/>
      </g>
     </g>
    </g>
    <g id="xtick_6">
     <g id="line2d_6">
      <g>
       <use xlink:href="#m9ba87548b2" x="376.656198" y="252" style="stroke: #000000; stroke-width: 0.8"/>
      </g>
     </g>
     <g id="text_6">
      <!-- 100 -->
      <g transform="translate(367.112448 266.598437)scale(0.1 -0.1)">
       <defs>
        <path id="DejaVuSans-31" d="M 794 531 
L 1825 531 
L 1825 4091 
L 703 3866 
L 703 4441 
L 1819 4666 
L 2450 4666 
L 2450 531 
L 3481 531 
L 3481 0 
L 794 0 
L 794 531 
z
" transform="scale(0.015625)"/>
       </defs>
       <use xlink:href="#DejaVuSans-31"/>
       <use xlink:href="#DejaVuSans-30" x="63.623047"/>
       <use xlink:href="#DejaVuSans-30" x="127.246094"/>
      </g>
     </g>
    </g>
    <g id="text_7">
     <!-- Step -->
     <g transform="translate(210.014844 280.276563)scale(0.1 -0.1)">
      <defs>
       <path id="DejaVuSans-53" d="M 3425 4513 
L 3425 3897 
Q 3066 4069 2747 4153 
Q 2428 4238 2131 4238 
Q 1616 4238 1336 4038 
Q 1056 3838 1056 3469 
Q 1056 3159 1242 3001 
Q 1428 2844 1947 2747 
L 2328 2669 
Q 3034 2534 3370 2195 
Q 3706 1856 3706 1288 
Q 3706 609 3251 259 
Q 2797 -91 1919 -91 
Q 1588 -91 1214 -16 
Q 841 59 441 206 
L 441 856 
Q 825 641 1194 531 
Q 1563 422 1919 422 
Q 2459 422 2753 634 
Q 3047 847 3047 1241 
Q 3047 1584 2836 1778 
Q 2625 1972 2144 2069 
L 1759 2144 
Q 1053 2284 737 2584 
Q 422 2884 422 3419 
Q 422 4038 858 4394 
Q 1294 4750 2059 4750 
Q 2388 4750 2728 4690 
Q 3069 4631 3425 4513 
z
" transform="scale(0.015625)"/>
       <path id="DejaVuSans-74" d="M 1172 4494 
L 1172 3500 
L 2356 3500 
L 2356 3053 
L 1172 3053 
L 1172 1153 
Q 1172 725 1289 603 
Q 1406 481 1766 481 
L 2356 481 
L 2356 0 
L 1766 0 
Q 1100 0 847 248 
Q 594 497 594 1153 
L 594 3053 
L 172 3053 
L 172 3500 
L 594 3500 
L 594 4494 
L 1172 4494 
z
" transform="scale(0.015625)"/>
       <path id="DejaVuSans-65" d="M 3597 1894 
L 3597 1613 
L 953 1613 
Q 991 1019 1311 708 
Q 1631 397 2203 397 
Q 2534 397 2845 478 
Q 3156 559 3463 722 
L 3463 178 
Q 3153 47 2828 -22 
Q 2503 -91 2169 -91 
Q 1331 -91 842 396 
Q 353 884 353 1716 
Q 353 2575 817 3079 
Q 1281 3584 2069 3584 
Q 2775 3584 3186 3129 
Q 3597 2675 3597 1894 
z
M 3022 2063 
Q 3016 2534 2758 2815 
Q 2500 3097 2075 3097 
Q 1594 3097 1305 2825 
Q 1016 2553 972 2059 
L 3022 2063 
z
" transform="scale(0.015625)"/>
       <path id="DejaVuSans-70" d="M 1159 525 
L 1159 -1331 
L 581 -1331 
L 581 3500 
L 1159 3500 
L 1159 2969 
Q 1341 3281 1617 3432 
Q 1894 3584 2278 3584 
Q 2916 3584 3314 3078 
Q 3713 2572 3713 1747 
Q 3713 922 3314 415 
Q 2916 -91 2278 -91 
Q 1894 -91 1617 61 
Q 1341 213 1159 525 
z
M 3116 1747 
Q 3116 2381 2855 2742 
Q 2594 3103 2138 3103 
Q 1681 3103 1420 2742 
Q 1159 2381 1159 1747 
Q 1159 1113 1420 752 
Q 1681 391 2138 391 
Q 2594 391 2855 752 
Q 3116 1113 3116 1747 
z
" transform="scale(0.015625)"/>
      </defs>
      <use xlink:href="#DejaVuSans-53"/>
      <use xlink:href="#DejaVuSans-74" x="63.476562"/>
      <use xlink:href="#DejaVuSans-65" x="102.685547"/>
      <use xlink:href="#DejaVuSans-70" x="164.208984"/>
     </g>
    </g>
   </g>
   <g id="matplotlib.axis_2">
    <g id="ytick_1">
     <g id="line2d_7">
      <defs>
       <path id="mfec8983027" d="M 0 0 
L -3.5 0 
" style="stroke: #000000; stroke-width: 0.8"/>
      </defs>
      <g>
       <use xlink:href="#mfec8983027" x="54" y="242.116364" style="stroke: #000000; stroke-width: 0.8"/>
      </g>
     </g>
     <g id="text_8">
      <!-- 0.0 -->
      <g transform="translate(31.096875 245.915582)scale(0.1 -0.1)">
       <defs>
        <path id="DejaVuSans-2e" d="M 684 794 
L 1344 794 
L 1344 0 
L 684 0 
L 684 794 
z
" transform="scale(0.015625)"/>
       </defs>
       <use xlink:href="#DejaVuSans-30"/>
       <use xlink:href="#DejaVuSans-2e" x="63.623047"/>
       <use xlink:href="#DejaVuSans-30" x="95.410156"/>
      </g>
     </g>
    </g>
    <g id="ytick_2">
     <g id="line2d_8">
      <g>
       <use xlink:href="#mfec8983027" x="54" y="202.581818" style="stroke: #000000; stroke-width: 0.8"/>
      </g>
     </g>
     <g id="text_9">
      <!-- 0.2 -->
      <g transform="translate(31.096875 206.381037)scale(0.1 -0.1)">
       <use xlink:href="#DejaVuSans-30"/>
       <use xlink:href="#DejaVuSans-2e" x="63.623047"/>
       <use xlink:href="#DejaVuSans-32" x="95.410156"/>
      </g>
     </g>
    </g>
    <g id="ytick_3">
     <g id="line2d_9">
      <g>
       <use xlink:href="#mfec8983027" x="54" y="163.047273" style="stroke: #000000; stroke-width: 0.8"/>
      </g>
     </g>
     <g id="text_10">
      <!-- 0.4 -->
      <g transform="translate(31.096875 166.846491)scale(0.1 -0.1)">
       <use xlink:href="#DejaVuSans-30"/>
       <use xlink:href="#DejaVuSans-2e" x="63.623047"/>
       <use xlink:href="#DejaVuSans-34" x="95.410156"/>
      </g>
     </g>
    </g>
    <g id="ytick_4">
     <g id="line2d_10">
      <g>
       <use xlink:href="#mfec8983027" x="54" y="123.512727" style="stroke: #000000; stroke-width: 0.8"/>
      </g>
     </g>
     <g id="text_11">
      <!-- 0.6 -->
      <g transform="translate(31.096875 127.311946)scale(0.1 -0.1)">
       <use xlink:href="#DejaVuSans-30"/>
       <use xlink:href="#DejaVuSans-2e" x="63.623047"/>
       <use xlink:href="#DejaVuSans-36" x="95.410156"/>
      </g>
     </g>
    </g>
    <g id="ytick_5">
     <g id="line2d_11">
      <g>
       <use xlink:href="#mfec8983027" x="54" y="83.978182" style="stroke: #000000; stroke-width: 0.8"/>
      </g>
     </g>
     <g id="text_12">
      <!-- 0.8 -->
      <g transform="translate(31.096875 87.777401)scale(0.1 -0.1)">
       <use xlink:href="#DejaVuSans-30"/>
       <use xlink:href="#DejaVuSans-2e" x="63.623047"/>
       <use xlink:href="#DejaVuSans-38" x="95.410156"/>
      </g>
     </g>
    </g>
    <g id="ytick_6">
     <g id="line2d_12">
      <g>
       <use xlink:href="#mfec8983027" x="54" y="44.443636" style="stroke: #000000; stroke-width: 0.8"/>
      </g>
     </g>
     <g id="text_13">
      <!-- 1.0 -->
      <g transform="translate(31.096875 48.242855)scale(0.1 -0.1)">
       <use xlink:href="#DejaVuSans-31"/>
       <use xlink:href="#DejaVuSans-2e" x="63.623047"/>
       <use xlink:href="#DejaVuSans-30" x="95.410156"/>
      </g>
     </g>
    </g>
    <g id="text_14">
     <!-- Cost value -->
     <g transform="translate(25.017187 169.6425)rotate(-90)scale(0.1 -0.1)">
      <defs>
       <path id="DejaVuSans-43" d="M 4122 4306 
L 4122 3641 
Q 3803 3938 3442 4084 
Q 3081 4231 2675 4231 
Q 1875 4231 1450 3742 
Q 1025 3253 1025 2328 
Q 1025 1406 1450 917 
Q 1875 428 2675 428 
Q 3081 428 3442 575 
Q 3803 722 4122 1019 
L 4122 359 
Q 3791 134 3420 21 
Q 3050 -91 2638 -91 
Q 1578 -91 968 557 
Q 359 1206 359 2328 
Q 359 3453 968 4101 
Q 1578 4750 2638 4750 
Q 3056 4750 3426 4639 
Q 3797 4528 4122 4306 
z
" transform="scale(0.015625)"/>
       <path id="DejaVuSans-6f" d="M 1959 3097 
Q 1497 3097 1228 2736 
Q 959 2375 959 1747 
Q 959 1119 1226 758 
Q 1494 397 1959 397 
Q 2419 397 2687 759 
Q 2956 1122 2956 1747 
Q 2956 2369 2687 2733 
Q 2419 3097 1959 3097 
z
M 1959 3584 
Q 2709 3584 3137 3096 
Q 3566 2609 3566 1747 
Q 3566 888 3137 398 
Q 2709 -91 1959 -91 
Q 1206 -91 779 398 
Q 353 888 353 1747 
Q 353 2609 779 3096 
Q 1206 3584 1959 3584 
z
" transform="scale(0.015625)"/>
       <path id="DejaVuSans-73" d="M 2834 3397 
L 2834 2853 
Q 2591 2978 2328 3040 
Q 2066 3103 1784 3103 
Q 1356 3103 1142 2972 
Q 928 2841 928 2578 
Q 928 2378 1081 2264 
Q 1234 2150 1697 2047 
L 1894 2003 
Q 2506 1872 2764 1633 
Q 3022 1394 3022 966 
Q 3022 478 2636 193 
Q 2250 -91 1575 -91 
Q 1294 -91 989 -36 
Q 684 19 347 128 
L 347 722 
Q 666 556 975 473 
Q 1284 391 1588 391 
Q 1994 391 2212 530 
Q 2431 669 2431 922 
Q 2431 1156 2273 1281 
Q 2116 1406 1581 1522 
L 1381 1569 
Q 847 1681 609 1914 
Q 372 2147 372 2553 
Q 372 3047 722 3315 
Q 1072 3584 1716 3584 
Q 2034 3584 2315 3537 
Q 2597 3491 2834 3397 
z
" transform="scale(0.015625)"/>
       <path id="DejaVuSans-20" transform="scale(0.015625)"/>
       <path id="DejaVuSans-76" d="M 191 3500 
L 800 3500 
L 1894 563 
L 2988 3500 
L 3597 3500 
L 2284 0 
L 1503 0 
L 191 3500 
z
" transform="scale(0.015625)"/>
       <path id="DejaVuSans-61" d="M 2194 1759 
Q 1497 1759 1228 1600 
Q 959 1441 959 1056 
Q 959 750 1161 570 
Q 1363 391 1709 391 
Q 2188 391 2477 730 
Q 2766 1069 2766 1631 
L 2766 1759 
L 2194 1759 
z
M 3341 1997 
L 3341 0 
L 2766 0 
L 2766 531 
Q 2569 213 2275 61 
Q 1981 -91 1556 -91 
Q 1019 -91 701 211 
Q 384 513 384 1019 
Q 384 1609 779 1909 
Q 1175 2209 1959 2209 
L 2766 2209 
L 2766 2266 
Q 2766 2663 2505 2880 
Q 2244 3097 1772 3097 
Q 1472 3097 1187 3025 
Q 903 2953 641 2809 
L 641 3341 
Q 956 3463 1253 3523 
Q 1550 3584 1831 3584 
Q 2591 3584 2966 3190 
Q 3341 2797 3341 1997 
z
" transform="scale(0.015625)"/>
       <path id="DejaVuSans-6c" d="M 603 4863 
L 1178 4863 
L 1178 0 
L 603 0 
L 603 4863 
z
" transform="scale(0.015625)"/>
       <path id="DejaVuSans-75" d="M 544 1381 
L 544 3500 
L 1119 3500 
L 1119 1403 
Q 1119 906 1312 657 
Q 1506 409 1894 409 
Q 2359 409 2629 706 
Q 2900 1003 2900 1516 
L 2900 3500 
L 3475 3500 
L 3475 0 
L 2900 0 
L 2900 538 
Q 2691 219 2414 64 
Q 2138 -91 1772 -91 
Q 1169 -91 856 284 
Q 544 659 544 1381 
z
M 1991 3584 
L 1991 3584 
z
" transform="scale(0.015625)"/>
      </defs>
      <use xlink:href="#DejaVuSans-43"/>
      <use xlink:href="#DejaVuSans-6f" x="69.824219"/>
      <use xlink:href="#DejaVuSans-73" x="131.005859"/>
      <use xlink:href="#DejaVuSans-74" x="183.105469"/>
      <use xlink:href="#DejaVuSans-20" x="222.314453"/>
      <use xlink:href="#DejaVuSans-76" x="254.101562"/>
      <use xlink:href="#DejaVuSans-61" x="313.28125"/>
      <use xlink:href="#DejaVuSans-6c" x="374.560547"/>
      <use xlink:href="#DejaVuSans-75" x="402.34375"/>
      <use xlink:href="#DejaVuSans-65" x="465.722656"/>
     </g>
    </g>
   </g>
   <g id="line2d_13">
    <path d="M 69.218182 51.678458 
L 72.292562 52.528451 
L 75.366942 53.081935 
L 78.441322 52.686589 
L 81.515702 53.773789 
L 84.590083 53.833091 
L 87.664463 53.833091 
L 90.738843 54.169135 
L 93.813223 54.267971 
L 96.887603 54.722618 
L 99.961983 55.730749 
L 103.036364 55.730749 
L 106.110744 57.272596 
L 109.185124 56.95632 
L 112.259504 57.430735 
L 115.333884 57.905149 
L 118.408264 57.687709 
L 121.482645 57.430735 
L 124.557025 57.490036 
L 127.631405 60.494662 
L 130.705785 60.296989 
L 133.780165 59.763273 
L 136.854545 60.356291 
L 139.928926 60.969076 
L 143.003306 61.206284 
L 146.077686 61.977207 
L 149.152066 62.846967 
L 152.226446 63.301615 
L 155.300826 64.369047 
L 158.375207 65.139971 
L 161.449587 64.369047 
L 164.523967 64.606255 
L 167.598347 65.377178 
L 170.672727 66.780655 
L 173.747107 68.203898 
L 176.821488 68.04576 
L 179.895868 68.203898 
L 182.970248 69.449236 
L 186.044628 70.575971 
L 189.119008 71.505033 
L 192.193388 72.117818 
L 195.267769 73.244553 
L 198.342149 72.414327 
L 201.416529 73.382924 
L 204.490909 74.964305 
L 207.565289 76.130575 
L 210.639669 74.806167 
L 213.71405 76.921265 
L 216.78843 78.799156 
L 219.86281 79.115433 
L 222.93719 80.084029 
L 226.01157 80.934022 
L 229.08595 81.388669 
L 232.160331 82.317731 
L 235.234711 83.899113 
L 238.309091 85.381658 
L 241.383471 85.974676 
L 244.457851 86.982807 
L 247.532231 88.089775 
L 250.606612 88.406051 
L 253.680992 87.793265 
L 256.755372 89.256044 
L 259.829752 90.639753 
L 262.904132 93.92112 
L 265.978512 94.949018 
L 269.052893 94.731578 
L 272.127273 96.31296 
L 275.201653 98.092015 
L 278.276033 97.696669 
L 281.350413 98.685033 
L 284.424793 100.602458 
L 287.499174 101.847796 
L 290.573554 103.508247 
L 293.647934 104.496611 
L 296.722314 105.840785 
L 299.796694 106.433804 
L 302.871074 109.220989 
L 305.945455 109.438429 
L 309.019835 112.383753 
L 312.094215 113.530255 
L 315.168595 117.483709 
L 318.242975 115.388378 
L 321.317355 118.313935 
L 324.391736 119.895316 
L 327.466116 120.508102 
L 330.540496 121.259258 
L 333.614876 123.829004 
L 336.689256 124.876669 
L 339.763636 125.568524 
L 342.838017 126.339447 
L 345.912397 126.675491 
L 348.986777 128.454545 
L 352.061157 130.253367 
L 355.135537 130.866153 
L 358.209917 132.941716 
L 361.284298 133.613804 
L 364.358678 133.71264 
L 367.433058 134.048684 
L 370.507438 135.037047 
L 373.581818 136.638196 
" clip-path="url(#p099b1a78d1)" style="fill: none; stroke: #1f77b4; stroke-width: 1.5; stroke-linecap: square"/>
   </g>
   <g id="line2d_14">
    <path d="M 69.218182 65.574851 
L 72.292562 80.261935 
L 75.366942 101.808262 
L 78.441322 120.4488 
L 81.515702 136.440524 
L 84.590083 139.010269 
L 87.664463 141.797455 
L 90.738843 146.442764 
L 93.813223 150.159011 
L 96.887603 150.870633 
L 99.961983 156.425236 
L 103.036364 166.368175 
L 106.110744 173.800669 
L 109.185124 178.623884 
L 112.259504 181.272698 
L 115.333884 179.533178 
L 118.408264 178.445978 
L 121.482645 179.118065 
L 124.557025 180.402938 
L 127.631405 183.447098 
L 130.705785 185.344756 
L 133.780165 185.324989 
L 136.854545 183.644771 
L 139.928926 184.929644 
L 143.003306 185.344756 
L 146.077686 184.850575 
L 149.152066 187.143578 
L 152.226446 187.262182 
L 155.300826 186.313353 
L 158.375207 186.728465 
L 161.449587 187.42032 
L 164.523967 187.598225 
L 167.598347 187.400553 
L 170.672727 189.258676 
L 173.747107 190.840058 
L 176.821488 189.990065 
L 179.895868 190.0296 
L 182.970248 189.910996 
L 186.044628 190.385411 
L 189.119008 189.179607 
L 192.193388 189.238909 
L 195.267769 189.15984 
L 198.342149 189.930764 
L 201.416529 190.721455 
L 204.490909 190.187738 
L 207.565289 189.59472 
L 210.639669 190.741222 
L 213.71405 190.069135 
L 216.78843 190.642385 
L 219.86281 190.701687 
L 222.93719 190.859825 
L 226.01157 189.733091 
L 229.08595 188.804029 
L 232.160331 189.81216 
L 235.234711 190.919127 
L 238.309091 189.179607 
L 241.383471 191.650516 
L 244.457851 190.504015 
L 247.532231 190.622618 
L 250.606612 189.970298 
L 253.680992 189.950531 
L 256.755372 188.606356 
L 259.829752 189.219142 
L 262.904132 189.891229 
L 265.978512 191.354007 
L 269.052893 191.195869 
L 272.127273 190.642385 
L 275.201653 191.156335 
L 278.276033 189.456349 
L 281.350413 189.81216 
L 284.424793 190.879593 
L 287.499174 191.176102 
L 290.573554 190.938895 
L 293.647934 189.298211 
L 296.722314 190.444713 
L 299.796694 190.543549 
L 302.871074 190.069135 
L 305.945455 192.342371 
L 309.019835 190.662153 
L 312.094215 191.690051 
L 315.168595 190.642385 
L 318.242975 189.673789 
L 321.317355 189.693556 
L 324.391736 190.563316 
L 327.466116 191.531913 
L 330.540496 190.840058 
L 333.614876 191.373775 
L 336.689256 191.215636 
L 339.763636 190.405178 
L 342.838017 190.227273 
L 345.912397 189.970298 
L 348.986777 191.33424 
L 352.061157 191.690051 
L 355.135537 190.345876 
L 358.209917 191.176102 
L 361.284298 190.820291 
L 364.358678 189.891229 
L 367.433058 191.195869 
L 370.507438 191.571447 
L 373.581818 190.543549 
" clip-path="url(#p099b1a78d1)" style="fill: none; stroke: #ff7f0e; stroke-width: 1.5; stroke-linecap: square"/>
   </g>
   <g id="line2d_15">
    <path d="M 69.218182 53.002865 
L 72.292562 54.287738 
L 75.366942 55.572611 
L 78.441322 57.529571 
L 81.515702 60.00048 
L 84.590083 61.759767 
L 87.664463 63.103942 
L 90.738843 65.910895 
L 93.813223 68.856218 
L 96.887603 72.631767 
L 99.961983 74.509658 
L 103.036364 76.74336 
L 106.110744 80.479375 
L 109.185124 84.017716 
L 112.259504 90.106036 
L 115.333884 95.047855 
L 118.408264 99.001309 
L 121.482645 103.448945 
L 124.557025 109.754705 
L 127.631405 116.159302 
L 130.705785 120.824378 
L 133.780165 127.920829 
L 136.854545 133.732407 
L 139.928926 135.807971 
L 143.003306 140.275375 
L 146.077686 140.23584 
L 149.152066 141.560247 
L 152.226446 143.181164 
L 155.300826 144.268364 
L 158.375207 147.075316 
L 161.449587 143.912553 
L 164.523967 144.3672 
L 167.598347 144.327665 
L 170.672727 145.928815 
L 173.747107 144.782313 
L 176.821488 146.561367 
L 179.895868 147.371825 
L 182.970248 145.909047 
L 186.044628 147.688102 
L 189.119008 147.925309 
L 192.193388 148.202051 
L 195.267769 146.5416 
L 198.342149 149.071811 
L 201.416529 149.111345 
L 204.490909 149.388087 
L 207.565289 149.902036 
L 210.639669 152.254342 
L 213.71405 152.669455 
L 216.78843 152.62992 
L 219.86281 153.618284 
L 222.93719 154.053164 
L 226.01157 155.911287 
L 229.08595 157.235695 
L 232.160331 162.177513 
L 235.234711 160.181018 
L 238.309091 162.474022 
L 241.383471 163.778662 
L 244.457851 165.043767 
L 247.532231 167.41584 
L 250.606612 169.273964 
L 253.680992 170.46 
L 256.755372 173.425091 
L 259.829752 174.176247 
L 262.904132 176.133207 
L 265.978512 175.896 
L 269.052893 179.394807 
L 272.127273 178.129702 
L 275.201653 178.623884 
L 278.276033 180.659913 
L 281.350413 181.312233 
L 284.424793 180.89712 
L 287.499174 181.193629 
L 290.573554 181.608742 
L 293.647934 181.272698 
L 296.722314 183.269193 
L 299.796694 183.031985 
L 302.871074 184.890109 
L 305.945455 183.980815 
L 309.019835 182.893615 
L 312.094215 183.704073 
L 315.168595 182.814545 
L 318.242975 185.147084 
L 321.317355 185.641265 
L 324.391736 185.048247 
L 327.466116 184.534298 
L 330.540496 183.664538 
L 333.614876 185.206385 
L 336.689256 184.870342 
L 339.763636 184.455229 
L 342.838017 185.166851 
L 345.912397 186.807535 
L 348.986777 186.076145 
L 352.061157 183.72384 
L 355.135537 185.364524 
L 358.209917 184.969178 
L 361.284298 184.474996 
L 364.358678 185.384291 
L 367.433058 184.890109 
L 370.507438 185.740102 
L 373.581818 187.123811 
" clip-path="url(#p099b1a78d1)" style="fill: none; stroke: #2ca02c; stroke-width: 1.5; stroke-linecap: square"/>
   </g>
   <g id="line2d_16">
    <path d="M 69.218182 52.785425 
L 72.292562 52.666822 
L 75.366942 53.536582 
L 78.441322 53.793556 
L 81.515702 54.169135 
L 84.590083 54.030764 
L 87.664463 55.750516 
L 90.738843 55.177265 
L 93.813223 55.612145 
L 96.887603 55.592378 
L 99.961983 56.679578 
L 103.036364 56.837716 
L 106.110744 58.4784 
L 109.185124 57.707476 
L 112.259504 59.051651 
L 115.333884 59.308625 
L 118.408264 59.407462 
L 121.482645 61.206284 
L 124.557025 61.008611 
L 127.631405 61.759767 
L 130.705785 62.135345 
L 133.780165 63.183011 
L 136.854545 64.626022 
L 139.928926 64.487651 
L 143.003306 64.843462 
L 146.077686 66.108567 
L 149.152066 66.642284 
L 152.226446 67.61088 
L 155.300826 67.452742 
L 158.375207 68.203898 
L 161.449587 69.113193 
L 164.523967 69.706211 
L 167.598347 70.773644 
L 170.672727 69.528305 
L 173.747107 73.718967 
L 176.821488 72.038749 
L 179.895868 73.244553 
L 182.970248 74.944538 
L 186.044628 76.52592 
L 189.119008 77.61312 
L 192.193388 76.52592 
L 195.267769 79.214269 
L 198.342149 78.759622 
L 201.416529 79.194502 
L 204.490909 80.380538 
L 207.565289 81.764247 
L 210.639669 84.432829 
L 213.71405 83.523535 
L 216.78843 85.757236 
L 219.86281 85.87584 
L 222.93719 88.030473 
L 226.01157 89.117673 
L 229.08595 90.303709 
L 232.160331 90.995564 
L 235.234711 91.469978 
L 238.309091 93.090895 
L 241.383471 95.028087 
L 244.457851 97.024582 
L 247.532231 97.538531 
L 250.606612 99.633862 
L 253.680992 100.582691 
L 256.755372 100.898967 
L 259.829752 103.824524 
L 262.904132 104.516378 
L 265.978512 106.018691 
L 269.052893 107.086124 
L 272.127273 109.5768 
L 275.201653 108.845411 
L 278.276033 111.988407 
L 281.350413 112.522124 
L 284.424793 115.091869 
L 287.499174 118.215098 
L 290.573554 117.799985 
L 293.647934 118.887185 
L 296.722314 119.954618 
L 299.796694 121.773207 
L 302.871074 123.749935 
L 305.945455 124.876669 
L 309.019835 126.715025 
L 312.094215 129.561513 
L 315.168595 130.312669 
L 318.242975 130.984756 
L 321.317355 131.3208 
L 324.391736 137.033542 
L 327.466116 136.677731 
L 330.540496 137.231215 
L 333.614876 138.081207 
L 336.689256 141.935825 
L 339.763636 142.252102 
L 342.838017 144.327665 
L 345.912397 146.185789 
L 348.986777 147.016015 
L 352.061157 149.625295 
L 355.135537 150.257847 
L 358.209917 154.072931 
L 361.284298 152.649687 
L 364.358678 153.539215 
L 367.433058 156.029891 
L 370.507438 157.789178 
L 373.581818 156.721745 
" clip-path="url(#p099b1a78d1)" style="fill: none; stroke: #d62728; stroke-width: 1.5; stroke-linecap: square"/>
   </g>
   <g id="line2d_17">
    <path d="M 69.218182 62.095811 
L 72.292562 79.649149 
L 75.366942 93.308335 
L 78.441322 100.44432 
L 81.515702 109.14192 
L 84.590083 121.812742 
L 87.664463 138.081207 
L 90.738843 143.71488 
L 93.813223 147.549731 
L 96.887603 149.961338 
L 99.961983 153.875258 
L 103.036364 157.374065 
L 106.110744 161.090313 
L 109.185124 163.778662 
L 112.259504 169.135593 
L 115.333884 171.132087 
L 118.408264 172.357658 
L 121.482645 174.413455 
L 124.557025 175.737862 
L 127.631405 176.350647 
L 130.705785 178.623884 
L 133.780165 180.521542 
L 136.854545 178.920393 
L 139.928926 183.704073 
L 143.003306 182.181993 
L 146.077686 183.486633 
L 149.152066 183.545935 
L 152.226446 185.226153 
L 155.300826 187.459855 
L 158.375207 185.087782 
L 161.449587 185.581964 
L 164.523967 186.036611 
L 167.598347 189.061004 
L 170.672727 187.123811 
L 173.747107 187.894735 
L 176.821488 188.744727 
L 179.895868 187.361018 
L 182.970248 186.906371 
L 186.044628 186.926138 
L 189.119008 188.151709 
L 192.193388 189.15984 
L 195.267769 188.547055 
L 198.342149 189.614487 
L 201.416529 188.369149 
L 204.490909 188.883098 
L 207.565289 188.467985 
L 210.639669 190.128436 
L 213.71405 189.752858 
L 216.78843 188.883098 
L 219.86281 189.574953 
L 222.93719 188.902865 
L 226.01157 189.970298 
L 229.08595 189.199375 
L 232.160331 189.634255 
L 235.234711 189.416815 
L 238.309091 190.266807 
L 241.383471 189.021469 
L 244.457851 189.990065 
L 247.532231 191.55168 
L 250.606612 188.566822 
L 253.680992 192.006327 
L 256.755372 189.080771 
L 259.829752 189.298211 
L 262.904132 190.266807 
L 265.978512 188.527287 
L 269.052893 190.938895 
L 272.127273 190.128436 
L 275.201653 190.760989 
L 278.276033 191.097033 
L 281.350413 189.120305 
L 284.424793 191.531913 
L 287.499174 192.223767 
L 290.573554 189.535418 
L 293.647934 191.670284 
L 296.722314 190.760989 
L 299.796694 189.634255 
L 302.871074 190.088902 
L 305.945455 190.286575 
L 309.019835 190.405178 
L 312.094215 190.405178 
L 315.168595 190.46448 
L 318.242975 189.772625 
L 321.317355 190.424945 
L 324.391736 191.887724 
L 327.466116 189.970298 
L 330.540496 188.863331 
L 333.614876 189.614487 
L 336.689256 191.354007 
L 339.763636 189.831927 
L 342.838017 189.140073 
L 345.912397 191.156335 
L 348.986777 189.792393 
L 352.061157 191.76912 
L 355.135537 189.733091 
L 358.209917 191.1168 
L 361.284298 189.654022 
L 364.358678 189.930764 
L 367.433058 190.938895 
L 370.507438 190.069135 
L 373.581818 191.097033 
" clip-path="url(#p099b1a78d1)" style="fill: none; stroke: #9467bd; stroke-width: 1.5; stroke-linecap: square"/>
   </g>
   <g id="patch_3">
    <path d="M 54 252 
L 54 34.56 
" style="fill: none; stroke: #000000; stroke-width: 0.8; stroke-linejoin: miter; stroke-linecap: square"/>
   </g>
   <g id="patch_4">
    <path d="M 388.8 252 
L 388.8 34.56 
" style="fill: none; stroke: #000000; stroke-width: 0.8; stroke-linejoin: miter; stroke-linecap: square"/>
   </g>
   <g id="patch_5">
    <path d="M 54 252 
L 388.8 252 
" style="fill: none; stroke: #000000; stroke-width: 0.8; stroke-linejoin: miter; stroke-linecap: square"/>
   </g>
   <g id="patch_6">
    <path d="M 54 34.56 
L 388.8 34.56 
" style="fill: none; stroke: #000000; stroke-width: 0.8; stroke-linejoin: miter; stroke-linecap: square"/>
   </g>
   <g id="legend_1">
    <g id="patch_7">
     <path d="M 290.1325 99.6725 
L 383.2 99.6725 
Q 384.8 99.6725 384.8 98.0725 
L 384.8 40.16 
Q 384.8 38.56 383.2 38.56 
L 290.1325 38.56 
Q 288.5325 38.56 288.5325 40.16 
L 288.5325 98.0725 
Q 288.5325 99.6725 290.1325 99.6725 
z
" style="fill: #ffffff; opacity: 0.8; stroke: #cccccc; stroke-linejoin: miter"/>
    </g>
    <g id="line2d_18">
     <path d="M 291.7325 45.03875 
L 299.7325 45.03875 
L 307.7325 45.03875 
" style="fill: none; stroke: #1f77b4; stroke-width: 1.5; stroke-linecap: square"/>
    </g>
    <g id="text_15">
     <!-- SGD -->
     <g transform="translate(314.1325 47.83875)scale(0.08 -0.08)">
      <defs>
       <path id="DejaVuSans-47" d="M 3809 666 
L 3809 1919 
L 2778 1919 
L 2778 2438 
L 4434 2438 
L 4434 434 
Q 4069 175 3628 42 
Q 3188 -91 2688 -91 
Q 1594 -91 976 548 
Q 359 1188 359 2328 
Q 359 3472 976 4111 
Q 1594 4750 2688 4750 
Q 3144 4750 3555 4637 
Q 3966 4525 4313 4306 
L 4313 3634 
Q 3963 3931 3569 4081 
Q 3175 4231 2741 4231 
Q 1884 4231 1454 3753 
Q 1025 3275 1025 2328 
Q 1025 1384 1454 906 
Q 1884 428 2741 428 
Q 3075 428 3337 486 
Q 3600 544 3809 666 
z
" transform="scale(0.015625)"/>
       <path id="DejaVuSans-44" d="M 1259 4147 
L 1259 519 
L 2022 519 
Q 2988 519 3436 956 
Q 3884 1394 3884 2338 
Q 3884 3275 3436 3711 
Q 2988 4147 2022 4147 
L 1259 4147 
z
M 628 4666 
L 1925 4666 
Q 3281 4666 3915 4102 
Q 4550 3538 4550 2338 
Q 4550 1131 3912 565 
Q 3275 0 1925 0 
L 628 0 
L 628 4666 
z
" transform="scale(0.015625)"/>
      </defs>
      <use xlink:href="#DejaVuSans-53"/>
      <use xlink:href="#DejaVuSans-47" x="63.476562"/>
      <use xlink:href="#DejaVuSans-44" x="140.966797"/>
     </g>
    </g>
    <g id="line2d_19">
     <path d="M 291.7325 56.78125 
L 299.7325 56.78125 
L 307.7325 56.78125 
" style="fill: none; stroke: #ff7f0e; stroke-width: 1.5; stroke-linecap: square"/>
    </g>
    <g id="text_16">
     <!-- Adam -->
     <g transform="translate(314.1325 59.58125)scale(0.08 -0.08)">
      <defs>
       <path id="DejaVuSans-41" d="M 2188 4044 
L 1331 1722 
L 3047 1722 
L 2188 4044 
z
M 1831 4666 
L 2547 4666 
L 4325 0 
L 3669 0 
L 3244 1197 
L 1141 1197 
L 716 0 
L 50 0 
L 1831 4666 
z
" transform="scale(0.015625)"/>
       <path id="DejaVuSans-64" d="M 2906 2969 
L 2906 4863 
L 3481 4863 
L 3481 0 
L 2906 0 
L 2906 525 
Q 2725 213 2448 61 
Q 2172 -91 1784 -91 
Q 1150 -91 751 415 
Q 353 922 353 1747 
Q 353 2572 751 3078 
Q 1150 3584 1784 3584 
Q 2172 3584 2448 3432 
Q 2725 3281 2906 2969 
z
M 947 1747 
Q 947 1113 1208 752 
Q 1469 391 1925 391 
Q 2381 391 2643 752 
Q 2906 1113 2906 1747 
Q 2906 2381 2643 2742 
Q 2381 3103 1925 3103 
Q 1469 3103 1208 2742 
Q 947 2381 947 1747 
z
" transform="scale(0.015625)"/>
       <path id="DejaVuSans-6d" d="M 3328 2828 
Q 3544 3216 3844 3400 
Q 4144 3584 4550 3584 
Q 5097 3584 5394 3201 
Q 5691 2819 5691 2113 
L 5691 0 
L 5113 0 
L 5113 2094 
Q 5113 2597 4934 2840 
Q 4756 3084 4391 3084 
Q 3944 3084 3684 2787 
Q 3425 2491 3425 1978 
L 3425 0 
L 2847 0 
L 2847 2094 
Q 2847 2600 2669 2842 
Q 2491 3084 2119 3084 
Q 1678 3084 1418 2786 
Q 1159 2488 1159 1978 
L 1159 0 
L 581 0 
L 581 3500 
L 1159 3500 
L 1159 2956 
Q 1356 3278 1631 3431 
Q 1906 3584 2284 3584 
Q 2666 3584 2933 3390 
Q 3200 3197 3328 2828 
z
" transform="scale(0.015625)"/>
      </defs>
      <use xlink:href="#DejaVuSans-41"/>
      <use xlink:href="#DejaVuSans-64" x="66.658203"/>
      <use xlink:href="#DejaVuSans-61" x="130.134766"/>
      <use xlink:href="#DejaVuSans-6d" x="191.414062"/>
     </g>
    </g>
    <g id="line2d_20">
     <path d="M 291.7325 68.52375 
L 299.7325 68.52375 
L 307.7325 68.52375 
" style="fill: none; stroke: #2ca02c; stroke-width: 1.5; stroke-linecap: square"/>
    </g>
    <g id="text_17">
     <!-- QNG-QFSM -->
     <g transform="translate(314.1325 71.32375)scale(0.08 -0.08)">
      <defs>
       <path id="DejaVuSans-51" d="M 2522 4238 
Q 1834 4238 1429 3725 
Q 1025 3213 1025 2328 
Q 1025 1447 1429 934 
Q 1834 422 2522 422 
Q 3209 422 3611 934 
Q 4013 1447 4013 2328 
Q 4013 3213 3611 3725 
Q 3209 4238 2522 4238 
z
M 3406 84 
L 4238 -825 
L 3475 -825 
L 2784 -78 
Q 2681 -84 2626 -87 
Q 2572 -91 2522 -91 
Q 1538 -91 948 567 
Q 359 1225 359 2328 
Q 359 3434 948 4092 
Q 1538 4750 2522 4750 
Q 3503 4750 4090 4092 
Q 4678 3434 4678 2328 
Q 4678 1516 4351 937 
Q 4025 359 3406 84 
z
" transform="scale(0.015625)"/>
       <path id="DejaVuSans-4e" d="M 628 4666 
L 1478 4666 
L 3547 763 
L 3547 4666 
L 4159 4666 
L 4159 0 
L 3309 0 
L 1241 3903 
L 1241 0 
L 628 0 
L 628 4666 
z
" transform="scale(0.015625)"/>
       <path id="DejaVuSans-2d" d="M 313 2009 
L 1997 2009 
L 1997 1497 
L 313 1497 
L 313 2009 
z
" transform="scale(0.015625)"/>
       <path id="DejaVuSans-46" d="M 628 4666 
L 3309 4666 
L 3309 4134 
L 1259 4134 
L 1259 2759 
L 3109 2759 
L 3109 2228 
L 1259 2228 
L 1259 0 
L 628 0 
L 628 4666 
z
" transform="scale(0.015625)"/>
       <path id="DejaVuSans-4d" d="M 628 4666 
L 1569 4666 
L 2759 1491 
L 3956 4666 
L 4897 4666 
L 4897 0 
L 4281 0 
L 4281 4097 
L 3078 897 
L 2444 897 
L 1241 4097 
L 1241 0 
L 628 0 
L 628 4666 
z
" transform="scale(0.015625)"/>
      </defs>
      <use xlink:href="#DejaVuSans-51"/>
      <use xlink:href="#DejaVuSans-4e" x="78.710938"/>
      <use xlink:href="#DejaVuSans-47" x="153.515625"/>
      <use xlink:href="#DejaVuSans-2d" x="231.005859"/>
      <use xlink:href="#DejaVuSans-51" x="270.714844"/>
      <use xlink:href="#DejaVuSans-46" x="349.425781"/>
      <use xlink:href="#DejaVuSans-53" x="405.195312"/>
      <use xlink:href="#DejaVuSans-4d" x="468.671875"/>
     </g>
    </g>
    <g id="line2d_21">
     <path d="M 291.7325 80.26625 
L 299.7325 80.26625 
L 307.7325 80.26625 
" style="fill: none; stroke: #d62728; stroke-width: 1.5; stroke-linecap: square"/>
    </g>
    <g id="text_18">
     <!-- QNG-QFIM -->
     <g transform="translate(314.1325 83.06625)scale(0.08 -0.08)">
      <defs>
       <path id="DejaVuSans-49" d="M 628 4666 
L 1259 4666 
L 1259 0 
L 628 0 
L 628 4666 
z
" transform="scale(0.015625)"/>
      </defs>
      <use xlink:href="#DejaVuSans-51"/>
      <use xlink:href="#DejaVuSans-4e" x="78.710938"/>
      <use xlink:href="#DejaVuSans-47" x="153.515625"/>
      <use xlink:href="#DejaVuSans-2d" x="231.005859"/>
      <use xlink:href="#DejaVuSans-51" x="270.714844"/>
      <use xlink:href="#DejaVuSans-46" x="349.425781"/>
      <use xlink:href="#DejaVuSans-49" x="406.945312"/>
      <use xlink:href="#DejaVuSans-4d" x="436.4375"/>
     </g>
    </g>
    <g id="line2d_22">
     <path d="M 291.7325 92.00875 
L 299.7325 92.00875 
L 307.7325 92.00875 
" style="fill: none; stroke: #9467bd; stroke-width: 1.5; stroke-linecap: square"/>
    </g>
    <g id="text_19">
     <!-- Adam QNG-QFIM -->
     <g transform="translate(314.1325 94.80875)scale(0.08 -0.08)">
      <use xlink:href="#DejaVuSans-41"/>
      <use xlink:href="#DejaVuSans-64" x="66.658203"/>
      <use xlink:href="#DejaVuSans-61" x="130.134766"/>
      <use xlink:href="#DejaVuSans-6d" x="191.414062"/>
      <use xlink:href="#DejaVuSans-20" x="288.826172"/>
      <use xlink:href="#DejaVuSans-51" x="320.613281"/>
      <use xlink:href="#DejaVuSans-4e" x="399.324219"/>
      <use xlink:href="#DejaVuSans-47" x="474.128906"/>
      <use xlink:href="#DejaVuSans-2d" x="551.619141"/>
      <use xlink:href="#DejaVuSans-51" x="591.328125"/>
      <use xlink:href="#DejaVuSans-46" x="670.039062"/>
      <use xlink:href="#DejaVuSans-49" x="727.558594"/>
      <use xlink:href="#DejaVuSans-4d" x="757.050781"/>
     </g>
    </g>
   </g>
  </g>
 </g>
 <defs>
  <clipPath id="p099b1a78d1">
   <rect x="54" y="34.56" width="334.8" height="217.44"/>
  </clipPath>
 </defs>
</svg>
