<?xml version="1.0" encoding="utf-8" standalone="no"?>
<!DOCTYPE svg PUBLIC "-//W3C//DTD SVG 1.1//EN"
  "http://www.w3.org/Graphics/SVG/1.1/DTD/svg11.dtd">
<svg xmlns:xlink="http://www.w3.org/1999/xlink" width="432pt" height="288pt" viewBox="0 0 432 288" xmlns="http://www.w3.org/2000/svg" version="1.1">
 <metadata>
  <rdf:RDF xmlns:dc="http://purl.org/dc/elements/1.1/" xmlns:cc="http://creativecommons.org/ns#" xmlns:rdf="http://www.w3.org/1999/02/22-rdf-syntax-ns#">
   <cc:Work>
    <dc:type rdf:resource="http://purl.org/dc/dcmitype/StillImage"/>
    <dc:date>2022-01-22T20:05:07.854219</dc:date>
    <dc:format>image/svg+xml</dc:format>
    <dc:creator>
     <cc:Agent>
      <dc:title>Matplotlib v3.5.0, https://matplotlib.org/</dc:title>
     </cc:Agent>
    </dc:creator>
   </cc:Work>
  </rdf:RDF>
 </metadata>
 <defs>
  <style type="text/css">*{stroke-linejoin: round; stroke-linecap: butt}</style>
 </defs>
 <g id="figure_1">
  <g id="patch_1">
   <path d="M 0 288 
L 432 288 
L 432 0 
L 0 0 
L 0 288 
z
" style="fill: none"/>
  </g>
  <g id="axes_1">
   <g id="patch_2">
    <path d="M 54 252 
L 388.8 252 
L 388.8 34.56 
L 54 34.56 
z
" style="fill: #ffffff"/>
   </g>
   <g id="matplotlib.axis_1">
    <g id="xtick_1">
     <g id="line2d_1">
      <defs>
       <path id="mf69f1f2b9b" d="M 0 0 
L 0 3.5 
" style="stroke: #000000; stroke-width: 0.8"/>
      </defs>
      <g>
       <use xlink:href="#mf69f1f2b9b" x="69.218182" y="252" style="stroke: #000000; stroke-width: 0.8"/>
      </g>
     </g>
     <g id="text_1">
      <!-- 0 -->
      <g transform="translate(66.036932 266.598437)scale(0.1 -0.1)">
       <defs>
        <path id="DejaVuSans-30" d="M 2034 4250 
Q 1547 4250 1301 3770 
Q 1056 3291 1056 2328 
Q 1056 1369 1301 889 
Q 1547 409 2034 409 
Q 2525 409 2770 889 
Q 3016 1369 3016 2328 
Q 3016 3291 2770 3770 
Q 2525 4250 2034 4250 
z
M 2034 4750 
Q 2819 4750 3233 4129 
Q 3647 3509 3647 2328 
Q 3647 1150 3233 529 
Q 2819 -91 2034 -91 
Q 1250 -91 836 529 
Q 422 1150 422 2328 
Q 422 3509 836 4129 
Q 1250 4750 2034 4750 
z
" transform="scale(0.015625)"/>
       </defs>
       <use xlink:href="#DejaVuSans-30"/>
      </g>
     </g>
    </g>
    <g id="xtick_2">
     <g id="line2d_2">
      <g>
       <use xlink:href="#mf69f1f2b9b" x="130.705785" y="252" style="stroke: #000000; stroke-width: 0.8"/>
      </g>
     </g>
     <g id="text_2">
      <!-- 20 -->
      <g transform="translate(124.343285 266.598437)scale(0.1 -0.1)">
       <defs>
        <path id="DejaVuSans-32" d="M 1228 531 
L 3431 531 
L 3431 0 
L 469 0 
L 469 531 
Q 828 903 1448 1529 
Q 2069 2156 2228 2338 
Q 2531 2678 2651 2914 
Q 2772 3150 2772 3378 
Q 2772 3750 2511 3984 
Q 2250 4219 1831 4219 
Q 1534 4219 1204 4116 
Q 875 4013 500 3803 
L 500 4441 
Q 881 4594 1212 4672 
Q 1544 4750 1819 4750 
Q 2544 4750 2975 4387 
Q 3406 4025 3406 3419 
Q 3406 3131 3298 2873 
Q 3191 2616 2906 2266 
Q 2828 2175 2409 1742 
Q 1991 1309 1228 531 
z
" transform="scale(0.015625)"/>
       </defs>
       <use xlink:href="#DejaVuSans-32"/>
       <use xlink:href="#DejaVuSans-30" x="63.623047"/>
      </g>
     </g>
    </g>
    <g id="xtick_3">
     <g id="line2d_3">
      <g>
       <use xlink:href="#mf69f1f2b9b" x="192.193388" y="252" style="stroke: #000000; stroke-width: 0.8"/>
      </g>
     </g>
     <g id="text_3">
      <!-- 40 -->
      <g transform="translate(185.830888 266.598437)scale(0.1 -0.1)">
       <defs>
        <path id="DejaVuSans-34" d="M 2419 4116 
L 825 1625 
L 2419 1625 
L 2419 4116 
z
M 2253 4666 
L 3047 4666 
L 3047 1625 
L 3713 1625 
L 3713 1100 
L 3047 1100 
L 3047 0 
L 2419 0 
L 2419 1100 
L 313 1100 
L 313 1709 
L 2253 4666 
z
" transform="scale(0.015625)"/>
       </defs>
       <use xlink:href="#DejaVuSans-34"/>
       <use xlink:href="#DejaVuSans-30" x="63.623047"/>
      </g>
     </g>
    </g>
    <g id="xtick_4">
     <g id="line2d_4">
      <g>
       <use xlink:href="#mf69f1f2b9b" x="253.680992" y="252" style="stroke: #000000; stroke-width: 0.8"/>
      </g>
     </g>
     <g id="text_4">
      <!-- 60 -->
      <g transform="translate(247.318492 266.598437)scale(0.1 -0.1)">
       <defs>
        <path id="DejaVuSans-36" d="M 2113 2584 
Q 1688 2584 1439 2293 
Q 1191 2003 1191 1497 
Q 1191 994 1439 701 
Q 1688 409 2113 409 
Q 2538 409 2786 701 
Q 3034 994 3034 1497 
Q 3034 2003 2786 2293 
Q 2538 2584 2113 2584 
z
M 3366 4563 
L 3366 3988 
Q 3128 4100 2886 4159 
Q 2644 4219 2406 4219 
Q 1781 4219 1451 3797 
Q 1122 3375 1075 2522 
Q 1259 2794 1537 2939 
Q 1816 3084 2150 3084 
Q 2853 3084 3261 2657 
Q 3669 2231 3669 1497 
Q 3669 778 3244 343 
Q 2819 -91 2113 -91 
Q 1303 -91 875 529 
Q 447 1150 447 2328 
Q 447 3434 972 4092 
Q 1497 4750 2381 4750 
Q 2619 4750 2861 4703 
Q 3103 4656 3366 4563 
z
" transform="scale(0.015625)"/>
       </defs>
       <use xlink:href="#DejaVuSans-36"/>
       <use xlink:href="#DejaVuSans-30" x="63.623047"/>
      </g>
     </g>
    </g>
    <g id="xtick_5">
     <g id="line2d_5">
      <g>
       <use xlink:href="#mf69f1f2b9b" x="315.168595" y="252" style="stroke: #000000; stroke-width: 0.8"/>
      </g>
     </g>
     <g id="text_5">
      <!-- 80 -->
      <g transform="translate(308.806095 266.598437)scale(0.1 -0.1)">
       <defs>
        <path id="DejaVuSans-38" d="M 2034 2216 
Q 1584 2216 1326 1975 
Q 1069 1734 1069 1313 
Q 1069 891 1326 650 
Q 1584 409 2034 409 
Q 2484 409 2743 651 
Q 3003 894 3003 1313 
Q 3003 1734 2745 1975 
Q 2488 2216 2034 2216 
z
M 1403 2484 
Q 997 2584 770 2862 
Q 544 3141 544 3541 
Q 544 4100 942 4425 
Q 1341 4750 2034 4750 
Q 2731 4750 3128 4425 
Q 3525 4100 3525 3541 
Q 3525 3141 3298 2862 
Q 3072 2584 2669 2484 
Q 3125 2378 3379 2068 
Q 3634 1759 3634 1313 
Q 3634 634 3220 271 
Q 2806 -91 2034 -91 
Q 1263 -91 848 271 
Q 434 634 434 1313 
Q 434 1759 690 2068 
Q 947 2378 1403 2484 
z
M 1172 3481 
Q 1172 3119 1398 2916 
Q 1625 2713 2034 2713 
Q 2441 2713 2670 2916 
Q 2900 3119 2900 3481 
Q 2900 3844 2670 4047 
Q 2441 4250 2034 4250 
Q 1625 4250 1398 4047 
Q 1172 3844 1172 3481 
z
" transform="scale(0.015625)"/>
       </defs>
       <use xlink:href="#DejaVuSans-38"/>
       <use xlink:href="#DejaVuSans-30" x="63.623047"/>
      </g>
     </g>
    </g>
    <g id="xtick_6">
     <g id="line2d_6">
      <g>
       <use xlink:href="#mf69f1f2b9b" x="376.656198" y="252" style="stroke: #000000; stroke-width: 0.8"/>
      </g>
     </g>
     <g id="text_6">
      <!-- 100 -->
      <g transform="translate(367.112448 266.598437)scale(0.1 -0.1)">
       <defs>
        <path id="DejaVuSans-31" d="M 794 531 
L 1825 531 
L 1825 4091 
L 703 3866 
L 703 4441 
L 1819 4666 
L 2450 4666 
L 2450 531 
L 3481 531 
L 3481 0 
L 794 0 
L 794 531 
z
" transform="scale(0.015625)"/>
       </defs>
       <use xlink:href="#DejaVuSans-31"/>
       <use xlink:href="#DejaVuSans-30" x="63.623047"/>
       <use xlink:href="#DejaVuSans-30" x="127.246094"/>
      </g>
     </g>
    </g>
    <g id="text_7">
     <!-- Iteration -->
     <g transform="translate(200.191406 280.276563)scale(0.1 -0.1)">
      <defs>
       <path id="DejaVuSans-49" d="M 628 4666 
L 1259 4666 
L 1259 0 
L 628 0 
L 628 4666 
z
" transform="scale(0.015625)"/>
       <path id="DejaVuSans-74" d="M 1172 4494 
L 1172 3500 
L 2356 3500 
L 2356 3053 
L 1172 3053 
L 1172 1153 
Q 1172 725 1289 603 
Q 1406 481 1766 481 
L 2356 481 
L 2356 0 
L 1766 0 
Q 1100 0 847 248 
Q 594 497 594 1153 
L 594 3053 
L 172 3053 
L 172 3500 
L 594 3500 
L 594 4494 
L 1172 4494 
z
" transform="scale(0.015625)"/>
       <path id="DejaVuSans-65" d="M 3597 1894 
L 3597 1613 
L 953 1613 
Q 991 1019 1311 708 
Q 1631 397 2203 397 
Q 2534 397 2845 478 
Q 3156 559 3463 722 
L 3463 178 
Q 3153 47 2828 -22 
Q 2503 -91 2169 -91 
Q 1331 -91 842 396 
Q 353 884 353 1716 
Q 353 2575 817 3079 
Q 1281 3584 2069 3584 
Q 2775 3584 3186 3129 
Q 3597 2675 3597 1894 
z
M 3022 2063 
Q 3016 2534 2758 2815 
Q 2500 3097 2075 3097 
Q 1594 3097 1305 2825 
Q 1016 2553 972 2059 
L 3022 2063 
z
" transform="scale(0.015625)"/>
       <path id="DejaVuSans-72" d="M 2631 2963 
Q 2534 3019 2420 3045 
Q 2306 3072 2169 3072 
Q 1681 3072 1420 2755 
Q 1159 2438 1159 1844 
L 1159 0 
L 581 0 
L 581 3500 
L 1159 3500 
L 1159 2956 
Q 1341 3275 1631 3429 
Q 1922 3584 2338 3584 
Q 2397 3584 2469 3576 
Q 2541 3569 2628 3553 
L 2631 2963 
z
" transform="scale(0.015625)"/>
       <path id="DejaVuSans-61" d="M 2194 1759 
Q 1497 1759 1228 1600 
Q 959 1441 959 1056 
Q 959 750 1161 570 
Q 1363 391 1709 391 
Q 2188 391 2477 730 
Q 2766 1069 2766 1631 
L 2766 1759 
L 2194 1759 
z
M 3341 1997 
L 3341 0 
L 2766 0 
L 2766 531 
Q 2569 213 2275 61 
Q 1981 -91 1556 -91 
Q 1019 -91 701 211 
Q 384 513 384 1019 
Q 384 1609 779 1909 
Q 1175 2209 1959 2209 
L 2766 2209 
L 2766 2266 
Q 2766 2663 2505 2880 
Q 2244 3097 1772 3097 
Q 1472 3097 1187 3025 
Q 903 2953 641 2809 
L 641 3341 
Q 956 3463 1253 3523 
Q 1550 3584 1831 3584 
Q 2591 3584 2966 3190 
Q 3341 2797 3341 1997 
z
" transform="scale(0.015625)"/>
       <path id="DejaVuSans-69" d="M 603 3500 
L 1178 3500 
L 1178 0 
L 603 0 
L 603 3500 
z
M 603 4863 
L 1178 4863 
L 1178 4134 
L 603 4134 
L 603 4863 
z
" transform="scale(0.015625)"/>
       <path id="DejaVuSans-6f" d="M 1959 3097 
Q 1497 3097 1228 2736 
Q 959 2375 959 1747 
Q 959 1119 1226 758 
Q 1494 397 1959 397 
Q 2419 397 2687 759 
Q 2956 1122 2956 1747 
Q 2956 2369 2687 2733 
Q 2419 3097 1959 3097 
z
M 1959 3584 
Q 2709 3584 3137 3096 
Q 3566 2609 3566 1747 
Q 3566 888 3137 398 
Q 2709 -91 1959 -91 
Q 1206 -91 779 398 
Q 353 888 353 1747 
Q 353 2609 779 3096 
Q 1206 3584 1959 3584 
z
" transform="scale(0.015625)"/>
       <path id="DejaVuSans-6e" d="M 3513 2113 
L 3513 0 
L 2938 0 
L 2938 2094 
Q 2938 2591 2744 2837 
Q 2550 3084 2163 3084 
Q 1697 3084 1428 2787 
Q 1159 2491 1159 1978 
L 1159 0 
L 581 0 
L 581 3500 
L 1159 3500 
L 1159 2956 
Q 1366 3272 1645 3428 
Q 1925 3584 2291 3584 
Q 2894 3584 3203 3211 
Q 3513 2838 3513 2113 
z
" transform="scale(0.015625)"/>
      </defs>
      <use xlink:href="#DejaVuSans-49"/>
      <use xlink:href="#DejaVuSans-74" x="29.492188"/>
      <use xlink:href="#DejaVuSans-65" x="68.701172"/>
      <use xlink:href="#DejaVuSans-72" x="130.224609"/>
      <use xlink:href="#DejaVuSans-61" x="171.337891"/>
      <use xlink:href="#DejaVuSans-74" x="232.617188"/>
      <use xlink:href="#DejaVuSans-69" x="271.826172"/>
      <use xlink:href="#DejaVuSans-6f" x="299.609375"/>
      <use xlink:href="#DejaVuSans-6e" x="360.791016"/>
     </g>
    </g>
   </g>
   <g id="matplotlib.axis_2">
    <g id="ytick_1">
     <g id="line2d_7">
      <defs>
       <path id="me04e8f7e07" d="M 0 0 
L -3.5 0 
" style="stroke: #000000; stroke-width: 0.8"/>
      </defs>
      <g>
       <use xlink:href="#me04e8f7e07" x="54" y="232.232727" style="stroke: #000000; stroke-width: 0.8"/>
      </g>
     </g>
     <g id="text_8">
      <!-- 0.0 -->
      <g transform="translate(31.096875 236.031946)scale(0.1 -0.1)">
       <defs>
        <path id="DejaVuSans-2e" d="M 684 794 
L 1344 794 
L 1344 0 
L 684 0 
L 684 794 
z
" transform="scale(0.015625)"/>
       </defs>
       <use xlink:href="#DejaVuSans-30"/>
       <use xlink:href="#DejaVuSans-2e" x="63.623047"/>
       <use xlink:href="#DejaVuSans-30" x="95.410156"/>
      </g>
     </g>
    </g>
    <g id="ytick_2">
     <g id="line2d_8">
      <g>
       <use xlink:href="#me04e8f7e07" x="54" y="192.698182" style="stroke: #000000; stroke-width: 0.8"/>
      </g>
     </g>
     <g id="text_9">
      <!-- 0.2 -->
      <g transform="translate(31.096875 196.497401)scale(0.1 -0.1)">
       <use xlink:href="#DejaVuSans-30"/>
       <use xlink:href="#DejaVuSans-2e" x="63.623047"/>
       <use xlink:href="#DejaVuSans-32" x="95.410156"/>
      </g>
     </g>
    </g>
    <g id="ytick_3">
     <g id="line2d_9">
      <g>
       <use xlink:href="#me04e8f7e07" x="54" y="153.163636" style="stroke: #000000; stroke-width: 0.8"/>
      </g>
     </g>
     <g id="text_10">
      <!-- 0.4 -->
      <g transform="translate(31.096875 156.962855)scale(0.1 -0.1)">
       <use xlink:href="#DejaVuSans-30"/>
       <use xlink:href="#DejaVuSans-2e" x="63.623047"/>
       <use xlink:href="#DejaVuSans-34" x="95.410156"/>
      </g>
     </g>
    </g>
    <g id="ytick_4">
     <g id="line2d_10">
      <g>
       <use xlink:href="#me04e8f7e07" x="54" y="113.629091" style="stroke: #000000; stroke-width: 0.8"/>
      </g>
     </g>
     <g id="text_11">
      <!-- 0.6 -->
      <g transform="translate(31.096875 117.42831)scale(0.1 -0.1)">
       <use xlink:href="#DejaVuSans-30"/>
       <use xlink:href="#DejaVuSans-2e" x="63.623047"/>
       <use xlink:href="#DejaVuSans-36" x="95.410156"/>
      </g>
     </g>
    </g>
    <g id="ytick_5">
     <g id="line2d_11">
      <g>
       <use xlink:href="#me04e8f7e07" x="54" y="74.094545" style="stroke: #000000; stroke-width: 0.8"/>
      </g>
     </g>
     <g id="text_12">
      <!-- 0.8 -->
      <g transform="translate(31.096875 77.893764)scale(0.1 -0.1)">
       <use xlink:href="#DejaVuSans-30"/>
       <use xlink:href="#DejaVuSans-2e" x="63.623047"/>
       <use xlink:href="#DejaVuSans-38" x="95.410156"/>
      </g>
     </g>
    </g>
    <g id="ytick_6">
     <g id="line2d_12">
      <g>
       <use xlink:href="#me04e8f7e07" x="54" y="34.56" style="stroke: #000000; stroke-width: 0.8"/>
      </g>
     </g>
     <g id="text_13">
      <!-- 1.0 -->
      <g transform="translate(31.096875 38.359219)scale(0.1 -0.1)">
       <use xlink:href="#DejaVuSans-31"/>
       <use xlink:href="#DejaVuSans-2e" x="63.623047"/>
       <use xlink:href="#DejaVuSans-30" x="95.410156"/>
      </g>
     </g>
    </g>
    <g id="text_14">
     <!-- Loss value -->
     <g transform="translate(25.017187 169.494062)rotate(-90)scale(0.1 -0.1)">
      <defs>
       <path id="DejaVuSans-4c" d="M 628 4666 
L 1259 4666 
L 1259 531 
L 3531 531 
L 3531 0 
L 628 0 
L 628 4666 
z
" transform="scale(0.015625)"/>
       <path id="DejaVuSans-73" d="M 2834 3397 
L 2834 2853 
Q 2591 2978 2328 3040 
Q 2066 3103 1784 3103 
Q 1356 3103 1142 2972 
Q 928 2841 928 2578 
Q 928 2378 1081 2264 
Q 1234 2150 1697 2047 
L 1894 2003 
Q 2506 1872 2764 1633 
Q 3022 1394 3022 966 
Q 3022 478 2636 193 
Q 2250 -91 1575 -91 
Q 1294 -91 989 -36 
Q 684 19 347 128 
L 347 722 
Q 666 556 975 473 
Q 1284 391 1588 391 
Q 1994 391 2212 530 
Q 2431 669 2431 922 
Q 2431 1156 2273 1281 
Q 2116 1406 1581 1522 
L 1381 1569 
Q 847 1681 609 1914 
Q 372 2147 372 2553 
Q 372 3047 722 3315 
Q 1072 3584 1716 3584 
Q 2034 3584 2315 3537 
Q 2597 3491 2834 3397 
z
" transform="scale(0.015625)"/>
       <path id="DejaVuSans-20" transform="scale(0.015625)"/>
       <path id="DejaVuSans-76" d="M 191 3500 
L 800 3500 
L 1894 563 
L 2988 3500 
L 3597 3500 
L 2284 0 
L 1503 0 
L 191 3500 
z
" transform="scale(0.015625)"/>
       <path id="DejaVuSans-6c" d="M 603 4863 
L 1178 4863 
L 1178 0 
L 603 0 
L 603 4863 
z
" transform="scale(0.015625)"/>
       <path id="DejaVuSans-75" d="M 544 1381 
L 544 3500 
L 1119 3500 
L 1119 1403 
Q 1119 906 1312 657 
Q 1506 409 1894 409 
Q 2359 409 2629 706 
Q 2900 1003 2900 1516 
L 2900 3500 
L 3475 3500 
L 3475 0 
L 2900 0 
L 2900 538 
Q 2691 219 2414 64 
Q 2138 -91 1772 -91 
Q 1169 -91 856 284 
Q 544 659 544 1381 
z
M 1991 3584 
L 1991 3584 
z
" transform="scale(0.015625)"/>
      </defs>
      <use xlink:href="#DejaVuSans-4c"/>
      <use xlink:href="#DejaVuSans-6f" x="53.962891"/>
      <use xlink:href="#DejaVuSans-73" x="115.144531"/>
      <use xlink:href="#DejaVuSans-73" x="167.244141"/>
      <use xlink:href="#DejaVuSans-20" x="219.34375"/>
      <use xlink:href="#DejaVuSans-76" x="251.130859"/>
      <use xlink:href="#DejaVuSans-61" x="310.310547"/>
      <use xlink:href="#DejaVuSans-6c" x="371.589844"/>
      <use xlink:href="#DejaVuSans-75" x="399.373047"/>
      <use xlink:href="#DejaVuSans-65" x="462.751953"/>
     </g>
    </g>
   </g>
   <g id="line2d_13">
    <path d="M 69.218182 138.177061 
L 72.292562 139.959572 
L 75.366942 145.144486 
L 78.441322 147.440574 
L 81.515702 151.428333 
L 84.590083 152.035072 
L 87.664463 157.091086 
L 90.738843 158.987046 
L 93.813223 161.428354 
L 96.887603 166.612527 
L 99.961983 166.731728 
L 103.036364 170.256732 
L 106.110744 174.129049 
L 109.185124 177.202969 
L 112.259504 178.278573 
L 115.333884 181.603806 
L 118.408264 186.043247 
L 121.482645 188.031762 
L 124.557025 190.346627 
L 127.631405 191.242438 
L 130.705785 194.209619 
L 133.780165 196.816747 
L 136.854545 200.605091 
L 139.928926 203.383343 
L 143.003306 204.347558 
L 146.077686 206.083083 
L 149.152066 208.429779 
L 152.226446 211.219828 
L 155.300826 210.669179 
L 158.375207 211.406613 
L 161.449587 215.228276 
L 164.523967 214.663191 
L 167.598347 215.69424 
L 170.672727 216.921064 
L 173.747107 217.572925 
L 176.821488 220.208765 
L 179.895868 219.42207 
L 182.970248 222.548781 
L 186.044628 223.846184 
L 189.119008 224.325818 
L 192.193388 224.325818 
L 195.267769 223.846184 
L 198.342149 225.385143 
L 201.416529 226.641698 
L 204.490909 226.641698 
L 207.565289 227.002798 
L 210.639669 226.641698 
L 213.71405 227.812631 
L 216.78843 228.808935 
L 219.86281 228.808935 
L 222.93719 228.808935 
L 226.01157 227.390754 
L 229.08595 229.437213 
L 232.160331 227.812631 
L 235.234711 230.256 
L 238.309091 228.808935 
L 241.383471 230.256 
L 244.457851 230.256 
L 247.532231 230.256 
L 250.606612 230.256 
L 253.680992 230.256 
L 256.755372 232.232727 
L 259.829752 232.232727 
L 262.904132 230.256 
L 265.978512 230.256 
L 269.052893 230.256 
L 272.127273 232.232727 
L 275.201653 232.232727 
L 278.276033 232.232727 
L 281.350413 232.232727 
L 284.424793 232.232727 
L 287.499174 232.232727 
L 290.573554 232.232727 
L 293.647934 232.232727 
L 296.722314 232.232727 
L 299.796694 232.232727 
L 302.871074 232.232727 
L 305.945455 232.232727 
L 309.019835 232.232727 
L 312.094215 232.232727 
L 315.168595 232.232727 
L 318.242975 232.232727 
L 321.317355 232.232727 
L 324.391736 232.232727 
L 327.466116 232.232727 
L 330.540496 232.232727 
L 333.614876 232.232727 
L 336.689256 232.232727 
L 339.763636 232.232727 
L 342.838017 230.256 
L 345.912397 232.232727 
L 348.986777 232.232727 
L 352.061157 232.232727 
L 355.135537 232.232727 
L 358.209917 232.232727 
L 361.284298 232.232727 
L 364.358678 232.232727 
L 367.433058 232.232727 
L 370.507438 232.232727 
L 373.581818 232.232727 
" clip-path="url(#pcd45ae9aa0)" style="fill: none; stroke: #1f77b4; stroke-width: 1.5; stroke-linecap: square"/>
   </g>
   <g id="line2d_14">
    <path d="M 69.218182 146.774987 
L 72.292562 165.053076 
L 75.366942 184.873708 
L 78.441322 205.129208 
L 81.515702 218.972438 
L 84.590083 214.223885 
L 87.664463 207.543412 
L 90.738843 206.841206 
L 93.813223 205.859896 
L 96.887603 206.008477 
L 99.961983 207.543412 
L 103.036364 213.375951 
L 106.110744 221.961351 
L 109.185124 228.808935 
L 112.259504 227.002798 
L 115.333884 223.616373 
L 118.408264 220.706526 
L 121.482645 219.730806 
L 124.557025 221.405746 
L 127.631405 225.105536 
L 130.705785 225.385143 
L 133.780165 226.641698 
L 136.854545 229.437213 
L 139.928926 228.808935 
L 143.003306 227.812631 
L 146.077686 225.385143 
L 149.152066 228.808935 
L 152.226446 230.256 
L 155.300826 229.437213 
L 158.375207 232.232727 
L 161.449587 232.232727 
L 164.523967 232.232727 
L 167.598347 232.232727 
L 170.672727 230.256 
L 173.747107 232.232727 
L 176.821488 232.232727 
L 179.895868 232.232727 
L 182.970248 232.232727 
L 186.044628 232.232727 
L 189.119008 230.256 
L 192.193388 232.232727 
L 195.267769 229.437213 
L 198.342149 232.232727 
L 201.416529 229.437213 
L 204.490909 230.256 
L 207.565289 230.256 
L 210.639669 232.232727 
L 213.71405 232.232727 
L 216.78843 230.256 
L 219.86281 232.232727 
L 222.93719 232.232727 
L 226.01157 230.256 
L 229.08595 229.437213 
L 232.160331 232.232727 
L 235.234711 232.232727 
L 238.309091 232.232727 
L 241.383471 232.232727 
L 244.457851 232.232727 
L 247.532231 232.232727 
L 250.606612 232.232727 
L 253.680992 232.232727 
L 256.755372 230.256 
L 259.829752 230.256 
L 262.904132 232.232727 
L 265.978512 232.232727 
L 269.052893 232.232727 
L 272.127273 232.232727 
L 275.201653 232.232727 
L 278.276033 232.232727 
L 281.350413 232.232727 
L 284.424793 232.232727 
L 287.499174 232.232727 
L 290.573554 232.232727 
L 293.647934 232.232727 
L 296.722314 232.232727 
L 299.796694 232.232727 
L 302.871074 230.256 
L 305.945455 230.256 
L 309.019835 232.232727 
L 312.094215 232.232727 
L 315.168595 232.232727 
L 318.242975 232.232727 
L 321.317355 232.232727 
L 324.391736 232.232727 
L 327.466116 232.232727 
L 330.540496 232.232727 
L 333.614876 232.232727 
L 336.689256 232.232727 
L 339.763636 232.232727 
L 342.838017 232.232727 
L 345.912397 232.232727 
L 348.986777 230.256 
L 352.061157 230.256 
L 355.135537 229.437213 
L 358.209917 232.232727 
L 361.284298 232.232727 
L 364.358678 232.232727 
L 367.433058 232.232727 
L 370.507438 230.256 
L 373.581818 232.232727 
" clip-path="url(#pcd45ae9aa0)" style="fill: none; stroke-dasharray: 9.6,2.4,1.5,2.4; stroke-dashoffset: 0; stroke: #ff7f0e; stroke-width: 1.5"/>
   </g>
   <g id="line2d_15">
    <path d="M 69.218182 155.191066 
L 72.292562 170.162232 
L 75.366942 187.504495 
L 78.441322 199.333429 
L 81.515702 211.689975 
L 84.590083 219.42207 
L 87.664463 223.174225 
L 90.738843 228.279273 
L 93.813223 229.437213 
L 96.887603 229.437213 
L 99.961983 232.232727 
L 103.036364 232.232727 
L 106.110744 232.232727 
L 109.185124 232.232727 
L 112.259504 230.256 
L 115.333884 229.437213 
L 118.408264 230.256 
L 121.482645 232.232727 
L 124.557025 232.232727 
L 127.631405 232.232727 
L 130.705785 232.232727 
L 133.780165 232.232727 
L 136.854545 232.232727 
L 139.928926 232.232727 
L 143.003306 232.232727 
L 146.077686 232.232727 
L 149.152066 232.232727 
L 152.226446 232.232727 
L 155.300826 232.232727 
L 158.375207 232.232727 
L 161.449587 232.232727 
L 164.523967 232.232727 
L 167.598347 232.232727 
L 170.672727 232.232727 
L 173.747107 232.232727 
L 176.821488 232.232727 
L 179.895868 232.232727 
L 182.970248 232.232727 
L 186.044628 232.232727 
L 189.119008 232.232727 
L 192.193388 232.232727 
L 195.267769 232.232727 
L 198.342149 232.232727 
L 201.416529 232.232727 
L 204.490909 232.232727 
L 207.565289 232.232727 
L 210.639669 232.232727 
L 213.71405 232.232727 
L 216.78843 232.232727 
L 219.86281 232.232727 
L 222.93719 230.256 
L 226.01157 232.232727 
L 229.08595 232.232727 
L 232.160331 232.232727 
L 235.234711 232.232727 
L 238.309091 232.232727 
L 241.383471 232.232727 
L 244.457851 232.232727 
L 247.532231 232.232727 
L 250.606612 232.232727 
L 253.680992 232.232727 
L 256.755372 232.232727 
L 259.829752 232.232727 
L 262.904132 232.232727 
L 265.978512 232.232727 
L 269.052893 232.232727 
L 272.127273 232.232727 
L 275.201653 230.256 
L 278.276033 232.232727 
L 281.350413 232.232727 
L 284.424793 232.232727 
L 287.499174 232.232727 
L 290.573554 232.232727 
L 293.647934 232.232727 
L 296.722314 232.232727 
L 299.796694 232.232727 
L 302.871074 232.232727 
L 305.945455 232.232727 
L 309.019835 232.232727 
L 312.094215 230.256 
L 315.168595 232.232727 
L 318.242975 232.232727 
L 321.317355 230.256 
L 324.391736 232.232727 
L 327.466116 232.232727 
L 330.540496 232.232727 
L 333.614876 232.232727 
L 336.689256 232.232727 
L 339.763636 232.232727 
L 342.838017 230.256 
L 345.912397 232.232727 
L 348.986777 232.232727 
L 352.061157 232.232727 
L 355.135537 232.232727 
L 358.209917 232.232727 
L 361.284298 232.232727 
L 364.358678 232.232727 
L 367.433058 232.232727 
L 370.507438 232.232727 
L 373.581818 232.232727 
" clip-path="url(#pcd45ae9aa0)" style="fill: none; stroke-dasharray: 5.55,2.4; stroke-dashoffset: 0; stroke: #2ca02c; stroke-width: 1.5"/>
   </g>
   <g id="line2d_16">
    <path d="M 69.218182 147.972191 
L 72.292562 165.053076 
L 75.366942 183.732363 
L 78.441322 204.277582 
L 81.515702 217.572925 
L 84.590083 217.440255 
L 87.664463 214.552341 
L 90.738843 209.956142 
L 93.813223 208.266183 
L 96.887603 205.859896 
L 99.961983 206.687781 
L 103.036364 210.759973 
L 106.110744 215.812797 
L 109.185124 221.405746 
L 112.259504 225.105536 
L 115.333884 229.437213 
L 118.408264 228.808935 
L 121.482645 224.576895 
L 124.557025 222.752676 
L 127.631405 221.77287 
L 130.705785 222.349091 
L 133.780165 225.676665 
L 136.854545 224.836491 
L 139.928926 228.808935 
L 143.003306 232.232727 
L 146.077686 230.256 
L 149.152066 228.808935 
L 152.226446 232.232727 
L 155.300826 229.437213 
L 158.375207 229.437213 
L 161.449587 232.232727 
L 164.523967 232.232727 
L 167.598347 232.232727 
L 170.672727 232.232727 
L 173.747107 232.232727 
L 176.821488 227.812631 
L 179.895868 232.232727 
L 182.970248 228.808935 
L 186.044628 232.232727 
L 189.119008 232.232727 
L 192.193388 232.232727 
L 195.267769 230.256 
L 198.342149 230.256 
L 201.416529 230.256 
L 204.490909 232.232727 
L 207.565289 230.256 
L 210.639669 229.437213 
L 213.71405 229.437213 
L 216.78843 232.232727 
L 219.86281 230.256 
L 222.93719 230.256 
L 226.01157 229.437213 
L 229.08595 230.256 
L 232.160331 232.232727 
L 235.234711 228.808935 
L 238.309091 232.232727 
L 241.383471 229.437213 
L 244.457851 230.256 
L 247.532231 230.256 
L 250.606612 232.232727 
L 253.680992 228.808935 
L 256.755372 230.256 
L 259.829752 232.232727 
L 262.904132 229.437213 
L 265.978512 228.808935 
L 269.052893 232.232727 
L 272.127273 232.232727 
L 275.201653 229.437213 
L 278.276033 232.232727 
L 281.350413 232.232727 
L 284.424793 229.437213 
L 287.499174 229.437213 
L 290.573554 228.808935 
L 293.647934 232.232727 
L 296.722314 229.437213 
L 299.796694 230.256 
L 302.871074 232.232727 
L 305.945455 232.232727 
L 309.019835 232.232727 
L 312.094215 230.256 
L 315.168595 232.232727 
L 318.242975 232.232727 
L 321.317355 232.232727 
L 324.391736 232.232727 
L 327.466116 230.256 
L 330.540496 230.256 
L 333.614876 230.256 
L 336.689256 232.232727 
L 339.763636 232.232727 
L 342.838017 230.256 
L 345.912397 232.232727 
L 348.986777 230.256 
L 352.061157 232.232727 
L 355.135537 232.232727 
L 358.209917 230.256 
L 361.284298 232.232727 
L 364.358678 232.232727 
L 367.433058 232.232727 
L 370.507438 232.232727 
L 373.581818 232.232727 
" clip-path="url(#pcd45ae9aa0)" style="fill: none; stroke-dasharray: 1.5,2.475; stroke-dashoffset: 0; stroke: #d62728; stroke-width: 1.5"/>
   </g>
   <g id="patch_3">
    <path d="M 54 252 
L 54 34.56 
" style="fill: none; stroke: #000000; stroke-width: 0.8; stroke-linejoin: miter; stroke-linecap: square"/>
   </g>
   <g id="patch_4">
    <path d="M 388.8 252 
L 388.8 34.56 
" style="fill: none; stroke: #000000; stroke-width: 0.8; stroke-linejoin: miter; stroke-linecap: square"/>
   </g>
   <g id="patch_5">
    <path d="M 54 252 
L 388.8 252 
" style="fill: none; stroke: #000000; stroke-width: 0.8; stroke-linejoin: miter; stroke-linecap: square"/>
   </g>
   <g id="patch_6">
    <path d="M 54 34.56 
L 388.8 34.56 
" style="fill: none; stroke: #000000; stroke-width: 0.8; stroke-linejoin: miter; stroke-linecap: square"/>
   </g>
   <g id="legend_1">
    <g id="patch_7">
     <path d="M 294.6375 101.2725 
L 381.8 101.2725 
Q 383.8 101.2725 383.8 99.2725 
L 383.8 41.56 
Q 383.8 39.56 381.8 39.56 
L 294.6375 39.56 
Q 292.6375 39.56 292.6375 41.56 
L 292.6375 99.2725 
Q 292.6375 101.2725 294.6375 101.2725 
z
" style="fill: #ffffff; opacity: 0.8; stroke: #cccccc; stroke-linejoin: miter"/>
    </g>
    <g id="line2d_17">
     <path d="M 296.6375 47.658437 
L 306.6375 47.658437 
L 316.6375 47.658437 
" style="fill: none; stroke: #1f77b4; stroke-width: 1.5; stroke-linecap: square"/>
    </g>
    <g id="text_15">
     <!-- SGD -->
     <g transform="translate(324.6375 51.158437)scale(0.1 -0.1)">
      <defs>
       <path id="DejaVuSans-53" d="M 3425 4513 
L 3425 3897 
Q 3066 4069 2747 4153 
Q 2428 4238 2131 4238 
Q 1616 4238 1336 4038 
Q 1056 3838 1056 3469 
Q 1056 3159 1242 3001 
Q 1428 2844 1947 2747 
L 2328 2669 
Q 3034 2534 3370 2195 
Q 3706 1856 3706 1288 
Q 3706 609 3251 259 
Q 2797 -91 1919 -91 
Q 1588 -91 1214 -16 
Q 841 59 441 206 
L 441 856 
Q 825 641 1194 531 
Q 1563 422 1919 422 
Q 2459 422 2753 634 
Q 3047 847 3047 1241 
Q 3047 1584 2836 1778 
Q 2625 1972 2144 2069 
L 1759 2144 
Q 1053 2284 737 2584 
Q 422 2884 422 3419 
Q 422 4038 858 4394 
Q 1294 4750 2059 4750 
Q 2388 4750 2728 4690 
Q 3069 4631 3425 4513 
z
" transform="scale(0.015625)"/>
       <path id="DejaVuSans-47" d="M 3809 666 
L 3809 1919 
L 2778 1919 
L 2778 2438 
L 4434 2438 
L 4434 434 
Q 4069 175 3628 42 
Q 3188 -91 2688 -91 
Q 1594 -91 976 548 
Q 359 1188 359 2328 
Q 359 3472 976 4111 
Q 1594 4750 2688 4750 
Q 3144 4750 3555 4637 
Q 3966 4525 4313 4306 
L 4313 3634 
Q 3963 3931 3569 4081 
Q 3175 4231 2741 4231 
Q 1884 4231 1454 3753 
Q 1025 3275 1025 2328 
Q 1025 1384 1454 906 
Q 1884 428 2741 428 
Q 3075 428 3337 486 
Q 3600 544 3809 666 
z
" transform="scale(0.015625)"/>
       <path id="DejaVuSans-44" d="M 1259 4147 
L 1259 519 
L 2022 519 
Q 2988 519 3436 956 
Q 3884 1394 3884 2338 
Q 3884 3275 3436 3711 
Q 2988 4147 2022 4147 
L 1259 4147 
z
M 628 4666 
L 1925 4666 
Q 3281 4666 3915 4102 
Q 4550 3538 4550 2338 
Q 4550 1131 3912 565 
Q 3275 0 1925 0 
L 628 0 
L 628 4666 
z
" transform="scale(0.015625)"/>
      </defs>
      <use xlink:href="#DejaVuSans-53"/>
      <use xlink:href="#DejaVuSans-47" x="63.476562"/>
      <use xlink:href="#DejaVuSans-44" x="140.966797"/>
     </g>
    </g>
    <g id="line2d_18">
     <path d="M 296.6375 62.336562 
L 306.6375 62.336562 
L 316.6375 62.336562 
" style="fill: none; stroke-dasharray: 9.6,2.4,1.5,2.4; stroke-dashoffset: 0; stroke: #ff7f0e; stroke-width: 1.5"/>
    </g>
    <g id="text_16">
     <!-- Adam -->
     <g transform="translate(324.6375 65.836562)scale(0.1 -0.1)">
      <defs>
       <path id="DejaVuSans-41" d="M 2188 4044 
L 1331 1722 
L 3047 1722 
L 2188 4044 
z
M 1831 4666 
L 2547 4666 
L 4325 0 
L 3669 0 
L 3244 1197 
L 1141 1197 
L 716 0 
L 50 0 
L 1831 4666 
z
" transform="scale(0.015625)"/>
       <path id="DejaVuSans-64" d="M 2906 2969 
L 2906 4863 
L 3481 4863 
L 3481 0 
L 2906 0 
L 2906 525 
Q 2725 213 2448 61 
Q 2172 -91 1784 -91 
Q 1150 -91 751 415 
Q 353 922 353 1747 
Q 353 2572 751 3078 
Q 1150 3584 1784 3584 
Q 2172 3584 2448 3432 
Q 2725 3281 2906 2969 
z
M 947 1747 
Q 947 1113 1208 752 
Q 1469 391 1925 391 
Q 2381 391 2643 752 
Q 2906 1113 2906 1747 
Q 2906 2381 2643 2742 
Q 2381 3103 1925 3103 
Q 1469 3103 1208 2742 
Q 947 2381 947 1747 
z
" transform="scale(0.015625)"/>
       <path id="DejaVuSans-6d" d="M 3328 2828 
Q 3544 3216 3844 3400 
Q 4144 3584 4550 3584 
Q 5097 3584 5394 3201 
Q 5691 2819 5691 2113 
L 5691 0 
L 5113 0 
L 5113 2094 
Q 5113 2597 4934 2840 
Q 4756 3084 4391 3084 
Q 3944 3084 3684 2787 
Q 3425 2491 3425 1978 
L 3425 0 
L 2847 0 
L 2847 2094 
Q 2847 2600 2669 2842 
Q 2491 3084 2119 3084 
Q 1678 3084 1418 2786 
Q 1159 2488 1159 1978 
L 1159 0 
L 581 0 
L 581 3500 
L 1159 3500 
L 1159 2956 
Q 1356 3278 1631 3431 
Q 1906 3584 2284 3584 
Q 2666 3584 2933 3390 
Q 3200 3197 3328 2828 
z
" transform="scale(0.015625)"/>
      </defs>
      <use xlink:href="#DejaVuSans-41"/>
      <use xlink:href="#DejaVuSans-64" x="66.658203"/>
      <use xlink:href="#DejaVuSans-61" x="130.134766"/>
      <use xlink:href="#DejaVuSans-6d" x="191.414062"/>
     </g>
    </g>
    <g id="line2d_19">
     <path d="M 296.6375 77.014687 
L 306.6375 77.014687 
L 316.6375 77.014687 
" style="fill: none; stroke-dasharray: 5.55,2.4; stroke-dashoffset: 0; stroke: #2ca02c; stroke-width: 1.5"/>
    </g>
    <g id="text_17">
     <!-- QNG -->
     <g transform="translate(324.6375 80.514687)scale(0.1 -0.1)">
      <defs>
       <path id="DejaVuSans-51" d="M 2522 4238 
Q 1834 4238 1429 3725 
Q 1025 3213 1025 2328 
Q 1025 1447 1429 934 
Q 1834 422 2522 422 
Q 3209 422 3611 934 
Q 4013 1447 4013 2328 
Q 4013 3213 3611 3725 
Q 3209 4238 2522 4238 
z
M 3406 84 
L 4238 -825 
L 3475 -825 
L 2784 -78 
Q 2681 -84 2626 -87 
Q 2572 -91 2522 -91 
Q 1538 -91 948 567 
Q 359 1225 359 2328 
Q 359 3434 948 4092 
Q 1538 4750 2522 4750 
Q 3503 4750 4090 4092 
Q 4678 3434 4678 2328 
Q 4678 1516 4351 937 
Q 4025 359 3406 84 
z
" transform="scale(0.015625)"/>
       <path id="DejaVuSans-4e" d="M 628 4666 
L 1478 4666 
L 3547 763 
L 3547 4666 
L 4159 4666 
L 4159 0 
L 3309 0 
L 1241 3903 
L 1241 0 
L 628 0 
L 628 4666 
z
" transform="scale(0.015625)"/>
      </defs>
      <use xlink:href="#DejaVuSans-51"/>
      <use xlink:href="#DejaVuSans-4e" x="78.710938"/>
      <use xlink:href="#DejaVuSans-47" x="153.515625"/>
     </g>
    </g>
    <g id="line2d_20">
     <path d="M 296.6375 91.692813 
L 306.6375 91.692813 
L 316.6375 91.692813 
" style="fill: none; stroke-dasharray: 1.5,2.475; stroke-dashoffset: 0; stroke: #d62728; stroke-width: 1.5"/>
    </g>
    <g id="text_18">
     <!-- Adam QNG -->
     <g transform="translate(324.6375 95.192813)scale(0.1 -0.1)">
      <use xlink:href="#DejaVuSans-41"/>
      <use xlink:href="#DejaVuSans-64" x="66.658203"/>
      <use xlink:href="#DejaVuSans-61" x="130.134766"/>
      <use xlink:href="#DejaVuSans-6d" x="191.414062"/>
      <use xlink:href="#DejaVuSans-20" x="288.826172"/>
      <use xlink:href="#DejaVuSans-51" x="320.613281"/>
      <use xlink:href="#DejaVuSans-4e" x="399.324219"/>
      <use xlink:href="#DejaVuSans-47" x="474.128906"/>
     </g>
    </g>
   </g>
  </g>
 </g>
 <defs>
  <clipPath id="pcd45ae9aa0">
   <rect x="54" y="34.56" width="334.8" height="217.44"/>
  </clipPath>
 </defs>
</svg>
