<?xml version="1.0" encoding="utf-8" standalone="no"?>
<!DOCTYPE svg PUBLIC "-//W3C//DTD SVG 1.1//EN"
  "http://www.w3.org/Graphics/SVG/1.1/DTD/svg11.dtd">
<svg xmlns:xlink="http://www.w3.org/1999/xlink" width="352.487032pt" height="168.933398pt" viewBox="0 0 352.487032 168.933398" xmlns="http://www.w3.org/2000/svg" version="1.1">
 <metadata>
  <rdf:RDF xmlns:dc="http://purl.org/dc/elements/1.1/" xmlns:cc="http://creativecommons.org/ns#" xmlns:rdf="http://www.w3.org/1999/02/22-rdf-syntax-ns#">
   <cc:Work>
    <dc:type rdf:resource="http://purl.org/dc/dcmitype/StillImage"/>
    <dc:date>2022-04-16T22:29:25.195297</dc:date>
    <dc:format>image/svg+xml</dc:format>
    <dc:creator>
     <cc:Agent>
      <dc:title>Matplotlib v3.5.1, https://matplotlib.org/</dc:title>
     </cc:Agent>
    </dc:creator>
   </cc:Work>
  </rdf:RDF>
 </metadata>
 <defs>
  <style type="text/css">*{stroke-linejoin: round; stroke-linecap: butt}</style>
 </defs>
 <g id="figure_1">
  <g id="patch_1">
   <path d="M 0 168.933398 
L 352.487032 168.933398 
L 352.487032 0 
L 0 0 
z
" style="fill: #ffffff"/>
  </g>
  <g id="axes_1">
   <g id="line2d_1">
    <path d="M 63.490835 43.5608 
L 340.741932 43.5608 
" clip-path="url(#p994be5e475)" style="fill: none; stroke: #000000; stroke-width: 2; stroke-linecap: square"/>
   </g>
   <g id="line2d_2">
    <path d="M 63.490835 89.011799 
L 340.741932 89.011799 
" clip-path="url(#p994be5e475)" style="fill: none; stroke: #000000; stroke-width: 2; stroke-linecap: square"/>
   </g>
   <g id="line2d_3">
    <path d="M 63.490835 134.462798 
L 340.741932 134.462798 
" clip-path="url(#p994be5e475)" style="fill: none; stroke: #000000; stroke-width: 2; stroke-linecap: square"/>
   </g>
   <g id="line2d_4">
    <path d="M 88.034375 89.011799 
L 88.034375 43.5608 
" clip-path="url(#p994be5e475)" style="fill: none; stroke: #6fa4ff; stroke-width: 2; stroke-linecap: square"/>
   </g>
   <g id="line2d_5">
    <path d="M 133.485375 134.462798 
L 133.485375 89.011799 
" clip-path="url(#p994be5e475)" style="fill: none; stroke: #6fa4ff; stroke-width: 2; stroke-linecap: square"/>
   </g>
   <g id="line2d_6">
    <path d="M 178.936374 134.462798 
L 178.936374 43.5608 
" clip-path="url(#p994be5e475)" style="fill: none; stroke: #6fa4ff; stroke-width: 2; stroke-linecap: square"/>
   </g>
   <g id="patch_2">
    <path d="M 88.034375 47.992272 
C 89.209615 47.992272 90.336879 47.525344 91.167899 46.694324 
C 91.99892 45.863303 92.465848 44.73604 92.465848 43.5608 
C 92.465848 42.385559 91.99892 41.258296 91.167899 40.427275 
C 90.336879 39.596255 89.209615 39.129327 88.034375 39.129327 
C 86.859135 39.129327 85.731871 39.596255 84.900851 40.427275 
C 84.069831 41.258296 83.602903 42.385559 83.602903 43.5608 
C 83.602903 44.73604 84.069831 45.863303 84.900851 46.694324 
C 85.731871 47.525344 86.859135 47.992272 88.034375 47.992272 
z
" clip-path="url(#p994be5e475)" style="fill: #6fa4ff; stroke: #6fa4ff; stroke-width: 1.5; stroke-linejoin: miter"/>
   </g>
   <g id="patch_3">
    <path d="M 88.034375 99.351901 
C 90.776602 99.351901 93.406884 98.262403 95.345932 96.323355 
C 97.284979 94.384308 98.374478 91.754026 98.374478 89.011799 
C 98.374478 86.269572 97.284979 83.63929 95.345932 81.700242 
C 93.406884 79.761195 90.776602 78.671697 88.034375 78.671697 
C 85.292148 78.671697 82.661866 79.761195 80.722819 81.700242 
C 78.783771 83.63929 77.694273 86.269572 77.694273 89.011799 
C 77.694273 91.754026 78.783771 94.384308 80.722819 96.323355 
C 82.661866 98.262403 85.292148 99.351901 88.034375 99.351901 
z
" clip-path="url(#p994be5e475)" style="fill: #6fa4ff; stroke: #6fa4ff; stroke-width: 2; stroke-linejoin: miter"/>
   </g>
   <g id="patch_4">
    <path d="M 133.485375 93.443271 
C 134.660615 93.443271 135.787878 92.976343 136.618899 92.145323 
C 137.449919 91.314303 137.916847 90.187039 137.916847 89.011799 
C 137.916847 87.836559 137.449919 86.709295 136.618899 85.878275 
C 135.787878 85.047254 134.660615 84.580326 133.485375 84.580326 
C 132.310134 84.580326 131.182871 85.047254 130.35185 85.878275 
C 129.52083 86.709295 129.053902 87.836559 129.053902 89.011799 
C 129.053902 90.187039 129.52083 91.314303 130.35185 92.145323 
C 131.182871 92.976343 132.310134 93.443271 133.485375 93.443271 
z
" clip-path="url(#p994be5e475)" style="fill: #6fa4ff; stroke: #6fa4ff; stroke-width: 1.5; stroke-linejoin: miter"/>
   </g>
   <g id="patch_5">
    <path d="M 133.485375 144.802901 
C 136.227602 144.802901 138.857884 143.713402 140.796931 141.774355 
C 142.735979 139.835307 143.825477 137.205026 143.825477 134.462798 
C 143.825477 131.720571 142.735979 129.090289 140.796931 127.151242 
C 138.857884 125.212194 136.227602 124.122696 133.485375 124.122696 
C 130.743147 124.122696 128.112866 125.212194 126.173818 127.151242 
C 124.234771 129.090289 123.145272 131.720571 123.145272 134.462798 
C 123.145272 137.205026 124.234771 139.835307 126.173818 141.774355 
C 128.112866 143.713402 130.743147 144.802901 133.485375 144.802901 
z
" clip-path="url(#p994be5e475)" style="fill: #6fa4ff; stroke: #6fa4ff; stroke-width: 2; stroke-linejoin: miter"/>
   </g>
   <g id="patch_6">
    <path d="M 178.936374 138.894271 
C 180.111614 138.894271 181.238878 138.427343 182.069898 137.596323 
C 182.900919 136.765302 183.367846 135.638039 183.367846 134.462798 
C 183.367846 133.287558 182.900919 132.160294 182.069898 131.329274 
C 181.238878 130.498254 180.111614 130.031326 178.936374 130.031326 
C 177.761134 130.031326 176.63387 130.498254 175.80285 131.329274 
C 174.971829 132.160294 174.504902 133.287558 174.504902 134.462798 
C 174.504902 135.638039 174.971829 136.765302 175.80285 137.596323 
C 176.63387 138.427343 177.761134 138.894271 178.936374 138.894271 
z
" clip-path="url(#p994be5e475)" style="fill: #6fa4ff; stroke: #6fa4ff; stroke-width: 1.5; stroke-linejoin: miter"/>
   </g>
   <g id="patch_7">
    <path d="M 178.936374 53.900902 
C 181.678601 53.900902 184.308883 52.811403 186.24793 50.872356 
C 188.186978 48.933309 189.276476 46.303027 189.276476 43.5608 
C 189.276476 40.818572 188.186978 38.18829 186.24793 36.249243 
C 184.308883 34.310196 181.678601 33.220697 178.936374 33.220697 
C 176.194147 33.220697 173.563865 34.310196 171.624817 36.249243 
C 169.68577 38.18829 168.596272 40.818572 168.596272 43.5608 
C 168.596272 46.303027 169.68577 48.933309 171.624817 50.872356 
C 173.563865 52.811403 176.194147 53.900902 178.936374 53.900902 
z
" clip-path="url(#p994be5e475)" style="fill: #6fa4ff; stroke: #6fa4ff; stroke-width: 2; stroke-linejoin: miter"/>
   </g>
   <g id="patch_8">
    <path d="M 209.615799 103.783374 
L 239.158948 103.783374 
L 239.158948 74.240224 
L 209.615799 74.240224 
z
" clip-path="url(#p994be5e475)" style="fill: #bb8bff; stroke: #bb8bff; stroke-width: 1.5; stroke-linejoin: miter"/>
   </g>
   <g id="patch_9">
    <path d="M 209.615799 58.332374 
L 239.158948 58.332374 
L 239.158948 28.789225 
L 209.615799 28.789225 
z
" clip-path="url(#p994be5e475)" style="fill: #bb8bff; stroke: #bb8bff; stroke-width: 1.5; stroke-linejoin: miter"/>
   </g>
   <g id="patch_10">
    <path d="M 209.615799 149.234373 
L 239.158948 149.234373 
L 239.158948 119.691224 
L 209.615799 119.691224 
z
" clip-path="url(#p994be5e475)" style="fill: #bb8bff; stroke: #bb8bff; stroke-width: 1.5; stroke-linejoin: miter"/>
   </g>
   <g id="patch_11">
    <path d="M 255.066798 103.783374 
L 284.609948 103.783374 
L 284.609948 74.240224 
L 255.066798 74.240224 
z
" clip-path="url(#p994be5e475)" style="fill: #bb8bff; stroke: #bb8bff; stroke-width: 1.5; stroke-linejoin: miter"/>
   </g>
   <g id="patch_12">
    <path d="M 255.066798 58.332374 
L 284.609948 58.332374 
L 284.609948 28.789225 
L 255.066798 28.789225 
z
" clip-path="url(#p994be5e475)" style="fill: #bb8bff; stroke: #bb8bff; stroke-width: 1.5; stroke-linejoin: miter"/>
   </g>
   <g id="patch_13">
    <path d="M 255.066798 149.234373 
L 284.609948 149.234373 
L 284.609948 119.691224 
L 255.066798 119.691224 
z
" clip-path="url(#p994be5e475)" style="fill: #bb8bff; stroke: #bb8bff; stroke-width: 1.5; stroke-linejoin: miter"/>
   </g>
   <g id="patch_14">
    <path d="M 300.517797 103.783374 
L 330.060947 103.783374 
L 330.060947 74.240224 
L 300.517797 74.240224 
z
" clip-path="url(#p994be5e475)" style="fill: #bb8bff; stroke: #bb8bff; stroke-width: 1.5; stroke-linejoin: miter"/>
   </g>
   <g id="patch_15">
    <path d="M 300.517797 58.332374 
L 330.060947 58.332374 
L 330.060947 28.789225 
L 300.517797 28.789225 
z
" clip-path="url(#p994be5e475)" style="fill: #bb8bff; stroke: #bb8bff; stroke-width: 1.5; stroke-linejoin: miter"/>
   </g>
   <g id="patch_16">
    <path d="M 300.517797 149.234373 
L 330.060947 149.234373 
L 330.060947 119.691224 
L 300.517797 119.691224 
z
" clip-path="url(#p994be5e475)" style="fill: #bb8bff; stroke: #bb8bff; stroke-width: 1.5; stroke-linejoin: miter"/>
   </g>
   <g id="text_1">
    <g clip-path="url(#p994be5e475)">
     <!-- ${q}_{0}$ -->
     <g transform="translate(36.363136 48.011776)scale(0.1625 -0.1625)">
      <defs>
       <path id="DejaVuSans-Oblique-71" d="M 2669 525 
Q 2438 222 2123 65 
Q 1809 -91 1428 -91 
Q 897 -91 595 267 
Q 294 625 294 1253 
Q 294 1759 480 2231 
Q 666 2703 1013 3078 
Q 1238 3322 1530 3453 
Q 1822 3584 2144 3584 
Q 2531 3584 2781 3431 
Q 3031 3278 3144 2969 
L 3244 3494 
L 3822 3494 
L 2888 -1319 
L 2309 -1319 
L 2669 525 
z
M 891 1338 
Q 891 875 1084 633 
Q 1278 391 1644 391 
Q 2188 391 2572 911 
Q 2956 1431 2956 2175 
Q 2956 2625 2757 2864 
Q 2559 3103 2188 3103 
Q 1916 3103 1684 2976 
Q 1453 2850 1281 2606 
Q 1100 2350 995 2006 
Q 891 1663 891 1338 
z
" transform="scale(0.015625)"/>
       <path id="DejaVuSans-30" d="M 2034 4250 
Q 1547 4250 1301 3770 
Q 1056 3291 1056 2328 
Q 1056 1369 1301 889 
Q 1547 409 2034 409 
Q 2525 409 2770 889 
Q 3016 1369 3016 2328 
Q 3016 3291 2770 3770 
Q 2525 4250 2034 4250 
z
M 2034 4750 
Q 2819 4750 3233 4129 
Q 3647 3509 3647 2328 
Q 3647 1150 3233 529 
Q 2819 -91 2034 -91 
Q 1250 -91 836 529 
Q 422 1150 422 2328 
Q 422 3509 836 4129 
Q 1250 4750 2034 4750 
z
" transform="scale(0.015625)"/>
      </defs>
      <use xlink:href="#DejaVuSans-Oblique-71"/>
      <use xlink:href="#DejaVuSans-30" transform="translate(63.476562 -16.40625)scale(0.7)"/>
     </g>
    </g>
   </g>
   <g id="text_2">
    <g clip-path="url(#p994be5e475)">
     <!-- ${q}_{1}$ -->
     <g transform="translate(36.363136 93.462775)scale(0.1625 -0.1625)">
      <defs>
       <path id="DejaVuSans-31" d="M 794 531 
L 1825 531 
L 1825 4091 
L 703 3866 
L 703 4441 
L 1819 4666 
L 2450 4666 
L 2450 531 
L 3481 531 
L 3481 0 
L 794 0 
L 794 531 
z
" transform="scale(0.015625)"/>
      </defs>
      <use xlink:href="#DejaVuSans-Oblique-71"/>
      <use xlink:href="#DejaVuSans-31" transform="translate(63.476562 -16.40625)scale(0.7)"/>
     </g>
    </g>
   </g>
   <g id="text_3">
    <g clip-path="url(#p994be5e475)">
     <!-- ${q}_{2}$ -->
     <g transform="translate(36.363136 138.913775)scale(0.1625 -0.1625)">
      <defs>
       <path id="DejaVuSans-32" d="M 1228 531 
L 3431 531 
L 3431 0 
L 469 0 
L 469 531 
Q 828 903 1448 1529 
Q 2069 2156 2228 2338 
Q 2531 2678 2651 2914 
Q 2772 3150 2772 3378 
Q 2772 3750 2511 3984 
Q 2250 4219 1831 4219 
Q 1534 4219 1204 4116 
Q 875 4013 500 3803 
L 500 4441 
Q 881 4594 1212 4672 
Q 1544 4750 1819 4750 
Q 2544 4750 2975 4387 
Q 3406 4025 3406 3419 
Q 3406 3131 3298 2873 
Q 3191 2616 2906 2266 
Q 2828 2175 2409 1742 
Q 1991 1309 1228 531 
z
" transform="scale(0.015625)"/>
      </defs>
      <use xlink:href="#DejaVuSans-Oblique-71"/>
      <use xlink:href="#DejaVuSans-32" transform="translate(63.476562 -16.40625)scale(0.7)"/>
     </g>
    </g>
   </g>
   <g id="line2d_7">
    <path d="M 88.034375 94.920429 
L 88.034375 83.103169 
" clip-path="url(#p994be5e475)" style="fill: none; stroke: #ffffff; stroke-width: 2; stroke-linecap: square"/>
   </g>
   <g id="line2d_8">
    <path d="M 82.125745 89.011799 
L 93.943005 89.011799 
" clip-path="url(#p994be5e475)" style="fill: none; stroke: #ffffff; stroke-width: 2; stroke-linecap: square"/>
   </g>
   <g id="line2d_9">
    <path d="M 133.485375 140.371428 
L 133.485375 128.554168 
" clip-path="url(#p994be5e475)" style="fill: none; stroke: #ffffff; stroke-width: 2; stroke-linecap: square"/>
   </g>
   <g id="line2d_10">
    <path d="M 127.576745 134.462798 
L 139.394004 134.462798 
" clip-path="url(#p994be5e475)" style="fill: none; stroke: #ffffff; stroke-width: 2; stroke-linecap: square"/>
   </g>
   <g id="line2d_11">
    <path d="M 178.936374 49.469429 
L 178.936374 37.65217 
" clip-path="url(#p994be5e475)" style="fill: none; stroke: #ffffff; stroke-width: 2; stroke-linecap: square"/>
   </g>
   <g id="line2d_12">
    <path d="M 173.027744 43.5608 
L 184.845004 43.5608 
" clip-path="url(#p994be5e475)" style="fill: none; stroke: #ffffff; stroke-width: 2; stroke-linecap: square"/>
   </g>
   <g id="text_4">
    <g clip-path="url(#p994be5e475)">
     <!-- 0 -->
     <g transform="translate(221.842373 100.082244)scale(0.08 -0.08)">
      <use xlink:href="#DejaVuSans-30"/>
     </g>
    </g>
   </g>
   <g id="text_5">
    <g clip-path="url(#p994be5e475)">
     <!-- $\mathrm{R_X}$ -->
     <g transform="translate(216.457373 88.167514)scale(0.13 -0.13)">
      <defs>
       <path id="DejaVuSans-52" d="M 2841 2188 
Q 3044 2119 3236 1894 
Q 3428 1669 3622 1275 
L 4263 0 
L 3584 0 
L 2988 1197 
Q 2756 1666 2539 1819 
Q 2322 1972 1947 1972 
L 1259 1972 
L 1259 0 
L 628 0 
L 628 4666 
L 2053 4666 
Q 2853 4666 3247 4331 
Q 3641 3997 3641 3322 
Q 3641 2881 3436 2590 
Q 3231 2300 2841 2188 
z
M 1259 4147 
L 1259 2491 
L 2053 2491 
Q 2509 2491 2742 2702 
Q 2975 2913 2975 3322 
Q 2975 3731 2742 3939 
Q 2509 4147 2053 4147 
L 1259 4147 
z
" transform="scale(0.015625)"/>
       <path id="DejaVuSans-58" d="M 403 4666 
L 1081 4666 
L 2241 2931 
L 3406 4666 
L 4084 4666 
L 2584 2425 
L 4184 0 
L 3506 0 
L 2194 1984 
L 872 0 
L 191 0 
L 1856 2491 
L 403 4666 
z
" transform="scale(0.015625)"/>
      </defs>
      <use xlink:href="#DejaVuSans-52" transform="translate(0 0.09375)"/>
      <use xlink:href="#DejaVuSans-58" transform="translate(70.439453 -16.3125)scale(0.7)"/>
     </g>
    </g>
   </g>
   <g id="text_6">
    <g clip-path="url(#p994be5e475)">
     <!-- 0 -->
     <g transform="translate(221.842373 54.631244)scale(0.08 -0.08)">
      <use xlink:href="#DejaVuSans-30"/>
     </g>
    </g>
   </g>
   <g id="text_7">
    <g clip-path="url(#p994be5e475)">
     <!-- $\mathrm{R_X}$ -->
     <g transform="translate(216.457373 42.716515)scale(0.13 -0.13)">
      <use xlink:href="#DejaVuSans-52" transform="translate(0 0.09375)"/>
      <use xlink:href="#DejaVuSans-58" transform="translate(70.439453 -16.3125)scale(0.7)"/>
     </g>
    </g>
   </g>
   <g id="text_8">
    <g clip-path="url(#p994be5e475)">
     <!-- 0 -->
     <g transform="translate(221.842373 145.533243)scale(0.08 -0.08)">
      <use xlink:href="#DejaVuSans-30"/>
     </g>
    </g>
   </g>
   <g id="text_9">
    <g clip-path="url(#p994be5e475)">
     <!-- $\mathrm{R_X}$ -->
     <g transform="translate(216.457373 133.618513)scale(0.13 -0.13)">
      <use xlink:href="#DejaVuSans-52" transform="translate(0 0.09375)"/>
      <use xlink:href="#DejaVuSans-58" transform="translate(70.439453 -16.3125)scale(0.7)"/>
     </g>
    </g>
   </g>
   <g id="text_10">
    <g clip-path="url(#p994be5e475)">
     <!-- 0 -->
     <g transform="translate(267.293373 100.082244)scale(0.08 -0.08)">
      <use xlink:href="#DejaVuSans-30"/>
     </g>
    </g>
   </g>
   <g id="text_11">
    <g clip-path="url(#p994be5e475)">
     <!-- $\mathrm{R_Z}$ -->
     <g transform="translate(261.908373 88.167514)scale(0.13 -0.13)">
      <defs>
       <path id="DejaVuSans-5a" d="M 359 4666 
L 4025 4666 
L 4025 4184 
L 1075 531 
L 4097 531 
L 4097 0 
L 288 0 
L 288 481 
L 3238 4134 
L 359 4134 
L 359 4666 
z
" transform="scale(0.015625)"/>
      </defs>
      <use xlink:href="#DejaVuSans-52" transform="translate(0 0.09375)"/>
      <use xlink:href="#DejaVuSans-5a" transform="translate(70.439453 -16.3125)scale(0.7)"/>
     </g>
    </g>
   </g>
   <g id="text_12">
    <g clip-path="url(#p994be5e475)">
     <!-- 0 -->
     <g transform="translate(267.293373 54.631244)scale(0.08 -0.08)">
      <use xlink:href="#DejaVuSans-30"/>
     </g>
    </g>
   </g>
   <g id="text_13">
    <g clip-path="url(#p994be5e475)">
     <!-- $\mathrm{R_Z}$ -->
     <g transform="translate(261.908373 42.716515)scale(0.13 -0.13)">
      <use xlink:href="#DejaVuSans-52" transform="translate(0 0.09375)"/>
      <use xlink:href="#DejaVuSans-5a" transform="translate(70.439453 -16.3125)scale(0.7)"/>
     </g>
    </g>
   </g>
   <g id="text_14">
    <g clip-path="url(#p994be5e475)">
     <!-- 0 -->
     <g transform="translate(267.293373 145.533243)scale(0.08 -0.08)">
      <use xlink:href="#DejaVuSans-30"/>
     </g>
    </g>
   </g>
   <g id="text_15">
    <g clip-path="url(#p994be5e475)">
     <!-- $\mathrm{R_Z}$ -->
     <g transform="translate(261.908373 133.618513)scale(0.13 -0.13)">
      <use xlink:href="#DejaVuSans-52" transform="translate(0 0.09375)"/>
      <use xlink:href="#DejaVuSans-5a" transform="translate(70.439453 -16.3125)scale(0.7)"/>
     </g>
    </g>
   </g>
   <g id="text_16">
    <g clip-path="url(#p994be5e475)">
     <!-- 0 -->
     <g transform="translate(312.744372 100.082244)scale(0.08 -0.08)">
      <use xlink:href="#DejaVuSans-30"/>
     </g>
    </g>
   </g>
   <g id="text_17">
    <g clip-path="url(#p994be5e475)">
     <!-- $\mathrm{R_X}$ -->
     <g transform="translate(307.359372 88.167514)scale(0.13 -0.13)">
      <use xlink:href="#DejaVuSans-52" transform="translate(0 0.09375)"/>
      <use xlink:href="#DejaVuSans-58" transform="translate(70.439453 -16.3125)scale(0.7)"/>
     </g>
    </g>
   </g>
   <g id="text_18">
    <g clip-path="url(#p994be5e475)">
     <!-- 0 -->
     <g transform="translate(312.744372 54.631244)scale(0.08 -0.08)">
      <use xlink:href="#DejaVuSans-30"/>
     </g>
    </g>
   </g>
   <g id="text_19">
    <g clip-path="url(#p994be5e475)">
     <!-- $\mathrm{R_X}$ -->
     <g transform="translate(307.359372 42.716515)scale(0.13 -0.13)">
      <use xlink:href="#DejaVuSans-52" transform="translate(0 0.09375)"/>
      <use xlink:href="#DejaVuSans-58" transform="translate(70.439453 -16.3125)scale(0.7)"/>
     </g>
    </g>
   </g>
   <g id="text_20">
    <g clip-path="url(#p994be5e475)">
     <!-- 0 -->
     <g transform="translate(312.744372 145.533243)scale(0.08 -0.08)">
      <use xlink:href="#DejaVuSans-30"/>
     </g>
    </g>
   </g>
   <g id="text_21">
    <g clip-path="url(#p994be5e475)">
     <!-- $\mathrm{R_X}$ -->
     <g transform="translate(307.359372 133.618513)scale(0.13 -0.13)">
      <use xlink:href="#DejaVuSans-52" transform="translate(0 0.09375)"/>
      <use xlink:href="#DejaVuSans-58" transform="translate(70.439453 -16.3125)scale(0.7)"/>
     </g>
    </g>
   </g>
  </g>
 </g>
 <defs>
  <clipPath id="p994be5e475">
   <rect x="7.2" y="7.2" width="338.087032" height="154.533398"/>
  </clipPath>
 </defs>
</svg>
